<svg width="304" height="60" viewBox="0 0 304 60" fill="none" xmlns="http://www.w3.org/2000/svg">
<rect width="304" height="60" fill="black"/>
<g clip-path="url(#clip0_1_17)">
<path d="M36.555 9.414C38.054 9.987 39.222 10.968 40.059 12.356C40.808 13.568 41.183 15.772 41.183 18.968V20.092V42.44L41.216 43.465C41.237 44.391 41.382 45.085 41.646 45.548C41.866 45.944 42.406 46.44 43.266 47.035C42.847 47.674 42.439 48.159 42.043 48.49C41.58 48.843 40.94 49.229 40.125 49.647C39.266 50.088 38.682 50.496 38.374 50.87C38.043 51.223 37.756 51.84 37.514 52.722C36.015 52.457 34.902 51.807 34.175 50.771C33.844 50.286 33.591 49.713 33.414 49.052C33.216 48.325 33.039 47.267 32.885 45.878L32.852 45.416C32.39 46.254 31.75 47.025 30.935 47.73L29.48 48.986C28.29 50 27.683 51.245 27.662 52.722H27.365C24.081 52.722 21.106 51.984 18.439 50.507C15.75 49.008 13.656 46.97 12.158 44.391C10.637 41.768 9.877 38.87 9.877 35.696C9.877 33.647 10.274 31.619 11.067 29.613C11.816 27.652 12.94 25.757 14.439 23.927C15.871 22.142 17.59 20.544 19.596 19.134C21.161 18.076 22.13 17.547 22.505 17.547C22.725 17.547 22.836 17.646 22.836 17.844C22.836 17.976 22.67 18.197 22.34 18.506C20.665 19.85 19.309 21.658 18.273 23.927C17.237 26.198 16.72 28.456 16.72 30.704C16.72 32.908 17.15 35.001 18.009 36.985C18.868 38.968 20.103 40.666 21.712 42.076C23.32 43.486 25.183 44.555 27.299 45.283V13.017C25.955 13.855 24.775 14.439 23.762 14.769C22.836 15.056 21.568 15.199 19.96 15.199C19.145 15.199 17.965 15.144 16.423 15.033C14.99 14.946 13.932 14.901 13.249 14.901C11.332 14.901 9.756 15.353 8.522 16.257C7.31 17.139 6.704 18.34 6.704 19.861C6.704 20.875 7.035 21.734 7.696 22.439C8.335 23.167 9.095 23.53 9.977 23.53C10.924 23.53 11.784 23.211 12.556 22.572C12.996 22.197 13.272 22.01 13.383 22.01C13.691 22.01 13.845 22.176 13.845 22.506C13.845 22.969 13.383 23.454 12.457 23.961C11.553 24.446 10.594 24.689 9.581 24.689C8.325 24.689 7.212 24.347 6.242 23.664C5.25 23.003 4.468 22.088 3.895 20.92C3.297 19.75 3 18.472 3 17.083C3 15.805 3.264 14.571 3.793 13.38C4.322 12.212 5.049 11.198 5.975 10.338C6.879 9.501 8.003 8.83 9.347 8.322C10.603 7.838 11.97 7.595 13.447 7.595C15.695 7.595 18.427 8.543 21.646 10.438C22.549 10.967 23.277 11.331 23.828 11.529C24.401 11.727 25.04 11.826 25.745 11.826C26.141 11.826 26.66 11.738 27.299 11.561V11.131C27.409 8.377 28.059 7 29.249 7C29.866 7 30.174 7.386 30.174 8.157C30.174 9.127 29.579 10.405 28.389 11.991V15.991C29.051 15.308 29.645 14.79 30.174 14.437C30.77 14.041 31.739 13.511 33.083 12.85C34.053 12.343 34.78 11.848 35.266 11.362C35.772 10.857 36.202 10.207 36.555 9.414ZM28.389 21.646V29.25H32.951V21.779C32.951 19.663 32.796 18.208 32.488 17.415C32.179 16.644 31.606 16.258 30.769 16.258C29.865 16.258 29.248 16.654 28.917 17.448C28.565 18.24 28.389 19.64 28.389 21.646ZM32.952 33.117V30.439H28.39V33.117H32.952ZM32.952 39.233V34.307H28.39V45.448C28.677 45.536 28.952 45.58 29.217 45.58C30.407 45.58 31.333 45.096 31.994 44.125C32.633 43.156 32.953 41.833 32.953 40.158L32.952 39.233Z" fill="#0071C9"/>
<path d="M75.139 24.593C74.676 22.586 74.136 21.313 73.441 20.618C72.785 19.923 71.782 19.691 69.544 19.691H67.769V37.944C67.769 41.224 68.155 41.456 71.551 41.726V43.077H58.97V41.726C62.211 41.456 62.597 41.225 62.597 37.944V19.691H61.285C58.121 19.691 57.426 20.116 56.847 20.733C56.23 21.389 55.728 22.701 55.226 24.631H53.837C53.991 21.814 54.223 18.997 54.3 17.028H55.226C55.844 17.916 56.345 17.993 57.426 17.993H72.94C73.982 17.993 74.522 17.762 75.178 17.028H76.104C76.143 18.649 76.336 22.045 76.529 24.515L75.139 24.593Z" fill="white"/>
<path d="M106.282 19.344C103.272 19.614 103.04 19.845 103.04 23.126V37.983C103.04 41.225 103.349 41.457 106.282 41.726V43.077H94.512V41.726C97.599 41.456 97.869 41.186 97.869 37.944V30.766H87.334V37.944C87.334 41.224 87.642 41.456 90.498 41.726V43.077H78.998V41.726C81.815 41.456 82.163 41.225 82.163 37.944V23.126C82.163 19.846 81.816 19.614 78.844 19.344V17.993H90.421V19.344C87.642 19.614 87.334 19.845 87.334 23.126V28.799H97.869V23.126C97.869 19.846 97.56 19.614 94.704 19.344V17.993H106.281L106.282 19.344Z" fill="white"/>
<path d="M129.745 36.672C129.514 38.408 128.703 41.92 128.394 43.078H108.713V41.727C111.993 41.457 112.38 41.226 112.38 37.945V23.126C112.38 19.769 111.994 19.576 109.254 19.344V17.993H127.43C127.469 18.687 127.662 21.389 127.816 23.782L126.427 23.975C126.041 22.624 125.539 21.351 124.844 20.656C124.188 19.961 123.146 19.691 120.985 19.691H119.133C117.705 19.691 117.551 19.768 117.551 21.042V29.224H120.136C123.377 29.224 123.879 29.031 124.42 26.329H125.809V34.124H124.42C123.879 31.346 123.417 31.191 120.136 31.191H117.551V37.867C117.551 39.68 117.705 40.645 118.477 41.032C119.171 41.341 120.483 41.418 121.95 41.418C123.918 41.418 125.307 41.148 126.233 40.183C126.966 39.334 127.661 38.099 128.394 36.401L129.745 36.672Z" fill="white"/>
<path d="M166.445 19.344C164.322 19.46 163.358 20.27 163.165 21.621C162.972 22.817 162.817 24.245 162.817 26.985V31.192C162.817 35.283 162.2 38.525 160.039 40.839C158.264 42.692 155.64 43.656 152.9 43.656C150.353 43.656 147.922 43.116 146.069 41.649C143.869 39.951 142.866 37.095 142.866 32.581V23.512C142.866 19.885 142.48 19.614 139.625 19.344V17.993H151.241V19.344C148.424 19.614 148.038 19.885 148.038 23.512V31.886C148.038 37.675 150.122 41.032 154.289 41.032C158.881 41.032 160.888 37.559 160.888 31.114V26.985C160.888 24.245 160.695 22.779 160.502 21.621C160.309 20.27 159.383 19.498 156.758 19.344V17.993H166.445V19.344Z" fill="white"/>
<path d="M182.113 29.609C186.59 30.149 189.561 31.963 189.561 35.629C189.561 38.214 188.133 40.221 185.934 41.418C183.965 42.537 180.994 43.078 177.791 43.078H167.989V41.727C170.961 41.457 171.308 41.187 171.308 37.907V23.165C171.308 19.885 170.961 19.615 168.221 19.345V17.994H179.49C182.462 17.994 184.39 18.38 185.857 19.345C187.285 20.271 188.134 21.815 188.134 23.744C188.134 27.41 184.892 28.915 182.114 29.455L182.113 29.609ZM177.29 29.069C180.995 29.069 182.654 27.603 182.654 24.4C182.654 20.927 180.571 19.615 178.486 19.615C177.637 19.615 176.981 19.846 176.75 20.078C176.48 20.348 176.403 20.927 176.403 21.737V29.069H177.29ZM176.402 37.829C176.402 40.685 177.174 41.495 179.219 41.457C181.38 41.418 183.812 39.835 183.812 36.054C183.812 32.465 181.573 30.613 177.174 30.613H176.402V37.829Z" fill="white"/>
<path d="M216.151 19.344C213.681 19.614 212.909 20.308 211.52 22.586C210.093 24.863 209.089 26.523 207.198 30.149C206.658 31.191 206.503 31.616 206.503 32.812V37.751C206.503 41.224 206.813 41.456 210.247 41.764V43.076H197.705V41.764C200.985 41.494 201.332 41.224 201.332 37.751V33.467C201.332 32.502 201.177 32.116 200.831 31.383C199.789 29.261 198.361 26.675 196.046 22.623C194.618 20.076 193.962 19.651 191.839 19.343V17.992H202.877V19.343C200.33 19.69 200.368 20.192 201.063 21.581C202.413 24.244 203.957 27.1 205.462 29.955C206.581 27.755 208.549 24.128 209.475 21.774C210.093 20.231 210.054 19.729 207.199 19.343V17.992H216.152L216.151 19.344Z" fill="white"/>
<path d="M231.047 24.284C230.236 21.853 228.809 18.997 225.644 18.997C223.483 18.997 221.901 20.618 221.901 22.817C221.901 24.94 223.291 26.174 226.687 27.873C230.739 29.841 233.518 32.002 233.518 35.822C233.518 40.221 229.774 43.656 224.141 43.656C222.751 43.656 221.401 43.463 220.243 43.116C219.162 42.807 218.429 42.498 217.889 42.267C217.541 41.302 217.04 38.06 216.77 35.706L218.121 35.282C218.893 37.752 221.17 42.074 224.874 42.074C227.228 42.074 228.733 40.453 228.733 38.022C228.733 35.745 227.035 34.317 224.141 32.774C220.166 30.767 217.426 28.683 217.426 24.979C217.426 20.734 220.783 17.415 226.263 17.415C228.733 17.415 230.932 18.187 231.627 18.457C231.781 19.885 232.051 21.583 232.36 23.976L231.047 24.284Z" fill="white"/>
<path d="M250.536 24.284C249.726 21.853 248.298 18.997 245.134 18.997C242.973 18.997 241.39 20.618 241.39 22.817C241.39 24.94 242.78 26.174 246.175 27.873C250.227 29.841 253.006 32.002 253.006 35.822C253.006 40.221 249.263 43.656 243.629 43.656C242.239 43.656 240.889 43.463 239.731 43.116C238.65 42.807 237.918 42.498 237.377 42.267C237.03 41.302 236.527 38.06 236.258 35.706L237.608 35.282C238.38 37.752 240.657 42.074 244.361 42.074C246.715 42.074 248.22 40.453 248.22 38.022C248.22 35.745 246.522 34.317 243.628 32.774C239.652 30.767 236.913 28.683 236.913 24.979C236.913 20.734 240.27 17.415 245.75 17.415C248.219 17.415 250.42 18.187 251.114 18.457C251.268 19.885 251.538 21.583 251.847 23.976L250.536 24.284Z" fill="white"/>
<path d="M275.813 36.672C275.581 38.408 274.771 41.92 274.462 43.078H254.781V41.727C258.061 41.457 258.447 41.226 258.447 37.945V23.126C258.447 19.769 258.061 19.576 255.322 19.344V17.993H273.498C273.536 18.687 273.729 21.389 273.884 23.782L272.495 23.975C272.109 22.624 271.607 21.351 270.912 20.656C270.256 19.961 269.214 19.691 267.053 19.691H265.201C263.773 19.691 263.619 19.768 263.619 21.042V29.224H266.204C269.445 29.224 269.948 29.031 270.487 26.329H271.876V34.124H270.487C269.947 31.346 269.484 31.191 266.204 31.191H263.619V37.867C263.619 39.68 263.773 40.645 264.545 41.032C265.24 41.341 266.552 41.418 268.019 41.418C269.987 41.418 271.376 41.148 272.302 40.183C273.035 39.334 273.73 38.099 274.463 36.401L275.813 36.672Z" fill="white"/>
<path d="M301.129 19.344C298.659 19.614 297.888 20.308 296.498 22.586C295.07 24.863 294.067 26.523 292.176 30.149C291.636 31.191 291.481 31.616 291.481 32.812V37.751C291.481 41.224 291.79 41.456 295.225 41.764V43.076H282.683V41.764C285.964 41.494 286.311 41.224 286.311 37.751V33.467C286.311 32.502 286.157 32.116 285.809 31.383C284.767 29.261 283.339 26.675 281.024 22.623C279.596 20.076 278.94 19.651 276.817 19.343V17.992H287.854V19.343C285.307 19.69 285.345 20.192 286.04 21.581C287.391 24.244 288.935 27.1 290.439 29.955C291.558 27.755 293.526 24.128 294.453 21.774C295.071 20.231 295.032 19.729 292.176 19.343V17.992H301.129V19.344Z" fill="white"/>
</g>
<defs>
<clipPath id="clip0_1_17">
<rect width="298.129" height="45.721" fill="white" transform="translate(3 7)"/>
</clipPath>
</defs>
</svg>
