<svg width="15" height="16" viewBox="0 0 15 16" fill="none" xmlns="http://www.w3.org/2000/svg">
  <path fill-rule="evenodd" clip-rule="evenodd" d="M15 1.60807V2.98047C15 3.14844 14.8515 3.28646 14.6699 3.28646H9.55371C9.20519 4.05729 8.46273 4.58984 7.60247 4.58984C6.74343 4.58984 6.00098 4.05729 5.65246 3.28646H.330115C.149718 3.28646 0 3.14844 0 2.98047V1.60807C0 1.4401.148491 1.30208.330115 1.30208H5.65246C6.00098.53125 6.74343 0 7.60247 0C8.46151 0 9.20396.532552 9.55248 1.30208H14.6687C14.8515 1.30208 15 1.4401 15 1.60807ZM6.0832 14.6979C5.73468 15.4688 4.99223 16 4.13196 16C3.27293 16 2.53048 15.4688 2.18195 14.6979H.330115C.148491 14.6979 0 14.5599 0 14.3919V13.0195C0 12.8516.148491 12.7135.330115 12.7135H2.18195C2.53048 11.9427 3.27293 11.4102 4.13196 11.4102C4.991 11.4102 5.73345 11.9427 6.08198 12.7135H14.6687C14.8503 12.7135 14.9988 12.8516 14.9988 13.0195V14.3919C14.9988 14.5599 14.8491 14.6979 14.6687 14.6979H6.0832ZM12.7776 9.07943C12.429 9.85026 11.6866 10.3828 10.8275 10.3828C9.9685 10.3828 9.22605 9.85026 8.8763 9.07943H.330115C.149718 9.07943 0 8.94141 0 8.77344V7.40234C0 7.23438.148491 7.09635.330115 7.09635H8.8763C9.22482 6.32552 9.96727 5.79427 10.8263 5.79427C11.6853 5.79427 12.4278 6.32682 12.7763 7.09635H14.6687C14.8503 7.09635 14.9988 7.23438 14.9988 7.40234V8.77344C14.9988 8.94141 14.8503 9.07943 14.6687 9.07943H12.7776Z" fill="currentColor"/>
</svg>
