<svg xmlns="http://www.w3.org/2000/svg" viewBox="0 0 139.68 168.19"><defs><style>.cls-1,.cls-2,.cls-3{fill:#fff;stroke:#fff;}.cls-1{stroke-linecap:round;stroke-width:4px;}.cls-1,.cls-2{stroke-miterlimit:10;}.cls-3{stroke-linejoin:round;stroke-width:0.5px;}</style></defs><title>Asset 1</title><g id="Layer_2" data-name="Layer 2"><g id="Layer_1-2" data-name="Layer 1"><line class="cls-1" x1="2" y1="158.43" x2="69.84" y2="25.06"/><line class="cls-1" x1="137.68" y1="158.43" x2="69.84" y2="25.06"/><line class="cls-1" x1="69.84" y1="25.06" x2="69.84" y2="166.19"/><line class="cls-1" x1="69.84" y1="166.19" x2="122.53" y2="128.65"/><line class="cls-1" x1="137.68" y1="158.43" x2="69.84" y2="130.29"/><line class="cls-1" x1="69.84" y1="166.19" x2="17.15" y2="128.65"/><line class="cls-1" x1="2" y1="158.43" x2="69.84" y2="130.29"/><line class="cls-1" x1="17.15" y1="128.65" x2="69.84" y2="95.63"/><line class="cls-1" x1="69.84" y1="130.29" x2="33.94" y2="95.63"/><line class="cls-1" x1="69.84" y1="130.29" x2="33.94" y2="95.63"/><line class="cls-1" x1="69.84" y1="130.29" x2="33.94" y2="95.63"/><line class="cls-1" x1="122.53" y1="128.65" x2="69.84" y2="95.63"/><line class="cls-1" x1="69.84" y1="130.29" x2="105.73" y2="95.63"/><line class="cls-1" x1="33.94" y1="95.63" x2="69.84" y2="65.6"/><line class="cls-1" x1="69.84" y1="95.63" x2="49.04" y2="65.95"/><line class="cls-1" x1="105.73" y1="95.8" x2="69.84" y2="65.77"/><line class="cls-1" x1="69.84" y1="95.8" x2="90.64" y2="66.12"/><circle class="cls-2" cx="69.84" cy="19.52" r="8.58"/><polygon class="cls-3" points="85.29 14.33 82.13 8.85 90.37 7.18 89.03 4.87 96.72 3.52 95.81 1.95 103.76 0.25 99.49 2.52 100.57 4.38 93.91 6.23 95.92 9.72 85.29 14.33"/><polygon class="cls-3" points="87.12 21.05 83.96 26.53 92.2 28.2 90.86 30.51 98.55 31.86 97.65 33.43 105.59 35.13 101.32 32.87 102.4 31 95.75 29.15 97.76 25.66 87.12 21.05"/><polygon class="cls-3" points="54.43 14.33 57.59 8.85 49.35 7.18 50.69 4.87 43 3.52 43.91 1.95 35.96 0.25 40.23 2.52 39.15 4.38 45.8 6.23 43.79 9.72 54.43 14.33"/><polygon class="cls-3" points="52.6 21.05 55.76 26.53 47.52 28.2 48.85 30.51 41.16 31.86 42.07 33.43 34.13 35.13 38.4 32.87 37.32 31 43.97 29.15 41.96 25.66 52.6 21.05"/></g></g></svg>