<svg xmlns="http://www.w3.org/2000/svg" viewBox="0 0 71.97 35.38"><defs><style>.cls-1{fill:#fff;stroke:#fff;stroke-linejoin:round;stroke-width:0.5px;}</style></defs><title>Asset 3</title><g id="Layer_2" data-name="Layer 2"><g id="Layer_1-2" data-name="Layer 1"><polygon class="cls-1" points="51.41 14.33 48.25 8.85 56.49 7.18 55.16 4.87 62.84 3.52 61.94 1.95 69.88 0.25 65.61 2.52 66.69 4.38 60.04 6.23 62.05 9.72 51.41 14.33"/><polygon class="cls-1" points="53.24 21.05 50.08 26.53 58.33 28.2 56.99 30.51 64.68 31.86 63.77 33.43 71.72 35.13 67.44 32.87 68.52 31 61.87 29.15 63.88 25.66 53.24 21.05"/><polygon class="cls-1" points="20.55 14.33 23.71 8.85 15.47 7.18 16.81 4.87 9.12 3.52 10.03 1.95 2.08 0.25 6.35 2.52 5.28 4.38 11.93 6.23 9.92 9.72 20.55 14.33"/><polygon class="cls-1" points="18.72 21.05 21.88 26.53 13.64 28.2 14.98 30.51 7.29 31.86 8.2 33.43 0.25 35.13 4.52 32.87 3.44 31 10.1 29.15 8.08 25.66 18.72 21.05"/></g></g></svg>