<svg xmlns="http://www.w3.org/2000/svg" viewBox="0 0 256.95 255.23"><defs><style>.cls-1,.cls-2{fill:#fff;stroke:#fff;stroke-miterlimit:10;}.cls-2{stroke-linecap:round;stroke-width:2px;}</style></defs><title>high-fiveAsset 1</title><g id="Layer_2" data-name="Layer 2"><g id="Layer_1-2" data-name="Layer 1"><circle class="cls-1" cx="50.1" cy="44.02" r="23.49"/><circle class="cls-1" cx="206.84" cy="44.01" r="23.49"/><path class="cls-1" d="M69.42,70.66a7.72,7.72,0,0,0-2.87,1L30.1,77a7.5,7.5,0,0,0-2.07.6,8.05,8.05,0,0,0-1.38.54c-.89.45-7.5,4-13.87,13.37C.5,108.48.48,118.79.5,141c0,9.65,1.09,17.68,3.69,30.27A8,8,0,0,0,12,177.67a8.31,8.31,0,0,0,3.21-.66,8.09,8.09,0,0,0,4.59-9.16C17.46,156.28,17.5,146.4,17.5,138c0-18.77,3.65-27,8-33.76l8.18,52.54c0,.26.09.51.15.77v83.56a13.14,13.14,0,0,0,11.44,13.17,12.92,12.92,0,0,0,14.38-12.83l4.24-83.82L90.46,245.3a12.91,12.91,0,0,0,24.86-7L88.91,144s-8.68-47-8.76-54.45c-.06-5,13.56-11,17.63-13.72,6.79-4,14-8.79,20-16.85a69.48,69.48,0,0,0,10.71-21.37A69.08,69.08,0,0,0,139.18,59a71,71,0,0,0,29.75,22.77c2.89,1.2,7.17,2.5,7.88,4.81,2,6.45-8.76,57.45-8.76,57.45l-26.42,94.32a12.91,12.91,0,0,0,24.86,7l28-87.74,2.79,83.9a12.92,12.92,0,0,0,14.38,12.83,13.13,13.13,0,0,0,11.44-13.17V157.55a6.38,6.38,0,0,0,.15-.76l8.19-52.55c.25.39.51-2.2.76-1.78,4.11,6.85,7.23,17.88,7.25,35.55,0,8.37,0,18.22-2.3,29.75a8.22,8.22,0,0,0,4.51,9.22,8,8,0,0,0,11.1-5.7c2.59-12.6,3.69-20.62,3.69-30.27,0-22.22,0-25.22-12.28-49.52-6.37-9.33-13-12.92-13.86-13.37a8.13,8.13,0,0,0-1.36-.53,7.75,7.75,0,0,0-2.09-.61L190.4,71.61a8,8,0,0,0-2.89-1,59.73,59.73,0,0,1-21.15-8.16,52.34,52.34,0,0,1-14.78-13.66A55.86,55.86,0,0,1,141.9,25a8,8,0,0,0-13.42-4.42A8,8,0,0,0,115.05,25,55.61,55.61,0,0,1,105,49.41,55,55,0,0,1,81.86,67a60.9,60.9,0,0,1-9.14,3c-1.12.27-2,.45-2.58.55"/><line class="cls-2" x1="128.48" y1="1" x2="128.48" y2="8.63"/><line class="cls-2" x1="140.04" y1="5.71" x2="135.13" y2="11.56"/><line class="cls-2" x1="116.91" y1="5.71" x2="121.82" y2="11.56"/></g></g></svg>