<svg xmlns="http://www.w3.org/2000/svg" viewBox="0 0 139.68 157.75"><defs><style>.cls-1,.cls-2{fill:#fff;stroke:#fff;stroke-miterlimit:10;}.cls-1{stroke-linecap:round;stroke-width:4px;}</style></defs><title>Asset 2</title><g id="Layer_2" data-name="Layer 2"><g id="Layer_1-2" data-name="Layer 1"><line class="cls-1" x1="2" y1="147.99" x2="69.84" y2="14.62"/><line class="cls-1" x1="137.68" y1="147.99" x2="69.84" y2="14.62"/><line class="cls-1" x1="69.84" y1="14.62" x2="69.84" y2="155.75"/><line class="cls-1" x1="69.84" y1="155.75" x2="122.53" y2="118.2"/><line class="cls-1" x1="137.68" y1="147.99" x2="69.84" y2="119.85"/><line class="cls-1" x1="69.84" y1="155.75" x2="17.15" y2="118.2"/><line class="cls-1" x1="2" y1="147.99" x2="69.84" y2="119.85"/><line class="cls-1" x1="17.15" y1="118.2" x2="69.84" y2="85.19"/><line class="cls-1" x1="69.84" y1="119.85" x2="33.94" y2="85.19"/><line class="cls-1" x1="69.84" y1="119.85" x2="33.94" y2="85.19"/><line class="cls-1" x1="69.84" y1="119.85" x2="33.94" y2="85.19"/><line class="cls-1" x1="122.53" y1="118.2" x2="69.84" y2="85.19"/><line class="cls-1" x1="69.84" y1="119.85" x2="105.73" y2="85.19"/><line class="cls-1" x1="33.94" y1="85.19" x2="69.84" y2="55.16"/><line class="cls-1" x1="69.84" y1="85.19" x2="49.04" y2="55.51"/><line class="cls-1" x1="105.73" y1="85.36" x2="69.84" y2="55.33"/><line class="cls-1" x1="69.84" y1="85.36" x2="90.64" y2="55.68"/><circle class="cls-2" cx="69.84" cy="9.08" r="8.58"/></g></g></svg>