<svg width="8217" height="1755" viewBox="0 0 8217 1755" fill="none" xmlns="http://www.w3.org/2000/svg">
<path d="M1431.71 86.8073C1485.62 107.412 1527.62 142.689 1557.72 192.601C1584.65 236.185 1598.14 315.441 1598.14 430.369V470.788V1274.42L1599.33 1311.28C1600.08 1344.58 1605.3 1369.53 1614.79 1386.18C1622.7 1400.42 1642.12 1418.26 1673.05 1439.66C1657.98 1462.63 1643.31 1480.08 1629.07 1491.98C1612.42 1504.67 1589.4 1518.55 1560.09 1533.58C1529.2 1549.44 1508.2 1564.11 1497.12 1577.56C1485.22 1590.26 1474.9 1612.44 1466.2 1644.16C1412.29 1634.63 1372.26 1611.26 1346.12 1574C1334.21 1556.56 1325.12 1535.96 1318.75 1512.19C1311.63 1486.04 1305.27 1448 1299.73 1398.05L1298.54 1381.44C1281.93 1411.57 1258.91 1439.3 1229.6 1464.65L1177.28 1509.81C1134.48 1546.28 1112.65 1591.05 1111.9 1644.16H1101.22C983.117 1644.16 876.13 1617.62 780.219 1564.51C683.517 1510.61 608.212 1437.32 554.341 1344.58C499.643 1250.26 472.311 1146.04 472.311 1031.91C472.311 958.225 486.588 885.298 515.106 813.162C542.042 742.645 582.463 674.501 636.37 608.694C687.868 544.505 749.687 487.041 821.827 436.338C878.108 398.292 912.955 379.27 926.441 379.27C934.352 379.27 938.344 382.83 938.344 389.95C938.344 394.696 932.374 402.643 920.507 413.755C860.27 462.085 811.506 527.101 774.249 608.694C736.992 690.359 718.4 771.557 718.4 852.394C718.4 931.65 733.864 1006.91 764.755 1078.26C795.647 1149.57 840.06 1210.63 897.923 1261.33C955.75 1312.03 1022.75 1350.48 1098.84 1376.65V216.371C1050.51 246.505 1008.07 267.506 971.645 279.373C938.344 289.693 892.744 294.836 834.917 294.836C805.608 294.836 763.173 292.858 707.719 288.866C656.186 285.738 618.138 284.12 593.576 284.12C524.636 284.12 467.96 300.373 423.583 332.881C379.997 364.598 358.204 407.786 358.204 462.481C358.204 498.944 370.107 529.834 393.878 555.186C416.858 581.364 444.189 594.418 475.908 594.418C509.964 594.418 540.891 582.947 568.654 559.968C584.477 546.483 594.403 539.759 598.394 539.759C609.471 539.759 615.009 545.728 615.009 557.595C615.009 574.244 598.394 591.685 565.094 609.917C532.584 627.357 498.096 636.095 461.667 636.095C416.498 636.095 362.383 634.477 327.5 609.917C291.826 586.147 277.792 542.564 257.186 500.562C235.681 458.489 225 412.532 225 362.584C225 316.627 234.494 272.253 253.518 229.424C272.542 187.423 298.686 150.96 331.987 120.034C364.497 89.9358 404.918 65.8067 453.251 47.539C498.42 30.1344 547.58 21.3962 600.696 21.3962C681.539 21.3962 779.787 55.4862 895.549 123.63C928.023 142.653 954.203 155.742 974.019 162.863C994.625 169.983 1017.6 173.543 1042.96 173.543C1057.2 173.543 1075.86 170.378 1098.84 164.013V148.551C1102.8 49.5168 1126.17 0 1168.97 0C1191.16 0 1202.23 13.8805 1202.23 41.6057C1202.23 76.4868 1180.84 122.444 1138.04 179.476V323.316C1161.85 298.755 1183.21 280.128 1202.23 267.434C1223.67 253.194 1258.51 234.135 1306.85 210.366C1341.73 192.134 1367.88 174.334 1385.35 156.857C1403.55 138.697 1419.01 115.324 1431.71 86.8073ZM1138.04 526.669V800.109H1302.1V531.452C1302.1 455.361 1296.53 403.039 1285.45 374.523C1274.34 346.798 1253.73 332.917 1223.63 332.917C1191.12 332.917 1168.93 347.157 1157.03 375.709C1144.37 404.19 1138.04 454.534 1138.04 526.669ZM1302.14 939.166V842.865H1138.08V939.166H1302.14ZM1302.14 1159.1V981.958H1138.08V1382.59C1148.4 1385.75 1158.29 1387.33 1167.82 1387.33C1210.61 1387.33 1243.91 1369.93 1267.69 1335.01C1290.66 1300.17 1302.17 1252.59 1302.17 1192.36L1302.14 1159.1Z" fill="black"/>
<path fill-rule="evenodd" clip-rule="evenodd" d="M968.339 1237.56C968.936 1237.55 969.53 1237.54 970.122 1237.53L969.604 1236.97L968.339 1237.56Z" fill="#D27B40"/>
<path d="M1109.48 1161.81C1104.03 1170.39 1090.29 1193.88 1078.28 1201.43C1077.63 1201.83 1076.98 1202.24 1076.34 1202.64M852.455 1238.07C883.715 1237.79 931.032 1238.18 968.339 1237.56M968.339 1237.56C968.936 1237.55 969.53 1237.54 970.122 1237.53M968.339 1237.56L969.604 1236.97M1024.79 1211.33L1021.87 1212.69M917.825 1306.41C942.262 1297.62 993.998 1279.85 1007.92 1278.24M1114.93 1233.62C1107.14 1234.91 1091.12 1238.1 1082.17 1241.53M981.215 1332.17L1037.18 1309.88M1033.71 1360.39L1058.05 1332.24M1058.97 1331.18L1058.05 1332.24M1048.57 1322.26C1048.62 1322.24 1048.67 1322.22 1048.73 1322.2M1119.38 1283.14C1114.1 1282.81 1101.85 1283.14 1095.12 1287.1C1093.19 1288.23 1091.37 1289.6 1089.61 1291.12M773.219 1126.65C795.999 1134.73 817.294 1148.93 878.207 1138.53M878.207 1138.53C910.399 1133.04 940.669 1118.5 968.339 1101.88M878.207 1138.53L922.242 1185.96M1110.96 934.992C1101.33 963.167 1075.04 1005.57 1051.21 1035.03M1068.87 1162.8L1070.22 1161.82M1109.97 1133.08L1070.22 1161.82M791.046 1201.92C836.403 1201.92 888.964 1194.24 922.242 1185.96M1121.36 1035.03C1106.81 1052.26 1084.62 1080.94 1061.3 1102.3M1103.04 1380.7L1089.61 1291.12M1103.04 1380.7L1058.05 1332.24M1103.04 1380.7L1069.33 1310.92M968.339 1101.88C993.025 1087.06 1016.15 1070.44 1028.76 1059.29C1035.48 1053.35 1043.21 1044.92 1051.21 1035.03M968.339 1101.88L992.053 1150.97M1051.21 1035.03L1061.3 1102.3M970.122 1237.53L1007.92 1278.24M970.122 1237.53L969.604 1236.97M970.122 1237.53C997.97 1237.05 1019.9 1235.98 1024.79 1233.62C1026.66 1232.72 1028.58 1231.73 1030.56 1230.67M969.604 1236.97L922.242 1185.96M969.604 1236.97L1021.87 1212.69M922.242 1185.96C922.756 1185.83 923.264 1185.71 923.768 1185.58C942.646 1180.79 968.065 1166.27 992.053 1150.97M1061.3 1102.3L1070.22 1161.82M1061.3 1102.3C1054.45 1108.56 1047.51 1114.19 1040.64 1118.72C1036.03 1121.76 1030.88 1125.23 1025.35 1128.95C1015.22 1135.78 1003.81 1143.47 992.053 1150.97M1070.22 1161.82L1076.34 1202.64M1076.34 1202.64L1082.17 1241.53M1076.34 1202.64C1072.64 1204.98 1069.04 1207.26 1065.55 1209.48C1052.36 1217.85 1040.69 1225.26 1030.56 1230.67M1082.17 1241.53L1089.61 1291.12M1082.17 1241.53C1080.88 1242.02 1079.73 1242.52 1078.77 1243.02C1072.28 1246.44 1062.73 1257.87 1056.12 1265.77C1053.86 1268.48 1051.94 1270.77 1050.62 1272.19M1089.61 1291.12C1086.62 1293.69 1083.79 1296.72 1080.89 1299.82C1078.02 1302.89 1075.07 1306.04 1071.84 1308.89C1071.06 1309.58 1070.22 1310.26 1069.33 1310.92M1058.05 1332.24L1048.73 1322.2M1048.73 1322.2L1007.92 1278.24M1048.73 1322.2C1053.18 1320.4 1062.6 1315.98 1069.33 1310.92M1007.92 1278.24C1008.1 1278.22 1008.28 1278.2 1008.45 1278.19C1013.05 1277.77 1018 1277.47 1022.82 1277.17C1035.16 1276.43 1046.71 1275.73 1049.56 1273.23C1049.85 1272.98 1050.2 1272.62 1050.62 1272.19M992.053 1150.97L1021.87 1212.69M1021.87 1212.69L1030.56 1230.67M1030.56 1230.67L1050.62 1272.19M1050.62 1272.19L1069.33 1310.92" stroke="black" stroke-width="10"/>
<path fill-rule="evenodd" clip-rule="evenodd" d="M942.545 1288.01C943.241 1287.99 943.934 1287.98 944.625 1287.97L944.021 1287.32L942.545 1288.01Z" fill="#D27B40"/>
<path d="M1107.14 1199.62C1100.79 1209.64 1084.77 1237.04 1070.76 1245.84C1070 1246.32 1069.25 1246.79 1068.5 1247.27M807.404 1288.6C843.859 1288.27 899.038 1288.72 942.545 1288.01M942.545 1288.01C943.241 1287.99 943.934 1287.98 944.625 1287.97M942.545 1288.01L944.021 1287.32M1008.38 1257.4L1004.97 1258.98M883.637 1368.33C912.135 1358.07 972.468 1337.34 988.701 1335.46M1113.49 1283.4C1104.41 1284.91 1085.73 1288.63 1075.29 1292.63M957.56 1398.38L1022.82 1372.38M1018.78 1431.31L1047.16 1398.46M1048.23 1397.22L1047.16 1398.46M1036.1 1386.82C1036.17 1386.8 1036.23 1386.77 1036.29 1386.75M1118.69 1341.18C1112.53 1340.79 1098.25 1341.18 1090.39 1345.8C1088.15 1347.12 1086.02 1348.71 1083.97 1350.49M715 1158.6C741.566 1168.04 766.4 1184.6 837.435 1172.47M837.435 1172.47C874.977 1166.05 910.277 1149.1 942.545 1129.71M837.435 1172.47L888.788 1227.8M1108.87 935C1097.63 967.871 1066.97 1017.35 1039.18 1051.71M1059.78 1200.78L1061.36 1199.64M1107.72 1166.11L1061.36 1199.64M735.79 1246.42C788.684 1246.42 849.98 1237.46 888.788 1227.8M1121 1051.71C1104.03 1071.81 1078.15 1105.28 1050.95 1130.19M1099.63 1455L1083.97 1350.49M1099.63 1455L1047.16 1398.46M1099.63 1455L1060.32 1373.6M942.545 1129.71C971.333 1112.42 998.298 1093.02 1013 1080.02C1020.84 1073.09 1029.85 1063.25 1039.18 1051.71M942.545 1129.71L970.199 1186.98M1039.18 1051.71L1050.95 1130.19M944.625 1287.97L988.701 1335.46M944.625 1287.97L944.021 1287.32M944.625 1287.97C977.1 1287.4 1002.68 1286.15 1008.38 1283.4C1010.56 1282.35 1012.8 1281.2 1015.11 1279.97M944.021 1287.32L888.788 1227.8M944.021 1287.32L1004.97 1258.98M888.788 1227.8C889.387 1227.65 889.98 1227.5 890.568 1227.36C912.583 1221.77 942.226 1204.83 970.199 1186.98M1050.95 1130.19L1061.36 1199.64M1050.95 1130.19C1042.97 1137.5 1034.88 1144.07 1026.86 1149.36C1021.48 1152.9 1015.48 1156.95 1009.04 1161.29C997.221 1169.25 983.911 1178.23 970.199 1186.98M1061.36 1199.64L1068.5 1247.27M1068.5 1247.27L1075.29 1292.63M1068.5 1247.27C1064.17 1249.99 1059.98 1252.65 1055.91 1255.24C1040.52 1265.01 1026.92 1273.65 1015.11 1279.97M1075.29 1292.63L1083.97 1350.49M1075.29 1292.63C1073.78 1293.21 1072.44 1293.79 1071.33 1294.38C1063.76 1298.36 1052.62 1311.7 1044.92 1320.92C1042.28 1324.08 1040.04 1326.75 1038.49 1328.4M1083.97 1350.49C1080.48 1353.49 1077.18 1357.02 1073.8 1360.64C1070.45 1364.23 1067.02 1367.89 1063.25 1371.22C1062.34 1372.02 1061.36 1372.82 1060.32 1373.6M1047.16 1398.46L1036.29 1386.75M1036.29 1386.75L988.701 1335.46M1036.29 1386.75C1041.48 1384.65 1052.47 1379.5 1060.32 1373.6M988.701 1335.46C988.916 1335.44 989.124 1335.42 989.324 1335.4C994.684 1334.91 1000.46 1334.56 1006.08 1334.22C1020.47 1333.35 1033.94 1332.53 1037.26 1329.62C1037.6 1329.32 1038.01 1328.91 1038.49 1328.4M970.199 1186.98L1004.97 1258.98M1004.97 1258.98L1015.11 1279.97M1015.11 1279.97L1038.49 1328.4M1038.49 1328.4L1060.32 1373.6" stroke="white" stroke-width="10"/>
<path d="M1361.71 121.807C1415.62 142.412 1457.62 177.689 1487.72 227.601C1514.65 271.185 1528.14 350.441 1528.14 465.369V505.788V1309.42L1529.33 1346.28C1530.08 1379.58 1535.3 1404.53 1544.79 1421.18C1552.7 1435.42 1572.12 1453.26 1603.05 1474.66C1587.98 1497.63 1573.31 1515.08 1559.07 1526.98C1542.42 1539.67 1519.4 1553.55 1490.09 1568.58C1459.2 1584.44 1438.2 1599.11 1427.12 1612.56C1415.22 1625.26 1404.9 1647.44 1396.2 1679.16C1342.29 1669.63 1302.26 1646.26 1276.12 1609C1264.21 1591.56 1255.12 1570.96 1248.75 1547.19C1241.63 1521.04 1235.27 1483 1229.73 1433.05L1228.54 1416.44C1211.93 1446.57 1188.91 1474.3 1159.6 1499.65L1107.28 1544.81C1064.48 1581.28 1042.65 1626.05 1041.9 1679.16H1031.22C913.117 1679.16 806.13 1652.62 710.219 1599.51C613.517 1545.61 538.212 1472.32 484.341 1379.58C429.643 1285.26 402.311 1181.04 402.311 1066.91C402.311 993.225 416.588 920.298 445.106 848.162C472.042 777.645 512.463 709.501 566.37 643.694C617.868 579.505 679.687 522.041 751.827 471.338C808.108 433.292 842.955 414.27 856.441 414.27C864.352 414.27 868.344 417.83 868.344 424.95C868.344 429.696 862.374 437.643 850.507 448.755C790.27 497.085 741.506 562.101 704.249 643.694C666.992 725.359 648.4 806.557 648.4 887.394C648.4 966.65 663.864 1041.91 694.755 1113.26C725.647 1184.57 770.06 1245.63 827.923 1296.33C885.75 1347.03 952.747 1385.48 1028.84 1411.65V251.371C980.51 281.505 938.075 302.506 901.645 314.373C868.344 324.693 822.744 329.836 764.917 329.836C735.608 329.836 693.173 327.858 637.719 323.866C586.186 320.738 548.138 319.12 523.576 319.12C454.636 319.12 397.96 335.373 353.583 367.881C309.997 399.598 288.204 442.786 288.204 497.481C288.204 533.944 300.107 564.834 323.878 590.186C346.858 616.364 374.189 629.418 405.908 629.418C439.964 629.418 470.891 617.947 498.654 594.968C514.477 581.483 524.403 574.759 528.394 574.759C539.471 574.759 545.009 580.728 545.009 592.595C545.009 609.244 528.394 626.685 495.094 644.917C462.584 662.357 428.096 671.095 391.667 671.095C346.498 671.095 306.472 658.797 271.589 634.236C235.915 610.467 207.792 577.564 187.186 535.562C165.681 493.489 155 447.532 155 397.584C155 351.627 164.494 307.253 183.518 264.424C202.542 222.423 228.686 185.96 261.987 155.034C294.497 124.936 334.918 100.807 383.251 82.539C428.42 65.1344 477.58 56.3962 530.696 56.3962C611.539 56.3962 709.787 90.4862 825.549 158.63C858.023 177.653 884.203 190.742 904.019 197.863C924.625 204.983 947.605 208.543 972.958 208.543C987.199 208.543 1005.86 205.378 1028.84 199.013V183.551C1032.8 84.5168 1056.17 35 1098.97 35C1121.16 35 1132.23 48.8805 1132.23 76.6057C1132.23 111.487 1110.84 157.444 1068.04 214.476V358.316C1091.85 333.755 1113.21 315.128 1132.23 302.434C1153.67 288.194 1188.51 269.135 1236.85 245.366C1271.73 227.134 1297.88 209.334 1315.35 191.857C1333.55 173.697 1349.01 150.324 1361.71 121.807ZM1068.04 561.669V835.109H1232.1V566.452C1232.1 490.361 1226.53 438.039 1215.45 409.523C1204.34 381.798 1183.73 367.917 1153.63 367.917C1121.12 367.917 1098.93 382.157 1087.03 410.709C1074.37 439.19 1068.04 489.534 1068.04 561.669ZM1232.14 974.166V877.865H1068.08V974.166H1232.14ZM1232.14 1194.1V1016.96H1068.08V1417.59C1078.4 1420.75 1088.29 1422.33 1097.82 1422.33C1140.61 1422.33 1173.91 1404.93 1197.69 1370.01C1220.66 1335.17 1232.17 1287.59 1232.17 1227.36L1232.14 1194.1Z" fill="#D27B40"/>
<path d="M648 1654.82C648 1701.1 502.94 1716 324 1716C145.06 1716 0 1701.1 0 1654.82C0 1608.53 145.06 1571 324 1571C502.94 1571 648 1608.53 648 1654.82Z" fill="black"/>
<path d="M112.251 1217.13C100.049 1232.51 60.411 1321.6 69.2821 1416C78.1531 1510.39 151.504 1601.07 202.431 1636.07C253.357 1671.07 336.112 1678.5 350.435 1684.33C364.758 1690.16 363.167 1752.72 390.222 1754.84C417.276 1756.96 406.136 1737.87 420.989 1732.03C435.843 1726.2 433.721 1752.74 461.306 1746.91C488.891 1741.07 477.751 1723.57 493.666 1723.57C509.58 1723.57 501.623 1748.5 527.086 1746.91C552.549 1745.32 537.696 1723.57 552.019 1723.57C566.342 1723.57 568.464 1743.72 590.744 1738.42C613.024 1733.12 605.067 1716.15 618.329 1710.32C628.938 1705.65 629.115 1717.21 627.877 1723.57C634.95 1727.11 651.855 1728.13 662.889 1703.95C676.682 1673.72 632.652 1594.18 632.652 1563.95C632.652 1533.72 684.108 1484.41 691.005 1446.76C697.901 1409.1 688.883 1311 632.652 1210.77C576.42 1110.54 489.952 1081.91 314.893 1098.35C174.846 1111.5 124.453 1201.76 112.251 1217.13Z" fill="black"/>
<path d="M145.708 1210C134.208 1224.5 96.8471 1308.5 105.208 1397.5C113.57 1486.5 182.706 1572 230.706 1605C278.706 1638 356.706 1645 370.206 1650.5C383.706 1656 382.206 1714.98 407.706 1716.98C433.206 1718.98 422.706 1700.98 436.706 1695.48C450.706 1689.98 448.706 1715 474.706 1709.5C500.706 1704 490.206 1687.5 505.206 1687.5C520.206 1687.5 512.706 1711 536.706 1709.5C560.706 1708 546.706 1687.5 560.206 1687.5C573.706 1687.5 575.706 1706.5 596.706 1701.5C617.706 1696.5 610.206 1680.5 622.706 1675C632.706 1670.6 632.873 1681.5 631.706 1687.5C638.373 1690.83 654.306 1691.8 664.706 1669C677.706 1640.5 636.206 1565.5 636.206 1537C636.206 1508.5 684.706 1462 691.206 1426.5C697.706 1391 689.206 1298.5 636.206 1204C583.206 1109.5 501.706 1082.5 336.706 1098C204.706 1110.4 157.209 1195.5 145.708 1210Z" fill="white" stroke="black" stroke-width="23"/>
<path d="M390.554 1486.5C383.323 1497.5 345.054 1496 331.054 1492.5C317.054 1489 305.554 1481.5 301.054 1467.5C296.554 1453.5 293.555 1413 304.638 1389C315.722 1365 365.554 1354.59 383.554 1360.59C401.554 1366.59 417.054 1421 417.054 1426.5C417.054 1442.5 397.784 1475.5 390.554 1486.5Z" fill="#2A1616"/>
<path d="M586.638 1443C574.638 1437 556.638 1416.5 546.138 1389C546.138 1379.5 546.138 1369 559.638 1351C573.138 1333 593.138 1331.5 613.638 1334.5C634.138 1337.5 633.638 1349 637.138 1361.5C640.638 1374 648.138 1372 648.138 1412.5C648.138 1444.9 615.805 1460.67 599.638 1464.5C599.305 1459.33 596.238 1447.8 586.638 1443Z" fill="#2A1616"/>
<path d="M573.275 1529.01C573.275 1529.01 552.207 1488.72 547.898 1487.26C543.589 1485.81 523 1490.66 523 1495.52C523 1500.37 531.619 1511.54 530.661 1513.96C529.703 1516.39 527.309 1515.42 526.831 1518.82C526.352 1522.22 526.352 1548.82 531.619 1549.89C536.885 1550.96 570.402 1544.06 572.796 1539.69C575.19 1535.32 573.275 1529.01 573.275 1529.01Z" fill="#2A1616"/>
<path d="M481.209 1553.5C478 1544.5 488.501 1501 492 1495.5C495.5 1490 521.5 1483 522.5 1485.5C523.5 1488 524.209 1553.5 524.209 1553.5C512.043 1556.33 484.084 1561.56 481.209 1553.5Z" fill="#2A1616"/>
<path d="M2236.63 783.163C2224.38 730.06 2210.09 696.377 2191.7 677.988C2174.35 659.599 2147.81 653.461 2088.59 653.461H2041.63V1136.42C2041.63 1223.2 2051.84 1229.34 2141.7 1236.49V1272.23H1808.81V1236.49C1894.57 1229.34 1904.78 1223.23 1904.78 1136.42V653.461H1870.07C1786.35 653.461 1767.96 664.706 1752.64 681.031C1736.32 698.388 1723.03 733.102 1709.75 784.168H1673C1677.07 709.633 1683.21 635.098 1685.25 583H1709.75C1726.1 606.496 1739.36 608.533 1767.96 608.533H2178.45C2206.02 608.533 2220.31 602.421 2237.66 583H2262.16C2263.2 625.89 2268.3 715.745 2273.41 781.099L2236.63 783.163Z" fill="black"/>
<path d="M3060.64 644.281C2981 651.425 2974.86 657.537 2974.86 744.35V1137.45C2974.86 1223.23 2983.04 1229.37 3060.64 1236.49V1272.23H2749.22V1236.49C2830.9 1229.34 2838.04 1222.2 2838.04 1136.42V946.497H2559.3V1136.42C2559.3 1223.21 2567.45 1229.34 2643.01 1236.49V1272.23H2338.73V1236.49C2413.27 1229.34 2422.48 1223.23 2422.48 1136.42V744.35C2422.48 657.564 2413.29 651.425 2334.66 644.281V608.535H2640.97V644.281C2567.45 651.425 2559.3 657.537 2559.3 744.35V894.452H2838.04V744.35C2838.04 657.564 2829.87 651.425 2754.3 644.281V608.535H3060.62L3060.64 644.281Z" fill="black"/>
<path d="M3681.46 1102.76C3675.34 1148.7 3653.89 1241.62 3645.71 1272.26H3124.97V1236.52C3211.75 1229.37 3221.99 1223.26 3221.99 1136.45V744.35C3221.99 655.526 3211.78 650.42 3139.28 644.281V608.535H3620.2C3621.24 626.898 3626.34 698.39 3630.42 761.707L3593.67 766.813C3583.45 731.067 3570.17 697.385 3551.78 678.996C3534.42 660.607 3506.85 653.463 3449.67 653.463H3400.67C3362.89 653.463 3358.81 655.5 3358.81 689.209V905.697H3427.21C3512.96 905.697 3526.25 900.591 3540.56 829.098H3577.31V1035.35H3540.56C3526.25 961.843 3514.02 957.742 3427.21 957.742H3358.81V1134.38C3358.81 1182.35 3362.89 1207.89 3383.32 1218.13C3401.68 1226.3 3436.39 1228.34 3475.21 1228.34C3527.28 1228.34 3564.03 1221.2 3588.53 1195.66C3607.93 1173.2 3626.32 1140.52 3645.71 1095.59L3681.46 1102.76Z" fill="black"/>
<path d="M4652.51 644.281C4596.34 647.351 4570.83 668.783 4565.72 704.529C4560.62 736.174 4556.51 773.957 4556.51 846.455V957.769C4556.51 1066.01 4540.19 1151.79 4483.01 1213.02C4436.05 1262.05 4366.62 1287.55 4294.12 1287.55C4226.73 1287.55 4162.41 1273.27 4113.38 1234.45C4055.17 1189.52 4028.63 1113.96 4028.63 994.52V754.563C4028.63 658.596 4018.42 651.425 3942.88 644.281V608.535H4250.22V644.281C4175.69 651.425 4165.48 658.596 4165.48 754.563V976.131C4165.48 1129.3 4220.62 1218.13 4330.87 1218.13C4452.37 1218.13 4505.47 1126.23 4505.47 955.705V846.455C4505.47 773.957 4500.37 735.168 4495.26 704.529C4490.15 668.783 4465.65 648.356 4396.2 644.281V608.535H4652.51V644.281Z" fill="black"/>
<path d="M5067.08 915.857C5185.53 930.145 5264.14 978.142 5264.14 1075.14C5264.14 1143.54 5226.36 1196.64 5168.18 1228.31C5116.08 1257.92 5037.47 1272.23 4952.72 1272.23H4693.37V1236.49C4772 1229.34 4781.18 1222.2 4781.18 1135.41V745.355C4781.18 658.569 4772 651.425 4699.51 644.281V608.535H4997.67C5076.31 608.535 5127.32 618.748 5166.14 644.281C5203.92 668.783 5226.39 709.635 5226.39 760.675C5226.39 857.674 5140.6 897.495 5067.1 911.783L5067.08 915.857ZM4939.46 901.57C5037.49 901.57 5081.39 862.781 5081.39 778.032C5081.39 686.14 5026.27 651.425 4971.11 651.425C4948.64 651.425 4931.29 657.537 4925.17 663.676C4918.03 670.82 4915.99 686.14 4915.99 707.572V901.57H4939.46ZM4915.97 1133.35C4915.97 1208.92 4936.39 1230.35 4990.5 1229.34C5047.68 1228.31 5112.03 1186.43 5112.03 1086.39C5112.03 991.425 5052.79 942.422 4936.39 942.422H4915.97V1133.35Z" fill="black"/>
<path d="M5967.68 644.308C5902.32 651.452 5881.9 669.814 5845.15 730.088C5807.39 790.336 5780.82 834.258 5730.79 930.198C5716.5 957.769 5712.4 969.014 5712.4 1000.66V1131.34C5712.4 1223.23 5720.6 1229.37 5811.46 1237.52V1272.23H5479.61V1237.52C5566.4 1230.38 5575.58 1223.23 5575.58 1131.34V1017.99C5575.58 992.457 5571.48 982.243 5562.32 962.849C5534.75 906.703 5496.97 838.279 5435.72 731.067C5397.93 663.676 5380.58 652.431 5324.4 644.281V608.535H5616.46V644.281C5549.07 653.463 5550.07 666.745 5568.46 703.497C5604.18 773.957 5645.04 849.525 5684.86 925.065C5714.46 866.855 5766.54 770.888 5791.04 708.603C5807.39 667.777 5806.36 654.495 5730.82 644.281V608.535H5967.7L5967.68 644.308Z" fill="black"/>
<path d="M6361.8 774.982C6340.35 710.66 6302.59 635.093 6218.85 635.093C6161.67 635.093 6119.81 677.983 6119.81 736.166C6119.81 792.339 6156.59 824.99 6246.44 869.944C6353.65 922.015 6427.18 979.193 6427.18 1080.27C6427.18 1196.66 6328.12 1287.55 6179.08 1287.55C6142.3 1287.55 6106.58 1282.44 6075.94 1273.26C6047.34 1265.08 6027.94 1256.91 6013.66 1250.8C6004.45 1225.26 5991.19 1139.48 5984.05 1077.2L6019.79 1065.98C6040.22 1131.33 6100.47 1245.69 6198.47 1245.69C6260.76 1245.69 6300.58 1202.8 6300.58 1138.48C6300.58 1078.23 6255.65 1040.45 6179.08 999.62C6073.9 946.516 6001.4 891.375 6001.4 793.371C6001.4 681.052 6090.23 593.234 6235.22 593.234C6300.58 593.234 6358.76 613.661 6377.15 620.805C6381.23 658.588 6388.37 703.516 6396.54 766.832L6361.8 774.982Z" fill="black"/>
<path d="M6877.47 774.982C6856.04 710.66 6818.26 635.093 6734.54 635.093C6677.36 635.093 6635.48 677.983 6635.48 736.166C6635.48 792.339 6672.26 824.99 6762.08 869.944C6869.3 922.015 6942.83 979.193 6942.83 1080.27C6942.83 1196.66 6843.79 1287.55 6694.72 1287.55C6657.94 1287.55 6622.22 1282.44 6591.58 1273.26C6562.98 1265.08 6543.61 1256.91 6529.3 1250.8C6520.12 1225.26 6506.81 1139.48 6499.69 1077.2L6535.41 1065.98C6555.84 1131.33 6616.08 1245.69 6714.09 1245.69C6776.37 1245.69 6816.19 1202.8 6816.19 1138.48C6816.19 1078.23 6771.27 1040.45 6694.69 999.62C6589.49 946.516 6517.02 891.375 6517.02 793.371C6517.02 681.052 6605.84 593.234 6750.84 593.234C6816.17 593.234 6874.4 613.661 6892.77 620.805C6896.84 658.588 6903.98 703.516 6912.16 766.832L6877.47 774.982Z" fill="black"/>
<path d="M7546.29 1102.76C7540.15 1148.7 7518.72 1241.62 7510.55 1272.26H6989.8V1236.52C7076.59 1229.37 7086.8 1223.26 7086.8 1136.45V744.35C7086.8 655.526 7076.59 650.42 7004.12 644.281V608.535H7485.04C7486.04 626.898 7491.15 698.39 7495.25 761.707L7458.5 766.813C7448.29 731.067 7435 697.385 7416.62 678.996C7399.26 660.607 7371.69 653.463 7314.51 653.463H7265.51C7227.72 653.463 7223.65 655.5 7223.65 689.209V905.697H7292.05C7377.8 905.697 7391.11 900.591 7405.37 829.098H7442.12V1035.35H7405.37C7391.08 961.843 7378.83 957.742 7292.05 957.742H7223.65V1134.38C7223.65 1182.35 7227.73 1207.89 7248.15 1218.13C7266.54 1226.3 7301.25 1228.34 7340.07 1228.34C7392.14 1228.34 7428.89 1221.2 7453.39 1195.66C7472.79 1173.2 7491.18 1140.52 7510.57 1095.59L7546.29 1102.76Z" fill="black"/>
<path d="M8216.14 644.308C8150.78 651.452 8130.38 669.814 8093.6 730.088C8055.82 790.336 8029.28 834.258 7979.25 930.198C7964.96 957.769 7960.86 969.014 7960.86 1000.66V1131.34C7960.86 1223.23 7969.03 1229.37 8059.92 1237.52V1272.23H7728.07V1237.52C7814.88 1230.38 7824.06 1223.23 7824.06 1131.34V1017.99C7824.06 992.457 7819.99 982.243 7810.78 962.849C7783.21 906.703 7745.43 838.279 7684.17 731.067C7646.39 663.676 7629.03 652.431 7572.86 644.281V608.535H7864.89V644.281C7797.5 653.463 7798.51 666.745 7816.89 703.497C7852.64 773.957 7893.49 849.525 7933.29 925.065C7962.9 866.855 8014.97 770.888 8039.49 708.603C8055.85 667.777 8054.81 654.495 7979.25 644.281V608.535H8216.14V644.308Z" fill="black"/>
</svg>
