<svg width="299" height="46" viewBox="0 0 299 46" fill="none" xmlns="http://www.w3.org/2000/svg">
<g clip-path="url(#clip0_2_33)">
<path d="M33.555 2.414C35.054 2.987 36.222 3.968 37.059 5.356C37.808 6.568 38.183 8.772 38.183 11.968V13.092V35.44L38.216 36.465C38.237 37.391 38.382 38.085 38.646 38.548C38.866 38.944 39.406 39.44 40.266 40.035C39.847 40.674 39.439 41.159 39.043 41.49C38.58 41.843 37.94 42.229 37.125 42.647C36.266 43.088 35.682 43.496 35.374 43.87C35.043 44.223 34.756 44.84 34.514 45.722C33.015 45.457 31.902 44.807 31.175 43.771C30.844 43.286 30.591 42.713 30.414 42.052C30.216 41.325 30.039 40.267 29.885 38.878L29.852 38.416C29.39 39.254 28.75 40.025 27.935 40.73L26.48 41.986C25.29 43 24.683 44.245 24.662 45.722H24.365C21.081 45.722 18.106 44.984 15.439 43.507C12.75 42.008 10.656 39.97 9.158 37.391C7.637 34.768 6.877 31.87 6.877 28.696C6.877 26.647 7.274 24.619 8.067 22.613C8.816 20.652 9.94 18.757 11.439 16.927C12.871 15.142 14.59 13.544 16.596 12.134C18.161 11.076 19.13 10.547 19.505 10.547C19.725 10.547 19.836 10.646 19.836 10.844C19.836 10.976 19.67 11.197 19.34 11.506C17.665 12.85 16.309 14.658 15.273 16.927C14.237 19.198 13.72 21.456 13.72 23.704C13.72 25.908 14.15 28.001 15.009 29.985C15.868 31.968 17.103 33.666 18.712 35.076C20.32 36.486 22.183 37.555 24.299 38.283V6.017C22.955 6.855 21.775 7.439 20.762 7.769C19.836 8.056 18.568 8.199 16.96 8.199C16.145 8.199 14.965 8.144 13.423 8.033C11.99 7.946 10.932 7.901 10.249 7.901C8.332 7.901 6.756 8.353 5.522 9.257C4.31 10.139 3.704 11.34 3.704 12.861C3.704 13.875 4.035 14.734 4.696 15.439C5.335 16.167 6.095 16.53 6.977 16.53C7.924 16.53 8.784 16.211 9.556 15.572C9.996 15.197 10.272 15.01 10.383 15.01C10.691 15.01 10.845 15.176 10.845 15.506C10.845 15.969 10.383 16.454 9.457 16.961C8.553 17.446 7.594 17.689 6.581 17.689C5.325 17.689 4.212 17.347 3.242 16.664C2.25 16.003 1.468 15.088 0.895 13.92C0.297 12.75 0 11.472 0 10.083C0 8.805 0.264 7.571 0.793 6.38C1.322 5.212 2.049 4.198 2.975 3.338C3.879 2.501 5.003 1.83 6.347 1.322C7.603 0.838 8.97 0.595 10.447 0.595C12.695 0.595 15.427 1.543 18.646 3.438C19.549 3.967 20.277 4.331 20.828 4.529C21.401 4.727 22.04 4.826 22.745 4.826C23.141 4.826 23.66 4.738 24.299 4.561V4.131C24.409 1.377 25.059 0 26.249 0C26.866 0 27.174 0.386 27.174 1.157C27.174 2.127 26.579 3.405 25.389 4.991V8.991C26.051 8.308 26.645 7.79 27.174 7.437C27.77 7.041 28.739 6.511 30.083 5.85C31.053 5.343 31.78 4.848 32.266 4.362C32.772 3.857 33.202 3.207 33.555 2.414ZM25.389 14.646V22.25H29.951V14.779C29.951 12.663 29.796 11.208 29.488 10.415C29.179 9.644 28.606 9.258 27.769 9.258C26.865 9.258 26.248 9.654 25.917 10.448C25.565 11.24 25.389 12.64 25.389 14.646ZM29.952 26.117V23.439H25.39V26.117H29.952ZM29.952 32.233V27.307H25.39V38.448C25.677 38.536 25.952 38.58 26.217 38.58C27.407 38.58 28.333 38.096 28.994 37.125C29.633 36.156 29.953 34.833 29.953 33.158L29.952 32.233Z" fill="#0071C9"/>
<path d="M69.723 17.54C69.312 15.812 68.833 14.716 68.218 14.118C67.635 13.519 66.746 13.321 64.762 13.321H63.188V29.033C63.188 31.856 63.53 32.056 66.541 32.288V33.451H55.387V32.288C58.261 32.056 58.603 31.856 58.603 29.033V13.321H57.439C54.634 13.321 54.018 13.687 53.505 14.218C52.958 14.782 52.513 15.912 52.068 17.573H50.837C50.974 15.147 51.179 12.723 51.248 11.029H52.069C52.617 11.793 53.061 11.859 54.019 11.859H67.773C68.696 11.859 69.175 11.66 69.757 11.029H70.578C70.612 12.424 70.784 15.347 70.954 17.473L69.723 17.54Z" fill="white"/>
<path d="M97.332 13.022C94.664 13.254 94.458 13.453 94.458 16.277V29.066C94.458 31.857 94.732 32.056 97.332 32.288V33.451H86.897V32.288C89.633 32.056 89.874 31.824 89.874 29.033V22.854H80.534V29.033C80.534 31.856 80.807 32.056 83.339 32.288V33.451H73.144V32.288C75.642 32.056 75.949 31.856 75.949 29.033V16.277C75.949 13.453 75.641 13.254 73.007 13.022V11.859H83.271V13.022C80.808 13.254 80.535 13.453 80.535 16.277V21.16H89.875V16.277C89.875 13.453 89.601 13.254 87.069 13.022V11.859H97.333L97.332 13.022Z" fill="white"/>
<path d="M118.134 27.938C117.928 29.432 117.21 32.455 116.936 33.452H99.488V32.289C102.396 32.057 102.739 31.857 102.739 29.034V16.277C102.739 13.387 102.396 13.221 99.968 13.022V11.859H116.082C116.116 12.458 116.288 14.782 116.425 16.842L115.193 17.008C114.851 15.846 114.406 14.749 113.791 14.152C113.208 13.553 112.286 13.321 110.369 13.321H108.727C107.461 13.321 107.325 13.388 107.325 14.483V21.526H109.617C112.491 21.526 112.936 21.359 113.415 19.035H114.646V25.744H113.415C112.936 23.354 112.525 23.22 109.617 23.22H107.325V28.966C107.325 30.528 107.462 31.358 108.146 31.691C108.761 31.957 109.924 32.023 111.225 32.023C112.97 32.023 114.202 31.791 115.023 30.96C115.673 30.23 116.289 29.167 116.939 27.705L118.134 27.938Z" fill="white"/>
<path d="M150.67 13.022C148.788 13.121 147.933 13.819 147.762 14.982C147.591 16.011 147.454 17.24 147.454 19.599V23.22C147.454 26.741 146.907 29.532 144.991 31.525C143.417 33.119 141.091 33.95 138.662 33.95C136.404 33.95 134.248 33.485 132.606 32.222C130.656 30.761 129.767 28.302 129.767 24.416V16.61C129.767 13.487 129.425 13.255 126.893 13.022V11.859H137.191V13.022C134.693 13.254 134.351 13.487 134.351 16.61V23.818C134.351 28.801 136.199 31.691 139.893 31.691C143.964 31.691 145.743 28.701 145.743 23.154V19.599C145.743 17.241 145.572 15.978 145.401 14.982C145.23 13.819 144.409 13.154 142.083 13.022V11.859H150.67V13.022Z" fill="white"/>
<path d="M164.561 21.858C168.53 22.323 171.164 23.884 171.164 27.04C171.164 29.266 169.899 30.993 167.949 32.023C166.203 32.986 163.569 33.452 160.729 33.452H152.04V32.289C154.674 32.057 154.982 31.825 154.982 29.001V16.311C154.982 13.487 154.674 13.255 152.245 13.022V11.859H162.235C164.87 11.859 166.58 12.191 167.88 13.022C169.146 13.819 169.899 15.147 169.899 16.809C169.899 19.965 167.024 21.26 164.562 21.726L164.561 21.858ZM160.285 21.393C163.569 21.393 165.04 20.131 165.04 17.374C165.04 14.384 163.193 13.255 161.345 13.255C160.593 13.255 160.011 13.454 159.805 13.653C159.566 13.885 159.497 14.384 159.497 15.082V21.393H160.285ZM159.498 28.933C159.498 31.391 160.182 32.089 161.996 32.056C163.912 32.022 166.067 30.66 166.067 27.405C166.067 24.316 164.083 22.721 160.182 22.721H159.498V28.933Z" fill="white"/>
<path d="M194.737 13.022C192.548 13.254 191.863 13.852 190.631 15.812C189.365 17.772 188.475 19.201 186.799 22.323C186.32 23.22 186.183 23.586 186.183 24.615V28.866C186.183 31.856 186.457 32.055 189.502 32.321V33.451H178.383V32.321C181.292 32.089 181.599 31.856 181.599 28.866V25.178C181.599 24.348 181.462 24.016 181.155 23.385C180.231 21.557 178.965 19.332 176.913 15.844C175.646 13.651 175.064 13.286 173.183 13.02V11.857H182.968V13.02C180.71 13.319 180.744 13.751 181.36 14.947C182.557 17.239 183.926 19.697 185.26 22.155C186.252 20.261 187.996 17.139 188.817 15.113C189.365 13.785 189.331 13.353 186.799 13.021V11.858H194.737V13.022Z" fill="white"/>
<path d="M207.943 17.274C207.225 15.181 205.959 12.723 203.153 12.723C201.238 12.723 199.835 14.118 199.835 16.011C199.835 17.838 201.067 18.902 204.078 20.363C207.67 22.057 210.134 23.917 210.134 27.205C210.134 30.992 206.815 33.949 201.821 33.949C200.588 33.949 199.391 33.782 198.364 33.484C197.406 33.219 196.756 32.953 196.277 32.754C195.969 31.923 195.524 29.132 195.285 27.106L196.483 26.741C197.167 28.866 199.186 32.587 202.47 32.587C204.557 32.587 205.892 31.191 205.892 29.099C205.892 27.14 204.387 25.911 201.821 24.582C198.296 22.854 195.867 21.061 195.867 17.872C195.867 14.218 198.843 11.361 203.701 11.361C205.891 11.361 207.841 12.025 208.457 12.258C208.593 13.487 208.833 14.949 209.106 17.008L207.943 17.274Z" fill="white"/>
<path d="M225.221 17.274C224.503 15.181 223.237 12.723 220.432 12.723C218.516 12.723 217.113 14.118 217.113 16.011C217.113 17.838 218.345 18.902 221.355 20.363C224.947 22.057 227.411 23.917 227.411 27.205C227.411 30.992 224.093 33.949 219.098 33.949C217.866 33.949 216.668 33.782 215.642 33.484C214.684 33.219 214.035 32.953 213.555 32.754C213.247 31.923 212.802 29.132 212.563 27.106L213.76 26.741C214.445 28.866 216.464 32.587 219.748 32.587C221.835 32.587 223.169 31.191 223.169 29.099C223.169 27.14 221.663 25.911 219.098 24.582C215.574 22.854 213.145 21.061 213.145 17.872C213.145 14.218 216.122 11.361 220.979 11.361C223.169 11.361 225.12 12.025 225.734 12.258C225.871 13.487 226.11 14.949 226.384 17.008L225.221 17.274Z" fill="white"/>
<path d="M247.631 27.938C247.425 29.432 246.708 32.455 246.434 33.452H228.986V32.289C231.893 32.057 232.236 31.857 232.236 29.034V16.277C232.236 13.387 231.893 13.221 229.465 13.022V11.859H245.579C245.613 12.458 245.785 14.782 245.921 16.842L244.69 17.008C244.347 15.846 243.902 14.749 243.287 14.152C242.705 13.553 241.782 13.321 239.865 13.321H238.223C236.956 13.321 236.82 13.388 236.82 14.483V21.526H239.112C241.985 21.526 242.431 21.359 242.909 19.035H244.14V25.744H242.909C242.43 23.354 242.019 23.22 239.112 23.22H236.82V28.966C236.82 30.528 236.956 31.358 237.641 31.691C238.257 31.957 239.42 32.023 240.72 32.023C242.465 32.023 243.697 31.791 244.517 30.96C245.167 30.23 245.784 29.167 246.434 27.705L247.631 27.938Z" fill="white"/>
<path d="M270.075 13.022C267.886 13.254 267.201 13.852 265.97 15.812C264.704 17.772 263.814 19.201 262.137 22.323C261.658 23.22 261.521 23.586 261.521 24.615V28.866C261.521 31.856 261.794 32.055 264.84 32.321V33.451H253.721V32.321C256.63 32.089 256.937 31.856 256.937 28.866V25.178C256.937 24.348 256.8 24.016 256.492 23.385C255.569 21.557 254.303 19.332 252.25 15.844C250.983 13.651 250.402 13.286 248.52 13.02V11.857H258.305V13.02C256.047 13.319 256.081 13.751 256.697 14.947C257.894 17.239 259.263 19.697 260.597 22.155C261.589 20.261 263.334 17.139 264.155 15.113C264.703 13.785 264.669 13.353 262.136 13.021V11.858H270.074V13.022H270.075Z" fill="white"/>
</g>
<defs>
<clipPath id="clip0_2_33">
<rect width="298.129" height="45.721" fill="white"/>
</clipPath>
</defs>
</svg>
