<svg width="402" height="63" viewBox="0 0 402 63" fill="none" xmlns="http://www.w3.org/2000/svg">
<g clip-path="url(#clip0_21_134)">
<mask id="mask0_21_134" style="mask-type:luminance" maskUnits="userSpaceOnUse" x="0" y="0" width="401" height="63">
<path d="M400.829 0.927734H0V62.5517H400.829V0.927734Z" fill="white"/>
</mask>
<g mask="url(#mask0_21_134)">
<path d="M45.1141 4.18139C47.1295 4.95369 48.6998 6.27591 49.8251 8.14669C50.8322 9.78026 51.3363 12.7509 51.3363 17.0585V18.5735V48.6947L51.3807 50.0762C51.4089 51.3243 51.6039 52.2597 51.9588 52.8837C52.2546 53.4175 52.9806 54.086 54.1369 54.8879C53.5736 55.7492 53.025 56.4029 52.4926 56.849C51.8701 57.3248 51.0096 57.8451 49.9139 58.4085C48.759 59.0029 47.9738 59.5528 47.5597 60.0569C47.1147 60.5326 46.7288 61.3643 46.4034 62.553C44.3881 62.1959 42.8917 61.3198 41.9142 59.9234C41.4692 59.2697 41.129 58.4974 40.8911 57.6065C40.6249 56.6266 40.3869 55.2006 40.1798 53.3285L40.1355 52.7058C39.5143 53.8353 38.6538 54.8745 37.5581 55.8247L35.6019 57.5176C34.0019 58.8843 33.1858 60.5623 33.1576 62.553H32.7583C28.343 62.553 24.3432 61.5583 20.7575 59.5676C17.1421 57.5472 14.3268 54.8003 12.3128 51.3243C10.2678 47.7889 9.246 43.8829 9.246 39.6049C9.246 36.8433 9.77976 34.1099 10.8459 31.4061C11.853 28.763 13.3641 26.2089 15.3795 23.7424C17.3048 21.3365 19.616 19.1827 22.313 17.2823C24.4171 15.8563 25.7199 15.1433 26.2241 15.1433C26.5199 15.1433 26.6691 15.2767 26.6691 15.5436C26.6691 15.7215 26.446 16.0193 26.0023 16.4358C23.7503 18.2473 21.9272 20.6842 20.5343 23.7424C19.1414 26.8033 18.4463 29.8467 18.4463 32.8766C18.4463 35.8472 19.0244 38.6682 20.1793 41.3423C21.3342 44.015 22.9947 46.3036 25.1579 48.2041C27.3199 50.1045 29.8246 51.5453 32.6696 52.5266V9.0376C30.8626 10.1671 29.2761 10.9542 27.9141 11.399C26.6691 11.7858 24.9643 11.9786 22.8024 11.9786C21.7067 11.9786 20.1202 11.9044 18.047 11.7548C16.1203 11.6376 14.6979 11.5769 13.7796 11.5769C11.2022 11.5769 9.08332 12.1861 7.42423 13.4046C5.79472 14.5933 4.97996 16.2121 4.97996 18.2621C4.97996 19.6288 5.42498 20.7866 6.31369 21.7368C7.17281 22.718 8.19462 23.2073 9.38045 23.2073C10.6537 23.2073 11.8099 22.7773 12.8479 21.9161C13.4394 21.4106 13.8105 21.1586 13.9598 21.1586C14.3739 21.1586 14.5809 21.3823 14.5809 21.8271C14.5809 22.4512 13.9598 23.1049 12.7148 23.7882C11.4994 24.4419 10.21 24.7694 8.84803 24.7694C7.15936 24.7694 5.66296 24.3085 4.35881 23.3879C3.02508 22.497 1.9737 21.2637 1.20331 19.6895C0.399311 18.1125 0 16.39 0 14.5179C0 12.7953 0.354943 11.1321 1.06617 9.52686C1.7774 7.9526 2.75484 6.58591 3.99983 5.42678C5.21524 4.29865 6.72644 3.39426 8.53342 2.70956C10.2221 2.05721 12.06 1.72969 14.0458 1.72969C17.0682 1.72969 20.7413 3.00743 25.0692 5.56156C26.2833 6.27456 27.2621 6.76517 28.0029 7.03204C28.7732 7.29891 29.6324 7.43234 30.5802 7.43234C31.1126 7.43234 31.8104 7.31373 32.6696 7.07517V6.4956C32.8175 2.78369 33.6914 0.927734 35.2913 0.927734C36.1208 0.927734 36.5349 1.448 36.5349 2.48717C36.5349 3.79456 35.735 5.51708 34.135 7.65473V13.046C35.0251 12.1255 35.8237 11.4273 36.5349 10.9515C37.3363 10.4178 38.6391 9.70343 40.446 8.81252C41.7502 8.12917 42.7276 7.46199 43.381 6.80695C44.0613 6.1263 44.6395 5.25021 45.1141 4.18139ZM34.135 20.668V30.9169H40.2686V20.8473C40.2686 17.9953 40.0602 16.0342 39.6461 14.9653C39.2306 13.9262 38.4602 13.4059 37.3349 13.4059C36.1195 13.4059 35.29 13.9396 34.8449 15.0098C34.3717 16.0773 34.135 17.9643 34.135 20.668ZM40.2699 36.1289V32.5194H34.1364V36.1289H40.2699ZM40.2699 44.3722V37.7328H34.1364V52.749C34.5223 52.8676 34.892 52.9269 35.2483 52.9269C36.8482 52.9269 38.0932 52.2745 38.9819 50.9658C39.841 49.6597 40.2713 47.8766 40.2713 45.6189L40.2699 44.3722Z" fill="#0073A9"/>
<path d="M93.7412 24.5687C93.1887 22.2396 92.5447 20.7624 91.7178 19.9564C90.934 19.1491 89.7387 18.8822 87.0713 18.8822H84.9551V40.0592C84.9551 43.8641 85.4149 44.1337 89.4631 44.4464V46.0139H74.4668V44.4464C78.3308 44.1337 78.7906 43.8641 78.7906 40.0592V18.8822H77.2256C73.4544 18.8822 72.6262 19.3755 71.9364 20.0912C71.201 20.8514 70.6027 22.3744 70.0044 24.6131H68.3494C68.5336 21.3433 68.8092 18.0762 68.9019 15.793H70.0058C70.7425 16.8227 71.3395 16.9117 72.6275 16.9117H91.1195C92.3605 16.9117 93.0045 16.6434 93.787 15.793H94.8908C94.9365 17.6732 95.1677 21.6129 95.3963 24.4784L93.7412 24.5687Z" fill="white"/>
<path d="M130.861 18.4787C127.274 18.7914 126.997 19.0596 126.997 22.8658V40.1032C126.997 43.865 127.365 44.1332 130.861 44.4459V46.0134H116.831V44.4459C120.51 44.1332 120.834 43.8205 120.834 40.0587V31.7305H108.277V40.0587C108.277 43.8636 108.644 44.1332 112.048 44.4459V46.0134H98.3408V44.4459C101.699 44.1332 102.112 43.8636 102.112 40.0587V22.8658C102.112 19.0596 101.698 18.7914 98.1566 18.4787V16.9111H111.956V18.4787C108.645 18.7914 108.278 19.0596 108.278 22.8658V29.4473H120.835V22.8658C120.835 19.0596 120.467 18.7914 117.063 18.4787V16.9111H130.862L130.861 18.4787Z" fill="white"/>
<path d="M158.829 38.5828C158.552 40.5965 157.587 44.671 157.218 46.0147H133.76V44.4472C137.67 44.1345 138.131 43.865 138.131 40.06V22.8658C138.131 18.9706 137.67 18.7469 134.405 18.4787V16.9111H156.07C156.116 17.7185 156.347 20.8508 156.531 23.6273L154.875 23.8511C154.415 22.2849 153.817 20.8064 152.99 20.0017C152.206 19.1944 150.966 18.8817 148.389 18.8817H146.181C144.479 18.8817 144.296 18.972 144.296 20.4478V29.9406H147.378C151.242 29.9406 151.84 29.7155 152.484 26.5831H154.139V35.6257H152.484C151.84 32.4044 151.288 32.2238 147.378 32.2238H144.296V39.9684C144.296 42.0737 144.481 43.1924 145.4 43.6412C146.227 43.9997 147.791 44.0887 149.54 44.0887C151.886 44.0887 153.542 43.776 154.646 42.656C155.52 41.672 156.348 40.2393 157.222 38.2688L158.829 38.5828Z" fill="white"/>
<path d="M202.573 18.4787C200.043 18.6121 198.893 19.5529 198.663 21.1204C198.433 22.5073 198.249 24.1638 198.249 27.3433V32.2238C198.249 36.9695 197.514 40.7313 194.938 43.4175C192.822 45.5659 189.694 46.686 186.429 46.686C183.393 46.686 180.494 46.0592 178.286 44.3569C175.665 42.3877 174.469 39.0734 174.469 33.8358V23.3147C174.469 19.1054 174.01 18.7927 170.605 18.4787V16.9111H184.451V18.4787C181.092 18.7914 180.632 19.1054 180.632 23.3147V33.0298C180.632 39.746 183.117 43.6412 188.084 43.6412C193.557 43.6412 195.949 39.6112 195.949 32.1348V27.3433C195.949 24.1651 195.719 22.4628 195.489 21.1204C195.259 19.5529 194.155 18.6566 191.028 18.4787V16.9111H202.573V18.4787Z" fill="white"/>
<path d="M221.249 30.388C226.586 31.0148 230.127 33.1187 230.127 37.3725C230.127 40.3727 228.426 42.7004 225.804 44.0887C223.457 45.3867 219.916 46.0147 216.097 46.0147H204.415V44.4472C207.956 44.1345 208.371 43.8218 208.371 40.0156V22.9117C208.371 19.1054 207.956 18.7927 204.691 18.4787V16.9111H218.122C221.665 16.9111 223.964 17.3586 225.712 18.4787C227.414 19.5529 228.426 21.3428 228.426 23.5829C228.426 27.8366 224.561 29.582 221.251 30.2101L221.249 30.388ZM215.5 29.7613C219.916 29.7613 221.893 28.0604 221.893 24.3444C221.893 20.3144 219.41 18.7927 216.925 18.7927C215.914 18.7927 215.132 19.0609 214.855 19.3291C214.534 19.6418 214.441 20.3144 214.441 21.2552V29.7613H215.5ZM214.442 39.9239C214.442 43.2369 215.362 44.1777 217.801 44.1332C220.377 44.0873 223.274 42.2516 223.274 37.8644C223.274 33.701 220.607 31.5512 215.362 31.5512H214.442V39.9239Z" fill="white"/>
<path d="M261.82 18.4794C258.877 18.7921 257.956 19.5981 256.3 22.2398C254.598 24.8816 253.401 26.8076 251.148 31.0155C250.504 32.2245 250.32 32.7178 250.32 34.1047V39.8344C250.32 43.8644 250.688 44.1326 254.782 44.4911V46.0141H239.833V44.4911C243.744 44.1784 244.156 43.8644 244.156 39.8344V34.8636C244.156 33.7449 243.972 33.2974 243.56 32.4469C242.317 29.9831 240.615 26.9842 237.856 22.283C236.153 19.3272 235.37 18.8352 232.841 18.4767V16.9092H245.997V18.4767C242.961 18.8797 243.007 19.462 243.835 21.074C245.444 24.1632 247.285 27.4761 249.079 30.7891C250.412 28.2363 252.757 24.0284 253.861 21.2977C254.598 19.5078 254.552 18.9255 251.148 18.478V16.9105H261.82V18.4794Z" fill="white"/>
<path d="M279.576 24.2099C278.61 21.3889 276.908 18.076 273.136 18.076C270.561 18.076 268.675 19.9562 268.675 22.5076C268.675 24.9701 270.331 26.4042 274.379 28.3734C279.209 30.6566 282.521 33.1635 282.521 37.5952C282.521 42.6994 278.059 46.6849 271.345 46.6849C269.687 46.6849 268.078 46.4598 266.697 46.0582C265.409 45.701 264.535 45.3425 263.891 45.0743C263.477 43.9542 262.878 40.1925 262.557 37.4618L264.168 36.9698C265.087 39.8339 267.802 44.8492 272.217 44.8492C275.023 44.8492 276.818 42.9676 276.818 40.148C276.818 37.5076 274.795 35.8511 271.345 34.0598C266.605 31.7308 263.34 29.3141 263.34 25.0159C263.34 20.091 267.341 16.2402 273.872 16.2402C276.817 16.2402 279.438 17.1352 280.267 17.4492C280.449 19.1057 280.772 21.0762 281.139 23.8514L279.576 24.2099Z" fill="white"/>
<path d="M302.806 24.2099C301.84 21.3889 300.138 18.076 296.367 18.076C293.791 18.076 291.905 19.9562 291.905 22.5076C291.905 24.9701 293.561 26.4042 297.608 28.3734C302.437 30.6566 305.75 33.1635 305.75 37.5952C305.75 42.6994 301.289 46.6849 294.573 46.6849C292.917 46.6849 291.306 46.4598 289.927 46.0582C288.639 45.701 287.766 45.3425 287.121 45.0743C286.707 43.9542 286.108 40.1925 285.787 37.4618L287.396 36.9698C288.317 39.8339 291.032 44.8492 295.447 44.8492C298.253 44.8492 300.047 42.9676 300.047 40.148C300.047 37.5076 298.022 35.8511 294.573 34.0598C289.835 31.7308 286.57 29.3141 286.57 25.0159C286.57 20.091 290.572 16.2402 297.102 16.2402C300.047 16.2402 302.67 17.1352 303.495 17.4492C303.679 19.1057 304.001 21.0762 304.369 23.8514L302.806 24.2099Z" fill="white"/>
<path d="M332.935 38.5828C332.658 40.5965 331.694 44.671 331.326 46.0147H307.867V44.4472C311.776 44.1345 312.237 43.865 312.237 40.06V22.8658C312.237 18.9706 311.776 18.7469 308.511 18.4787V16.9111H330.176C330.222 17.7185 330.453 20.8508 330.636 23.6273L328.981 23.8511C328.52 22.2849 327.922 20.8064 327.095 20.0017C326.312 19.1944 325.071 18.8817 322.494 18.8817H320.286C318.583 18.8817 318.4 18.972 318.4 20.4478V29.9406H321.482C325.344 29.9406 325.944 29.7155 326.587 26.5831H328.242V35.6257H326.587C325.943 32.4044 325.39 32.2238 321.482 32.2238H318.4V39.9684C318.4 42.0737 318.583 43.1924 319.504 43.6412C320.332 43.9997 321.896 44.0887 323.644 44.0887C325.99 44.0887 327.646 43.776 328.749 42.656C329.622 41.672 330.452 40.2393 331.326 38.2688L332.935 38.5828Z" fill="white"/>
<path d="M363.111 18.4794C360.168 18.7921 359.247 19.5981 357.592 22.2398C355.89 24.8816 354.693 26.8076 352.438 31.0155C351.794 32.2245 351.61 32.7178 351.61 34.1047V39.8344C351.61 43.8644 351.977 44.1326 356.073 44.4911V46.0141H341.123V44.4911C345.034 44.1784 345.447 43.8644 345.447 39.8344V34.8636C345.447 33.7449 345.263 33.2974 344.849 32.4469C343.608 29.9831 341.906 26.9842 339.146 22.283C337.442 19.3272 336.661 18.8352 334.131 18.4767V16.9092H347.286V18.4767C344.251 18.8797 344.296 19.462 345.124 21.074C346.734 24.1632 348.574 27.4761 350.368 30.7891C351.702 28.2363 354.048 24.0284 355.152 21.2977C355.888 19.5078 355.843 18.9255 352.437 18.478V16.9105H363.11V18.4794H363.111Z" fill="white"/>
</g>
</g>
<defs>
<clipPath id="clip0_21_134">
<rect width="402" height="62" fill="white" transform="translate(0 0.927734)"/>
</clipPath>
</defs>
</svg>
