<svg width="299" height="46" viewBox="0 0 299 46" fill="none" xmlns="http://www.w3.org/2000/svg">
<g clip-path="url(#clip0_394_2)">
<path d="M33.555 2.414C35.054 2.987 36.222 3.968 37.059 5.356C37.808 6.568 38.183 8.772 38.183 11.968V13.092V35.44L38.216 36.465C38.237 37.391 38.382 38.085 38.646 38.548C38.866 38.944 39.406 39.44 40.266 40.035C39.847 40.674 39.439 41.159 39.043 41.49C38.58 41.843 37.94 42.229 37.125 42.647C36.266 43.088 35.682 43.496 35.374 43.87C35.043 44.223 34.756 44.84 34.514 45.722C33.015 45.457 31.902 44.807 31.175 43.771C30.844 43.286 30.591 42.713 30.414 42.052C30.216 41.325 30.039 40.267 29.885 38.878L29.852 38.416C29.39 39.254 28.75 40.025 27.935 40.73L26.48 41.986C25.29 43 24.683 44.245 24.662 45.722H24.365C21.081 45.722 18.106 44.984 15.439 43.507C12.75 42.008 10.656 39.97 9.158 37.391C7.637 34.768 6.877 31.87 6.877 28.696C6.877 26.647 7.274 24.619 8.067 22.613C8.816 20.652 9.94 18.757 11.439 16.927C12.871 15.142 14.59 13.544 16.596 12.134C18.161 11.076 19.13 10.547 19.505 10.547C19.725 10.547 19.836 10.646 19.836 10.844C19.836 10.976 19.67 11.197 19.34 11.506C17.665 12.85 16.309 14.658 15.273 16.927C14.237 19.198 13.72 21.456 13.72 23.704C13.72 25.908 14.15 28.001 15.009 29.985C15.868 31.968 17.103 33.666 18.712 35.076C20.32 36.486 22.183 37.555 24.299 38.283V6.017C22.955 6.855 21.775 7.439 20.762 7.769C19.836 8.056 18.568 8.199 16.96 8.199C16.145 8.199 14.965 8.144 13.423 8.033C11.99 7.946 10.932 7.901 10.249 7.901C8.332 7.901 6.756 8.353 5.522 9.257C4.31 10.139 3.704 11.34 3.704 12.861C3.704 13.875 4.035 14.734 4.696 15.439C5.335 16.167 6.095 16.53 6.977 16.53C7.924 16.53 8.784 16.211 9.556 15.572C9.996 15.197 10.272 15.01 10.383 15.01C10.691 15.01 10.845 15.176 10.845 15.506C10.845 15.969 10.383 16.454 9.457 16.961C8.553 17.446 7.594 17.689 6.581 17.689C5.325 17.689 4.212 17.347 3.242 16.664C2.25 16.003 1.468 15.088 0.895 13.92C0.297 12.75 0 11.472 0 10.083C0 8.805 0.264 7.571 0.793 6.38C1.322 5.212 2.049 4.198 2.975 3.338C3.879 2.501 5.003 1.83 6.347 1.322C7.603 0.838 8.97 0.595 10.447 0.595C12.695 0.595 15.427 1.543 18.646 3.438C19.549 3.967 20.277 4.331 20.828 4.529C21.401 4.727 22.04 4.826 22.745 4.826C23.141 4.826 23.66 4.738 24.299 4.561V4.131C24.409 1.377 25.059 0 26.249 0C26.866 0 27.174 0.386 27.174 1.157C27.174 2.127 26.579 3.405 25.389 4.991V8.991C26.051 8.308 26.645 7.79 27.174 7.437C27.77 7.041 28.739 6.511 30.083 5.85C31.053 5.343 31.78 4.848 32.266 4.362C32.772 3.857 33.202 3.207 33.555 2.414ZM25.389 14.646V22.25H29.951V14.779C29.951 12.663 29.796 11.208 29.488 10.415C29.179 9.644 28.606 9.258 27.769 9.258C26.865 9.258 26.248 9.654 25.917 10.448C25.565 11.24 25.389 12.64 25.389 14.646ZM29.952 26.117V23.439H25.39V26.117H29.952ZM29.952 32.233V27.307H25.39V38.448C25.677 38.536 25.952 38.58 26.217 38.58C27.407 38.58 28.333 38.096 28.994 37.125C29.633 36.156 29.953 34.833 29.953 33.158L29.952 32.233Z" fill="#0071C9"/>
<path d="M72.1399 17.5928C71.6769 15.5858 71.1369 14.3128 70.4419 13.6178C69.7859 12.9228 68.7829 12.6908 66.5449 12.6908H64.7699V30.9438C64.7699 34.2238 65.1559 34.4558 68.5519 34.7258V36.0768H55.9709V34.7258C59.2119 34.4558 59.5979 34.2248 59.5979 30.9438V12.6908H58.2859C55.1219 12.6908 54.4269 13.1158 53.8479 13.7328C53.2309 14.3888 52.7289 15.7008 52.2269 17.6308H50.8379C50.9919 14.8138 51.2239 11.9968 51.3009 10.0278H52.2269C52.8449 10.9158 53.3459 10.9928 54.4269 10.9928H69.9409C70.9829 10.9928 71.5229 10.7618 72.1789 10.0278H73.1049C73.1439 11.6488 73.3369 15.0448 73.5299 17.5148L72.1399 17.5928Z" fill="white"/>
<path d="M103.284 12.3437C100.274 12.6137 100.042 12.8447 100.042 16.1257V30.9827C100.042 34.2247 100.351 34.4567 103.284 34.7257V36.0767H91.5137V34.7257C94.6007 34.4557 94.8707 34.1857 94.8707 30.9437V23.7657H84.3357V30.9437C84.3357 34.2237 84.6437 34.4557 87.4997 34.7257V36.0767H75.9997V34.7257C78.8167 34.4557 79.1647 34.2247 79.1647 30.9437V16.1257C79.1647 12.8457 78.8177 12.6137 75.8457 12.3437V10.9927H87.4227V12.3437C84.6437 12.6137 84.3357 12.8447 84.3357 16.1257V21.7987H94.8707V16.1257C94.8707 12.8457 94.5617 12.6137 91.7057 12.3437V10.9927H103.283L103.284 12.3437Z" fill="white"/>
<path d="M126.747 29.6717C126.516 31.4077 125.705 34.9197 125.396 36.0777H105.715V34.7267C108.995 34.4567 109.382 34.2257 109.382 30.9447V16.1257C109.382 12.7687 108.996 12.5757 106.256 12.3437V10.9927H124.432C124.471 11.6867 124.664 14.3887 124.818 16.7817L123.429 16.9747C123.043 15.6237 122.541 14.3507 121.846 13.6557C121.19 12.9607 120.148 12.6907 117.987 12.6907H116.135C114.707 12.6907 114.553 12.7677 114.553 14.0417V22.2237H117.138C120.379 22.2237 120.881 22.0307 121.422 19.3287H122.811V27.1237H121.422C120.881 24.3457 120.419 24.1907 117.138 24.1907H114.553V30.8667C114.553 32.6797 114.707 33.6447 115.479 34.0317C116.173 34.3407 117.485 34.4177 118.952 34.4177C120.92 34.4177 122.309 34.1477 123.235 33.1827C123.968 32.3337 124.663 31.0987 125.396 29.4007L126.747 29.6717Z" fill="white"/>
<path d="M163.445 12.3437C161.322 12.4597 160.358 13.2697 160.165 14.6207C159.972 15.8167 159.817 17.2447 159.817 19.9847V24.1917C159.817 28.2827 159.2 31.5247 157.039 33.8387C155.264 35.6917 152.64 36.6557 149.9 36.6557C147.353 36.6557 144.922 36.1157 143.069 34.6487C140.869 32.9507 139.866 30.0947 139.866 25.5807V16.5117C139.866 12.8847 139.48 12.6137 136.625 12.3437V10.9927H148.241V12.3437C145.424 12.6137 145.038 12.8847 145.038 16.5117V24.8857C145.038 30.6747 147.122 34.0317 151.289 34.0317C155.881 34.0317 157.888 30.5587 157.888 24.1137V19.9847C157.888 17.2447 157.695 15.7787 157.502 14.6207C157.309 13.2697 156.383 12.4977 153.758 12.3437V10.9927H163.445V12.3437Z" fill="white"/>
<path d="M179.114 22.6087C183.591 23.1487 186.562 24.9627 186.562 28.6287C186.562 31.2136 185.134 33.2207 182.935 34.4177C180.966 35.5367 177.995 36.0777 174.792 36.0777H164.99V34.7267C167.962 34.4567 168.309 34.1867 168.309 30.9067V16.1647C168.309 12.8847 167.962 12.6147 165.222 12.3447V10.9937H176.491C179.463 10.9937 181.391 11.3797 182.858 12.3447C184.286 13.2707 185.135 14.8147 185.135 16.7437C185.135 20.4097 181.893 21.9147 179.115 22.4547L179.114 22.6087ZM174.291 22.0687C177.996 22.0687 179.655 20.6027 179.655 17.3997C179.655 13.9267 177.572 12.6147 175.487 12.6147C174.638 12.6147 173.982 12.8457 173.751 13.0777C173.481 13.3477 173.404 13.9267 173.404 14.7367V22.0687H174.291ZM173.403 30.8287C173.403 33.6847 174.175 34.4947 176.22 34.4567C178.381 34.4177 180.813 32.8347 180.813 29.0537C180.813 25.4647 178.574 23.6127 174.175 23.6127H173.403V30.8287Z" fill="white"/>
<path d="M213.152 12.3437C210.682 12.6137 209.91 13.3077 208.521 15.5857C207.094 17.8627 206.09 19.5227 204.199 23.1487C203.659 24.1907 203.504 24.6157 203.504 25.8117V30.7507C203.504 34.2237 203.814 34.4557 207.248 34.7637V36.0757H194.706V34.7637C197.986 34.4937 198.333 34.2237 198.333 30.7507V26.4667C198.333 25.5017 198.178 25.1157 197.832 24.3827C196.79 22.2607 195.362 19.6747 193.047 15.6227C191.619 13.0757 190.963 12.6507 188.84 12.3427V10.9917H199.878V12.3427C197.331 12.6897 197.369 13.1917 198.064 14.5807C199.414 17.2437 200.958 20.0997 202.463 22.9547C203.582 20.7547 205.55 17.1277 206.476 14.7737C207.094 13.2307 207.055 12.7287 204.2 12.3427V10.9917H213.153L213.152 12.3437Z" fill="white"/>
<path d="M228.048 17.284C227.237 14.853 225.81 11.997 222.645 11.997C220.484 11.997 218.902 13.618 218.902 15.817C218.902 17.94 220.292 19.174 223.688 20.873C227.74 22.841 230.519 25.002 230.519 28.822C230.519 33.221 226.775 36.656 221.142 36.656C219.752 36.656 218.402 36.463 217.244 36.116C216.163 35.807 215.43 35.498 214.89 35.267C214.542 34.302 214.041 31.06 213.771 28.706L215.122 28.282C215.894 30.752 218.171 35.074 221.875 35.074C224.229 35.074 225.734 33.453 225.734 31.022C225.734 28.745 224.036 27.317 221.142 25.774C217.167 23.767 214.427 21.683 214.427 17.979C214.427 13.734 217.784 10.415 223.264 10.415C225.734 10.415 227.933 11.187 228.628 11.457C228.782 12.885 229.052 14.583 229.361 16.976L228.048 17.284Z" fill="white"/>
<path d="M247.538 17.284C246.728 14.853 245.3 11.997 242.136 11.997C239.975 11.997 238.392 13.618 238.392 15.817C238.392 17.94 239.782 19.174 243.177 20.873C247.229 22.841 250.008 25.002 250.008 28.822C250.008 33.221 246.265 36.656 240.631 36.656C239.241 36.656 237.891 36.463 236.733 36.116C235.652 35.807 234.92 35.498 234.379 35.267C234.032 34.302 233.529 31.06 233.26 28.706L234.61 28.282C235.382 30.752 237.659 35.074 241.363 35.074C243.717 35.074 245.222 33.453 245.222 31.022C245.222 28.745 243.524 27.317 240.63 25.774C236.654 23.767 233.915 21.683 233.915 17.979C233.915 13.734 237.272 10.415 242.752 10.415C245.221 10.415 247.422 11.187 248.116 11.457C248.27 12.885 248.54 14.583 248.849 16.976L247.538 17.284Z" fill="white"/>
<path d="M272.813 29.6717C272.581 31.4077 271.771 34.9197 271.462 36.0777H251.781V34.7267C255.061 34.4567 255.447 34.2257 255.447 30.9447V16.1257C255.447 12.7687 255.061 12.5757 252.322 12.3437V10.9927H270.498C270.536 11.6867 270.729 14.3887 270.884 16.7817L269.495 16.9747C269.109 15.6237 268.607 14.3507 267.912 13.6557C267.256 12.9607 266.214 12.6907 264.053 12.6907H262.201C260.773 12.6907 260.619 12.7677 260.619 14.0417V22.2237H263.204C266.445 22.2237 266.948 22.0307 267.487 19.3287H268.876V27.1237H267.487C266.947 24.3457 266.484 24.1907 263.204 24.1907H260.619V30.8667C260.619 32.6797 260.773 33.6447 261.545 34.0317C262.24 34.3407 263.552 34.4177 265.019 34.4177C266.987 34.4177 268.376 34.1477 269.302 33.1827C270.035 32.3337 270.73 31.0987 271.463 29.4007L272.813 29.6717Z" fill="white"/>
<path d="M298.13 12.3437C295.66 12.6137 294.889 13.3077 293.499 15.5857C292.071 17.8627 291.068 19.5227 289.177 23.1487C288.637 24.1907 288.482 24.6157 288.482 25.8117V30.7507C288.482 34.2237 288.791 34.4557 292.226 34.7637V36.0757H279.684V34.7637C282.965 34.4937 283.312 34.2237 283.312 30.7507V26.4667C283.312 25.5017 283.158 25.1157 282.81 24.3827C281.768 22.2607 280.34 19.6747 278.025 15.6227C276.597 13.0757 275.941 12.6507 273.818 12.3427V10.9917H284.855V12.3427C282.308 12.6897 282.346 13.1917 283.041 14.5807C284.392 17.2437 285.936 20.0997 287.44 22.9547C288.559 20.7547 290.527 17.1277 291.454 14.7737C292.072 13.2307 292.033 12.7287 289.177 12.3427V10.9917H298.13V12.3437Z" fill="white"/>
</g>
<defs>
<clipPath id="clip0_394_2">
<rect width="298.129" height="45.721" fill="white"/>
</clipPath>
</defs>
</svg>
