<svg width="324" height="77" viewBox="0 0 324 77" fill="none" xmlns="http://www.w3.org/2000/svg">
<path d="M38.5 0V8.5L33 14H51.5H57L51.5 8.5V0C51.5 0 48 0.5 45 0.5C42 0.5 38.5 0 38.5 0Z" fill="#0B4A44"/>
<ellipse cx="25" cy="43.5" rx="25" ry="33.5" fill="#DA6934"/>
<ellipse cx="65" cy="43.5" rx="25" ry="33.5" fill="#DA6934"/>
<ellipse cx="45" cy="43.5" rx="25" ry="33.5" fill="#EE6A2D"/>
<path d="M58.555 23.414C60.054 23.987 61.222 24.968 62.059 26.356C62.808 27.568 63.183 29.772 63.183 32.968V34.092V56.44L63.216 57.465C63.237 58.391 63.382 59.085 63.646 59.548C63.866 59.944 64.406 60.44 65.266 61.035C64.847 61.674 64.439 62.159 64.043 62.49C63.58 62.843 62.94 63.229 62.125 63.647C61.266 64.088 60.682 64.496 60.374 64.87C60.043 65.223 59.756 65.84 59.514 66.722C58.015 66.457 56.902 65.807 56.175 64.771C55.844 64.286 55.591 63.713 55.414 63.052C55.216 62.325 55.039 61.267 54.885 59.878L54.852 59.416C54.39 60.254 53.75 61.025 52.935 61.73L51.48 62.986C50.29 64 49.683 65.245 49.662 66.722H49.365C46.081 66.722 43.106 65.984 40.439 64.507C37.75 63.008 35.656 60.97 34.158 58.391C32.637 55.768 31.877 52.87 31.877 49.696C31.877 47.647 32.274 45.619 33.067 43.613C33.816 41.652 34.94 39.757 36.439 37.927C37.871 36.142 39.59 34.544 41.596 33.134C43.161 32.076 44.13 31.547 44.505 31.547C44.725 31.547 44.836 31.646 44.836 31.844C44.836 31.976 44.67 32.197 44.34 32.506C42.665 33.85 41.309 35.658 40.273 37.927C39.237 40.198 38.72 42.456 38.72 44.704C38.72 46.908 39.15 49.001 40.009 50.985C40.868 52.968 42.103 54.666 43.712 56.076C45.32 57.486 47.183 58.555 49.299 59.283V27.017C47.955 27.855 46.775 28.439 45.762 28.769C44.836 29.056 43.568 29.199 41.96 29.199C41.145 29.199 39.965 29.144 38.423 29.033C36.99 28.946 35.932 28.901 35.249 28.901C33.332 28.901 31.756 29.353 30.522 30.257C29.31 31.139 28.704 32.34 28.704 33.861C28.704 34.875 29.035 35.734 29.696 36.439C30.335 37.167 31.095 37.53 31.977 37.53C32.924 37.53 33.784 37.211 34.556 36.572C34.996 36.197 35.272 36.01 35.383 36.01C35.691 36.01 35.845 36.176 35.845 36.506C35.845 36.969 35.383 37.454 34.457 37.961C33.553 38.446 32.594 38.689 31.581 38.689C30.325 38.689 29.212 38.347 28.242 37.664C27.25 37.003 26.468 36.088 25.895 34.92C25.297 33.75 25 32.472 25 31.083C25 29.805 25.264 28.571 25.793 27.38C26.322 26.212 27.049 25.198 27.975 24.338C28.879 23.501 30.003 22.83 31.347 22.322C32.603 21.838 33.97 21.595 35.447 21.595C37.695 21.595 40.427 22.543 43.646 24.438C44.549 24.967 45.277 25.331 45.828 25.529C46.401 25.727 47.04 25.826 47.745 25.826C48.141 25.826 48.66 25.738 49.299 25.561V25.131C49.409 22.377 50.059 21 51.249 21C51.866 21 52.174 21.386 52.174 22.157C52.174 23.127 51.579 24.405 50.389 25.991V29.991C51.051 29.308 51.645 28.79 52.174 28.437C52.77 28.041 53.739 27.511 55.083 26.85C56.053 26.343 56.78 25.848 57.266 25.362C57.772 24.857 58.202 24.207 58.555 23.414ZM50.389 35.646V43.25H54.951V35.779C54.951 33.663 54.796 32.208 54.488 31.415C54.179 30.644 53.606 30.258 52.769 30.258C51.865 30.258 51.248 30.654 50.917 31.448C50.565 32.24 50.389 33.64 50.389 35.646ZM54.952 47.117V44.439H50.39V47.117H54.952ZM54.952 53.233V48.307H50.39V59.448C50.677 59.536 50.952 59.58 51.217 59.58C52.407 59.58 53.333 59.096 53.994 58.125C54.633 57.156 54.953 55.833 54.953 54.158L54.952 53.233Z" fill="#EEC42D"/>
<path d="M97.1399 39.5928C96.6769 37.5858 96.1369 36.3128 95.4419 35.6178C94.7859 34.9228 93.7829 34.6908 91.5449 34.6908H89.7699V52.9438C89.7699 56.2238 90.1559 56.4558 93.5519 56.7258V58.0768H80.9709V56.7258C84.2119 56.4558 84.5979 56.2248 84.5979 52.9438V34.6908H83.2859C80.1219 34.6908 79.4269 35.1158 78.8479 35.7328C78.2309 36.3888 77.7289 37.7008 77.2269 39.6308H75.8379C75.9919 36.8138 76.2239 33.9968 76.3009 32.0278H77.2269C77.8449 32.9158 78.3459 32.9928 79.4269 32.9928H94.9409C95.9829 32.9928 96.5229 32.7618 97.1789 32.0278H98.1049C98.1439 33.6488 98.3369 37.0448 98.5299 39.5148L97.1399 39.5928Z" fill="white"/>
<path d="M128.284 34.3437C125.274 34.6137 125.042 34.8447 125.042 38.1257V52.9827C125.042 56.2247 125.351 56.4567 128.284 56.7257V58.0767H116.514V56.7257C119.601 56.4557 119.871 56.1857 119.871 52.9437V45.7657H109.336V52.9437C109.336 56.2237 109.644 56.4557 112.5 56.7257V58.0767H101V56.7257C103.817 56.4557 104.165 56.2247 104.165 52.9437V38.1257C104.165 34.8457 103.818 34.6137 100.846 34.3437V32.9927H112.423V34.3437C109.644 34.6137 109.336 34.8447 109.336 38.1257V43.7987H119.871V38.1257C119.871 34.8457 119.562 34.6137 116.706 34.3437V32.9927H128.283L128.284 34.3437Z" fill="white"/>
<path d="M151.747 51.6717C151.516 53.4077 150.705 56.9197 150.396 58.0777H130.715V56.7267C133.995 56.4567 134.382 56.2257 134.382 52.9447V38.1257C134.382 34.7687 133.996 34.5757 131.256 34.3437V32.9927H149.432C149.471 33.6867 149.664 36.3887 149.818 38.7817L148.429 38.9747C148.043 37.6237 147.541 36.3507 146.846 35.6557C146.19 34.9607 145.148 34.6907 142.987 34.6907H141.135C139.707 34.6907 139.553 34.7677 139.553 36.0417V44.2237H142.138C145.379 44.2237 145.881 44.0307 146.422 41.3287H147.811V49.1237H146.422C145.881 46.3457 145.419 46.1907 142.138 46.1907H139.553V52.8667C139.553 54.6797 139.707 55.6447 140.479 56.0317C141.173 56.3407 142.485 56.4177 143.952 56.4177C145.92 56.4177 147.309 56.1477 148.235 55.1827C148.968 54.3337 149.663 53.0987 150.396 51.4007L151.747 51.6717Z" fill="white"/>
<path d="M188.445 34.3437C186.322 34.4597 185.358 35.2697 185.165 36.6207C184.972 37.8167 184.817 39.2447 184.817 41.9847V46.1917C184.817 50.2827 184.2 53.5247 182.039 55.8387C180.264 57.6917 177.64 58.6557 174.9 58.6557C172.353 58.6557 169.922 58.1157 168.069 56.6487C165.869 54.9507 164.866 52.0947 164.866 47.5807V38.5117C164.866 34.8847 164.48 34.6137 161.625 34.3437V32.9927H173.241V34.3437C170.424 34.6137 170.038 34.8847 170.038 38.5117V46.8857C170.038 52.6747 172.122 56.0317 176.289 56.0317C180.881 56.0317 182.888 52.5587 182.888 46.1137V41.9847C182.888 39.2447 182.695 37.7787 182.502 36.6207C182.309 35.2697 181.383 34.4977 178.758 34.3437V32.9927H188.445V34.3437Z" fill="white"/>
<path d="M204.114 44.6087C208.591 45.1487 211.562 46.9627 211.562 50.6287C211.562 53.2136 210.134 55.2207 207.935 56.4177C205.966 57.5367 202.995 58.0777 199.792 58.0777H189.99V56.7267C192.962 56.4567 193.309 56.1867 193.309 52.9067V38.1647C193.309 34.8847 192.962 34.6147 190.222 34.3447V32.9937H201.491C204.463 32.9937 206.391 33.3797 207.858 34.3447C209.286 35.2707 210.135 36.8147 210.135 38.7437C210.135 42.4097 206.893 43.9147 204.115 44.4547L204.114 44.6087ZM199.291 44.0687C202.996 44.0687 204.655 42.6027 204.655 39.3997C204.655 35.9267 202.572 34.6147 200.487 34.6147C199.638 34.6147 198.982 34.8457 198.751 35.0777C198.481 35.3477 198.404 35.9267 198.404 36.7367V44.0687H199.291ZM198.403 52.8287C198.403 55.6847 199.175 56.4947 201.22 56.4567C203.381 56.4177 205.813 54.8347 205.813 51.0537C205.813 47.4647 203.574 45.6127 199.175 45.6127H198.403V52.8287Z" fill="white"/>
<path d="M238.152 34.3437C235.682 34.6137 234.91 35.3077 233.521 37.5857C232.094 39.8627 231.09 41.5227 229.199 45.1487C228.659 46.1907 228.504 46.6157 228.504 47.8117V52.7507C228.504 56.2237 228.814 56.4557 232.248 56.7637V58.0757H219.706V56.7637C222.986 56.4937 223.333 56.2237 223.333 52.7507V48.4667C223.333 47.5017 223.178 47.1157 222.832 46.3827C221.79 44.2607 220.362 41.6747 218.047 37.6227C216.619 35.0757 215.963 34.6507 213.84 34.3427V32.9917H224.878V34.3427C222.331 34.6897 222.369 35.1917 223.064 36.5807C224.414 39.2437 225.958 42.0997 227.463 44.9547C228.582 42.7547 230.55 39.1277 231.476 36.7737C232.094 35.2307 232.055 34.7287 229.2 34.3427V32.9917H238.153L238.152 34.3437Z" fill="white"/>
<path d="M253.048 39.284C252.237 36.853 250.81 33.997 247.645 33.997C245.484 33.997 243.902 35.618 243.902 37.817C243.902 39.94 245.292 41.174 248.688 42.873C252.74 44.841 255.519 47.002 255.519 50.822C255.519 55.221 251.775 58.656 246.142 58.656C244.752 58.656 243.402 58.463 242.244 58.116C241.163 57.807 240.43 57.498 239.89 57.267C239.542 56.302 239.041 53.06 238.771 50.706L240.122 50.282C240.894 52.752 243.171 57.074 246.875 57.074C249.229 57.074 250.734 55.453 250.734 53.022C250.734 50.745 249.036 49.317 246.142 47.774C242.167 45.767 239.427 43.683 239.427 39.979C239.427 35.734 242.784 32.415 248.264 32.415C250.734 32.415 252.933 33.187 253.628 33.457C253.782 34.885 254.052 36.583 254.361 38.976L253.048 39.284Z" fill="white"/>
<path d="M272.538 39.284C271.728 36.853 270.3 33.997 267.136 33.997C264.975 33.997 263.392 35.618 263.392 37.817C263.392 39.94 264.782 41.174 268.177 42.873C272.229 44.841 275.008 47.002 275.008 50.822C275.008 55.221 271.265 58.656 265.631 58.656C264.241 58.656 262.891 58.463 261.733 58.116C260.652 57.807 259.92 57.498 259.379 57.267C259.032 56.302 258.529 53.06 258.26 50.706L259.61 50.282C260.382 52.752 262.659 57.074 266.363 57.074C268.717 57.074 270.222 55.453 270.222 53.022C270.222 50.745 268.524 49.317 265.63 47.774C261.654 45.767 258.915 43.683 258.915 39.979C258.915 35.734 262.272 32.415 267.752 32.415C270.221 32.415 272.422 33.187 273.116 33.457C273.27 34.885 273.54 36.583 273.849 38.976L272.538 39.284Z" fill="white"/>
<path d="M297.813 51.6717C297.581 53.4077 296.771 56.9197 296.462 58.0777H276.781V56.7267C280.061 56.4567 280.447 56.2257 280.447 52.9447V38.1257C280.447 34.7687 280.061 34.5757 277.322 34.3437V32.9927H295.498C295.536 33.6867 295.729 36.3887 295.884 38.7817L294.495 38.9747C294.109 37.6237 293.607 36.3507 292.912 35.6557C292.256 34.9607 291.214 34.6907 289.053 34.6907H287.201C285.773 34.6907 285.619 34.7677 285.619 36.0417V44.2237H288.204C291.445 44.2237 291.948 44.0307 292.487 41.3287H293.876V49.1237H292.487C291.947 46.3457 291.484 46.1907 288.204 46.1907H285.619V52.8667C285.619 54.6797 285.773 55.6447 286.545 56.0317C287.24 56.3407 288.552 56.4177 290.019 56.4177C291.987 56.4177 293.376 56.1477 294.302 55.1827C295.035 54.3337 295.73 53.0987 296.463 51.4007L297.813 51.6717Z" fill="white"/>
<path d="M323.13 34.3437C320.66 34.6137 319.889 35.3077 318.499 37.5857C317.071 39.8627 316.068 41.5227 314.177 45.1487C313.637 46.1907 313.482 46.6157 313.482 47.8117V52.7507C313.482 56.2237 313.791 56.4557 317.226 56.7637V58.0757H304.684V56.7637C307.965 56.4937 308.312 56.2237 308.312 52.7507V48.4667C308.312 47.5017 308.158 47.1157 307.81 46.3827C306.768 44.2607 305.34 41.6747 303.025 37.6227C301.597 35.0757 300.941 34.6507 298.818 34.3427V32.9917H309.855V34.3427C307.308 34.6897 307.346 35.1917 308.041 36.5807C309.392 39.2437 310.936 42.0997 312.44 44.9547C313.559 42.7547 315.527 39.1277 316.454 36.7737C317.072 35.2307 317.033 34.7287 314.177 34.3427V32.9917H323.13V34.3437Z" fill="white"/>
</svg>
