<?xml version="1.0" encoding="UTF-8"?>
<svg id="Layer_1" data-name="Layer 1" xmlns="http://www.w3.org/2000/svg" viewBox="0 0 1000 1000">
  <defs>
    <style>
      .cls-1 {
        fill: #f1f2f2;
      }

      .cls-2 {
        fill: #253273;
      }
    </style>
  </defs>
  <rect class="cls-2" width="1000" height="1000"/>
  <path class="cls-1" d="M702.02,225.78c12.12,19.19,17.17,48.48,17.17,97.96v350.45l1.01,15.15c0,29.29,5.05,37.37,30.3,53.53-13.13,19.19-20.2,25.25-46.46,39.39-26.26,13.13-34.34,22.22-39.39,45.45-23.23-4.04-38.38-13.13-50.5-29.29-10.1-15.15-14.14-28.28-18.18-72.71l-1.01-7.07c-9.09,16.16-15.15,23.23-28.28,34.34l-22.22,19.19c-18.18,15.15-26.26,33.33-27.27,55.55h-4.04c-149.47,0-261.57-109.07-261.57-253.49,0-90.89,55.55-184.82,145.43-247.43,22.22-15.15,38.38-24.24,43.43-24.24,3.03,0,5.05,2.02,5.05,5.05,0,2.02-2.02,5.05-8.08,9.09-50.5,42.42-83.82,114.12-83.82,182.8,0,100.99,61.61,184.82,158.56,217.14V234.87c-41.41,26.26-63.63,33.33-110.08,33.33-11.11,0-33.33-1.01-52.52-3.03-18.18-1.01-37.37-2.02-47.47-2.02-58.58,0-96.95,30.3-96.95,74.73,0,29.29,22.22,54.54,48.48,54.54,13.13,0,28.28-6.06,38.38-15.15,9.09-7.07,10.1-8.08,12.12-8.08,4.04,0,7.07,4.04,7.07,8.08,0,14.14-34.34,32.32-63.63,32.32-55.55,0-97.96-50.5-97.96-114.12,0-79.78,66.66-141.39,155.53-141.39,38.38,0,69.69,11.11,122.2,42.42,28.28,17.17,40.4,21.21,61.61,21.21,8.08,0,13.13-1.01,23.23-4.04v-7.07c1.01-39.39,11.11-60.6,29.29-60.6,8.08,0,13.13,7.07,13.13,16.16,0,16.16-7.07,32.32-26.26,57.57v59.59c19.19-19.19,26.26-24.24,69.69-46.46,30.3-15.15,39.39-24.24,51.51-51.51,23.23,9.09,40.4,23.23,52.52,44.44h-.02ZM595.97,477.25v-111.09c0-64.64-7.07-82.81-32.32-82.81s-35.35,20.2-35.35,80.79v113.11h67.67ZM528.31,495.43v39.39h67.67v-39.39h-67.67ZM528.31,551.99v167.65c5.05,1.01,8.08,2.02,12.12,2.02,35.35,0,55.55-30.3,55.55-80.79v-88.87h-67.67Z"/>
</svg>
