<svg width="749" height="151" viewBox="0 0 749 151" fill="none" xmlns="http://www.w3.org/2000/svg">
<path d="M349.429 86.9982V76.947C327.081 78.5067 318.419 84.3987 318.419 95.4896C318.419 104.501 322.75 109.353 331.065 109.353C340.594 109.18 349.429 100.342 349.429 86.9982ZM363.462 66.8959V101.902C363.462 107.274 365.367 108.833 368.139 108.833C370.564 108.833 372.99 107.1 374.029 106.407L374.896 111.433C372.99 113.339 369.352 115.419 363.462 115.419C354.453 115.419 349.602 110.566 349.602 101.902C345.271 111.433 337.475 116.285 326.561 116.285C311.835 116.285 303 108.487 303 96.1828C303 82.3192 315.993 72.6146 349.429 71.2283V61.8703C349.429 51.6459 344.751 46.1004 335.396 46.1004C325.695 46.1004 323.269 50.9527 320.324 57.8845C318.765 61.5237 317.033 63.9499 312.875 63.9499C308.544 63.9499 306.118 61.5237 306.118 57.5379C306.118 48.5266 318.592 40.0351 335.05 40.0351C354.106 40.0351 363.462 50.0862 363.462 66.8959Z" fill="white"/>
<path d="M396.551 78.3334C396.551 99.9953 405.213 109.18 418.899 109.18C430.333 109.18 440.381 100.342 440.381 77.2936C440.381 55.805 431.719 47.3135 420.112 47.3135C408.158 47.3135 396.378 56.6715 396.378 77.2936V78.3334H396.551ZM411.796 150.251H370.564V145.399C381.825 144.706 382.691 143.319 382.691 132.748V59.9641C382.691 49.2198 381.652 48.3533 370.564 47.6601V42.8078L396.551 40.7283V57.3646C400.882 46.9669 410.064 40.0351 422.71 40.0351C441.247 40.0351 455.8 54.7652 455.8 77.2936C455.8 100.515 440.381 116.285 420.458 116.285C408.851 116.285 401.228 111.26 397.07 102.248V132.575C397.07 143.319 398.63 144.186 411.796 145.225V150.251Z" fill="white"/>
<path d="M483.172 78.3334C483.172 99.9953 491.834 109.18 505.52 109.18C516.954 109.18 527.002 100.342 527.002 77.2936C527.002 55.805 518.34 47.3135 506.733 47.3135C494.779 47.3135 482.999 56.6715 482.999 77.2936V78.3334H483.172ZM498.244 150.251H457.012V145.399C468.273 144.706 469.139 143.319 469.139 132.748V59.9641C469.139 49.2198 468.1 48.3533 457.012 47.6601V42.8078L482.999 40.7283V57.3646C487.33 46.9669 496.511 40.0351 509.158 40.0351C527.695 40.0351 542.247 54.7652 542.247 77.2936C542.247 100.515 526.829 116.285 506.906 116.285C495.299 116.285 487.676 111.26 483.518 102.248V132.575C483.518 143.319 485.077 144.186 498.244 145.225V150.251Z" fill="white"/>
<path d="M577.935 33.6232L587.464 21.1459C592.834 14.2141 595.606 10.9214 599.937 10.9214C603.575 10.9214 606.347 13.8675 606.347 17.1601C606.347 20.7993 604.268 23.0521 594.393 28.5976L580.014 36.3959L577.935 33.6232ZM549.87 78.1601C549.87 57.3646 565.635 40.0351 585.211 40.0351C603.402 40.0351 615.702 53.8987 615.702 70.5351V75.5606H565.289C565.289 76.4271 565.289 77.1203 565.289 77.9868C565.289 98.0891 573.604 109.007 588.676 109.007C599.764 109.007 606.52 102.421 610.851 96.5294L616.222 100.342C611.025 108.487 601.843 116.285 586.944 116.285C563.903 116.458 549.87 101.382 549.87 78.1601ZM565.808 70.0152H600.803C600.457 54.2453 595.259 46.447 585.211 46.447C575.337 46.2737 567.714 54.7652 565.808 70.0152Z" fill="white"/>
<path d="M649.484 109.007C654.682 109.007 657.627 101.555 658.32 100.515L662.824 103.635C661.785 105.714 657.453 116.285 646.366 116.285C635.798 116.285 630.081 110.22 630.081 97.5692V47.8334H618.128V42.6345C630.601 41.2481 636.838 36.9158 639.09 15.4271H644.46V42.1146H660.052V47.8334H644.46V99.3021C644.46 106.581 645.846 109.007 649.484 109.007Z" fill="white"/>
<path d="M675.471 20.1061C675.471 15.0805 679.628 10.9214 684.652 10.9214C689.85 10.9214 693.834 15.0805 693.834 20.1061C693.834 25.1317 689.85 29.2908 684.652 29.2908C679.628 29.2908 675.471 25.1317 675.471 20.1061ZM667.502 109.7C676.857 108.66 677.723 107.62 677.723 97.0493V60.1374C677.723 49.5663 675.644 48.6999 666.635 47.4868V42.8078L691.929 40.7283V96.876C691.929 107.62 692.795 108.487 703.363 109.527V114.206H667.502V109.7Z" fill="white"/>
<path d="M735.239 109.007C740.436 109.007 743.382 101.555 744.075 100.515L748.579 103.635C747.539 105.714 743.208 116.285 731.948 116.285C721.38 116.285 715.663 110.22 715.663 97.5692V47.8334H702.15V42.6345C716.529 40.9015 722.419 36.9158 724.671 15.4271H730.042V42.1146H748.059V47.8334H730.042V99.3021C730.042 106.581 731.601 109.007 735.239 109.007Z" fill="white"/>
<path d="M239.656 100.139L239.997 99.3523L240.514 100.037L249.716 112.223L252.435 113.379V19.0625C252.435 13.9903 248.67 11.4006 246.066 9.94876C245.773 9.78502 245.478 9.62755 245.208 9.48313C244.911 9.3242 244.643 9.18108 244.439 9.06283C244.237 8.94598 244.045 8.82512 243.903 8.70201C243.833 8.64065 243.751 8.55859 243.689 8.4549C243.625 8.34714 243.564 8.18225 243.604 7.98728C243.643 7.79491 243.763 7.6675 243.862 7.5922C243.959 7.51832 244.07 7.46886 244.17 7.43304C244.37 7.36107 244.637 7.30689 244.957 7.26038C245.551 7.17381 246.429 7.10025 247.643 7.02168L248.655 4.26729L239.994 6.87342L239.229 56.3288L238.276 56.5315C233.848 46.9923 225.01 40.5312 213.089 40.5312C194.869 40.5312 180.5 54.9955 180.5 77.2898C180.5 100.265 196.07 115.781 215.688 115.781L215.695 115.781C221.588 115.867 226.465 114.501 230.417 111.858C234.371 109.215 237.434 105.27 239.656 100.139ZM194.919 77.2898C194.919 66.4895 197.094 58.8708 200.801 53.941C204.525 48.9894 209.75 46.8097 215.688 46.8097C221.797 46.8097 227.868 49.2027 232.408 54.2089C236.948 59.215 239.922 66.7955 239.922 77.1165V77.9829C239.922 88.7848 237.703 96.7078 233.713 101.941C229.707 107.195 223.962 109.676 217.074 109.676C211.218 109.676 205.653 107.407 201.565 102.184C197.488 96.9755 194.919 88.8799 194.919 77.2898Z" fill="white" stroke="white"/>
<path d="M247.676 67.6548L241.607 97.9985L238.718 56.351L239.338 19.2697C239.338 8.52541 238.125 7.48564 227.038 6.79246V1.94018L253.544 0.20723L252.934 113.061C244.651 101.575 242.27 48.7831 247.676 67.6548Z" fill="white"/>
<path d="M242.553 28.6099C244.257 17.8027 247.38 7.87363 253.036 1.48005L252.814 97.754V97.7551C252.814 98.2152 252.813 98.6568 252.813 99.0805C252.808 101.115 252.805 102.737 252.906 104.022C253.028 105.571 253.307 106.742 254.009 107.602C254.718 108.471 255.785 108.937 257.263 109.259C258.654 109.562 260.497 109.755 262.905 109.992V113.894L240.643 113.879C240.642 110.032 240.628 104.03 240.611 96.9958C240.607 95.3698 240.603 93.6887 240.599 91.9662C240.577 82.4606 240.554 71.6961 240.554 61.9997C240.554 52.1225 240.768 39.9338 242.553 28.6099Z" fill="white" stroke="white"/>
<path d="M151.589 20.2794C151.589 15.5298 155.523 11.5947 160.271 11.5947C165.186 11.5947 168.953 15.5236 168.953 20.2794C168.953 25.0351 165.186 28.964 160.271 28.964C155.523 28.964 151.589 25.029 151.589 20.2794ZM143.62 110.32C145.749 110.076 147.454 109.82 148.804 109.424C150.257 108.999 151.348 108.4 152.127 107.437C152.902 106.48 153.322 105.224 153.555 103.583C153.788 101.944 153.841 99.8642 153.841 97.2226V60.3106C153.841 57.6584 153.712 55.5803 153.365 53.9414C153.017 52.2958 152.443 51.0608 151.534 50.1272C150.627 49.1962 149.431 48.6109 147.924 48.1811C146.52 47.7807 144.809 47.5051 142.754 47.2234V43.4417L167.047 41.4443V97.0493C167.047 99.7329 167.101 101.837 167.353 103.488C167.607 105.143 168.069 106.402 168.931 107.35C169.794 108.298 171.001 108.873 172.614 109.28C174.13 109.663 176.056 109.908 178.481 110.153V113.879H143.62V110.32Z" fill="white" stroke="white"/>
<path d="M136.914 114.403H98.2808V109.724C109.541 108.685 110.234 107.645 110.234 97.0739V64.4944C110.234 53.4035 106.25 47.6847 96.2018 47.6847C83.9016 47.6847 75.9325 58.0824 75.9325 70.2131V97.0739C75.9325 107.818 76.3389 108.52 87.4264 109.56V114.06L62.9264 109.724V108.06C74.1872 107.02 64.9264 107.472 64.9264 96.9006V60.0597C64.9264 49.3154 78.0139 51.7529 66.9264 51.0597L64.9264 51.5597L69.9264 68.0597L75.0663 55.8296C79.3973 46.125 87.713 40.0597 99.6667 40.0597C115.085 40.0597 124.44 48.8978 124.44 65.5341V96.9006C124.44 107.645 125.653 108.511 136.567 109.551V114.403H136.914Z" fill="white"/>
<path d="M0.926437 43.2935L25.5663 41.2951V55.8296L26.5229 56.0334C30.7768 46.5015 38.9183 40.5597 50.6667 40.5597C58.2817 40.5597 64.333 42.7405 68.4809 46.9109C72.629 51.0813 74.9403 57.3082 74.9403 65.5341V96.9006C74.9403 99.587 75.0153 101.695 75.308 103.351C75.6018 105.014 76.1235 106.272 77.0551 107.216C77.9826 108.156 79.2613 108.728 80.9514 109.133C82.5443 109.515 84.5543 109.761 87.0673 110.005V113.903H49.7808V110.18C52.3772 109.934 54.4218 109.677 56.0195 109.281C57.7123 108.861 58.9628 108.271 59.8477 107.313C60.7341 106.353 61.1965 105.087 61.4447 103.438C61.692 101.796 61.7345 99.7123 61.7345 97.0739V64.4944C61.7345 58.9065 60.734 54.5658 58.3766 51.6181C55.9996 48.6459 52.3222 47.1847 47.2018 47.1847C34.5562 47.1847 26.4325 57.8811 26.4325 70.2131V97.0739C26.4325 99.7586 26.4967 101.866 26.7751 103.52C27.0547 105.181 27.5587 106.441 28.48 107.387C29.3977 108.329 30.6728 108.901 32.371 109.306C33.973 109.689 36.0049 109.934 38.5595 110.179V113.903H0.926437V110.18C3.5241 109.934 5.5787 109.677 7.19116 109.281C8.8992 108.862 10.1693 108.272 11.0754 107.318C11.9842 106.36 12.4704 105.095 12.7358 103.443C13.0001 101.798 13.0534 99.7139 13.0534 97.0739V59.9887C13.0534 57.3041 12.9892 55.1968 12.7108 53.5476C12.4312 51.8922 11.9268 50.6397 11.0013 49.714C10.0795 48.7918 8.80007 48.2547 7.1012 47.8993C5.50147 47.5646 3.47387 47.3805 0.926437 47.2155V43.2935Z" fill="white" stroke="white"/>
</svg>
