<svg width="732" height="151" viewBox="0 0 732 151" fill="none" xmlns="http://www.w3.org/2000/svg">
<path d="M332.196 86.9982V76.947C309.848 78.5067 301.186 84.3987 301.186 95.4896C301.186 104.501 305.517 109.353 313.832 109.353C323.361 109.18 332.196 100.342 332.196 86.9982ZM346.229 66.8959V101.902C346.229 107.274 348.134 108.833 350.906 108.833C353.332 108.833 355.757 107.1 356.797 106.407L357.663 111.433C355.757 113.339 352.119 115.419 346.229 115.419C337.22 115.419 332.369 110.566 332.369 101.902C328.038 111.433 320.242 116.285 309.328 116.285C294.603 116.285 285.767 108.487 285.767 96.1828C285.767 82.3192 298.76 72.6146 332.196 71.2283V61.8703C332.196 51.6459 327.519 46.1004 318.163 46.1004C308.462 46.1004 306.037 50.9527 303.091 57.8845C301.532 61.5237 299.8 63.9499 295.642 63.9499C291.311 63.9499 288.886 61.5237 288.886 57.5379C288.886 48.5266 301.359 40.0351 317.817 40.0351C336.874 40.0351 346.229 50.0862 346.229 66.8959Z" fill="white"/>
<path d="M379.318 78.3334C379.318 99.9953 387.98 109.18 401.666 109.18C413.1 109.18 423.148 100.342 423.148 77.2936C423.148 55.805 414.486 47.3135 402.879 47.3135C390.925 47.3135 379.145 56.6715 379.145 77.2936V78.3334H379.318ZM394.563 150.251H353.332V145.399C364.592 144.706 365.459 143.319 365.459 132.748V59.9641C365.459 49.2198 364.419 48.3533 353.332 47.6601V42.8078L379.318 40.7283V57.3646C383.649 46.9669 392.831 40.0351 405.478 40.0351C424.014 40.0351 438.567 54.7652 438.567 77.2936C438.567 100.515 423.148 116.285 403.225 116.285C391.618 116.285 383.996 111.26 379.838 102.248V132.575C379.838 143.319 381.397 144.186 394.563 145.225V150.251Z" fill="white"/>
<path d="M465.939 78.3334C465.939 99.9953 474.601 109.18 488.287 109.18C499.721 109.18 509.769 100.342 509.769 77.2936C509.769 55.805 501.107 47.3135 489.5 47.3135C477.546 47.3135 465.766 56.6715 465.766 77.2936V78.3334H465.939ZM481.011 150.251H439.779V145.399C451.04 144.706 451.906 143.319 451.906 132.748V59.9641C451.906 49.2198 450.867 48.3533 439.779 47.6601V42.8078L465.766 40.7283V57.3646C470.097 46.9669 479.279 40.0351 491.925 40.0351C510.462 40.0351 525.015 54.7652 525.015 77.2936C525.015 100.515 509.596 116.285 489.673 116.285C478.066 116.285 470.443 111.26 466.286 102.248V132.575C466.286 143.319 467.845 144.186 481.011 145.225V150.251Z" fill="white"/>
<path d="M560.702 33.6232L570.231 21.1459C575.601 14.2141 578.373 10.9214 582.704 10.9214C586.342 10.9214 589.114 13.8675 589.114 17.1601C589.114 20.7993 587.035 23.0521 577.16 28.5976L562.781 36.3959L560.702 33.6232ZM532.637 78.1601C532.637 57.3646 548.402 40.0351 567.979 40.0351C586.169 40.0351 598.469 53.8987 598.469 70.5351V75.5606H548.056C548.056 76.4271 548.056 77.1203 548.056 77.9868C548.056 98.0891 556.371 109.007 571.444 109.007C582.531 109.007 589.287 102.421 593.618 96.5294L598.989 100.342C593.792 108.487 584.61 116.285 569.711 116.285C546.67 116.458 532.637 101.382 532.637 78.1601ZM548.576 70.0152H583.57C583.224 54.2453 578.027 46.447 567.979 46.447C558.104 46.2737 550.481 54.7652 548.576 70.0152Z" fill="white"/>
<path d="M632.252 109.007C637.449 109.007 640.394 101.555 641.087 100.515L645.591 103.635C644.552 105.714 640.221 116.285 629.133 116.285C618.565 116.285 612.848 110.22 612.848 97.5692V47.8334H600.895V42.6345C613.368 41.2481 619.605 36.9158 621.857 15.4271H627.228V42.1146H642.819V47.8334H627.228V99.3021C627.228 106.581 628.613 109.007 632.252 109.007Z" fill="white"/>
<path d="M658.238 20.1061C658.238 15.0805 662.396 10.9214 667.42 10.9214C672.617 10.9214 676.602 15.0805 676.602 20.1061C676.602 25.1317 672.617 29.2908 667.42 29.2908C662.396 29.2908 658.238 25.1317 658.238 20.1061ZM650.269 109.7C659.624 108.66 660.49 107.62 660.49 97.0493V60.1374C660.49 49.5663 658.411 48.6999 649.403 47.4868V42.8078L674.696 40.7283V96.876C674.696 107.62 675.562 108.487 686.13 109.527V114.206H650.269V109.7Z" fill="white"/>
<path d="M718.006 109.007C723.204 109.007 726.149 101.555 726.842 100.515L731.346 103.635C730.307 105.714 725.976 116.285 714.715 116.285C704.147 116.285 698.43 110.22 698.43 97.5692V47.8334H684.917V42.6345C699.296 40.9015 705.187 36.9158 707.439 15.4271H712.809V42.1146H730.826V47.8334H712.809V99.3021C712.809 106.581 714.368 109.007 718.006 109.007Z" fill="white"/>
<path d="M239.656 100.139L239.997 99.3523L240.514 100.037L249.716 112.223L252.435 113.379V19.0625C252.435 13.9903 248.67 11.4006 246.066 9.94876C245.773 9.78502 245.478 9.62755 245.208 9.48313C244.911 9.3242 244.643 9.18108 244.439 9.06283C244.237 8.94598 244.045 8.82512 243.903 8.70201C243.833 8.64065 243.751 8.55859 243.689 8.4549C243.625 8.34714 243.564 8.18225 243.604 7.98728C243.643 7.79491 243.763 7.6675 243.862 7.5922C243.959 7.51832 244.07 7.46886 244.17 7.43304C244.37 7.36107 244.637 7.30689 244.957 7.26038C245.551 7.17381 246.429 7.10025 247.643 7.02168L248.655 4.26729L239.994 6.87342L239.229 56.3288L238.276 56.5315C233.848 46.9923 225.01 40.5312 213.089 40.5312C194.869 40.5312 180.5 54.9955 180.5 77.2898C180.5 100.265 196.07 115.781 215.688 115.781L215.695 115.781C221.588 115.867 226.465 114.501 230.417 111.858C234.371 109.215 237.434 105.27 239.656 100.139ZM194.919 77.2898C194.919 66.4895 197.094 58.8708 200.801 53.941C204.525 48.9894 209.75 46.8097 215.688 46.8097C221.797 46.8097 227.868 49.2027 232.408 54.2089C236.948 59.215 239.922 66.7955 239.922 77.1165V77.9829C239.922 88.7848 237.703 96.7078 233.713 101.941C229.707 107.195 223.962 109.676 217.074 109.676C211.218 109.676 205.653 107.407 201.565 102.184C197.488 96.9755 194.919 88.8799 194.919 77.2898Z" fill="white" stroke="white"/>
<path d="M247.676 67.6548L241.607 97.9985L238.718 56.351L239.338 19.2697C239.338 8.5254 238.125 7.48563 227.038 6.79245V1.94017L253.544 0.207214L252.934 113.061C244.651 101.575 242.27 48.7831 247.676 67.6548Z" fill="white"/>
<path d="M242.553 28.6099C244.257 17.8027 247.38 7.87365 253.036 1.48006L252.814 97.754V97.7551C252.814 98.2152 252.813 98.6568 252.813 99.0805C252.808 101.115 252.805 102.737 252.906 104.022C253.028 105.571 253.307 106.742 254.009 107.602C254.718 108.471 255.785 108.937 257.263 109.259C258.654 109.562 260.497 109.755 262.905 109.992V113.894L240.643 113.879C240.642 110.032 240.628 104.03 240.611 96.9958C240.607 95.3698 240.603 93.6887 240.599 91.9662C240.577 82.4606 240.554 71.6961 240.554 61.9997C240.554 52.1225 240.768 39.9338 242.553 28.6099Z" fill="white" stroke="white"/>
<path d="M151.589 20.2794C151.589 15.5298 155.523 11.5947 160.271 11.5947C165.186 11.5947 168.953 15.5236 168.953 20.2794C168.953 25.0351 165.186 28.964 160.271 28.964C155.523 28.964 151.589 25.029 151.589 20.2794ZM143.62 110.32C145.749 110.076 147.454 109.82 148.804 109.424C150.257 108.999 151.348 108.4 152.127 107.437C152.902 106.48 153.322 105.224 153.555 103.583C153.788 101.944 153.841 99.8642 153.841 97.2226V60.3106C153.841 57.6584 153.712 55.5803 153.365 53.9414C153.017 52.2958 152.443 51.0608 151.534 50.1272C150.627 49.1962 149.431 48.6109 147.924 48.1811C146.52 47.7807 144.809 47.5051 142.754 47.2234V43.4417L167.047 41.4443V97.0493C167.047 99.7329 167.101 101.837 167.353 103.488C167.607 105.143 168.069 106.402 168.931 107.35C169.794 108.298 171.001 108.873 172.614 109.28C174.13 109.663 176.056 109.908 178.481 110.153V113.879H143.62V110.32Z" fill="white" stroke="white"/>
<path d="M136.914 114.403H98.2808V109.724C109.541 108.685 110.234 107.645 110.234 97.0739V64.4944C110.234 53.4035 106.25 47.6847 96.2018 47.6847C83.9016 47.6847 75.9325 58.0824 75.9325 70.2131V97.0739C75.9325 107.818 76.3389 108.52 87.4264 109.56V114.06L62.9264 109.724V108.06C74.1872 107.02 64.9264 107.472 64.9264 96.9006V60.0597C64.9264 49.3154 78.0139 51.7529 66.9264 51.0597L64.9264 51.5597L69.9264 68.0597L75.0663 55.8296C79.3973 46.125 87.713 40.0597 99.6667 40.0597C115.085 40.0597 124.44 48.8978 124.44 65.5341V96.9006C124.44 107.645 125.653 108.511 136.567 109.551V114.403H136.914Z" fill="white"/>
<path d="M0.926437 43.2935L25.5663 41.2951V55.8296L26.5229 56.0334C30.7768 46.5015 38.9183 40.5597 50.6667 40.5597C58.2817 40.5597 64.333 42.7405 68.4809 46.9109C72.629 51.0813 74.9403 57.3082 74.9403 65.5341V96.9006C74.9403 99.587 75.0153 101.695 75.308 103.351C75.6018 105.014 76.1235 106.272 77.0551 107.216C77.9826 108.156 79.2613 108.728 80.9514 109.133C82.5443 109.515 84.5543 109.761 87.0673 110.005V113.903H49.7808V110.18C52.3772 109.934 54.4218 109.677 56.0195 109.281C57.7123 108.861 58.9628 108.271 59.8477 107.313C60.7341 106.353 61.1965 105.087 61.4447 103.438C61.692 101.796 61.7345 99.7123 61.7345 97.0739V64.4944C61.7345 58.9065 60.734 54.5658 58.3766 51.6181C55.9996 48.6459 52.3222 47.1847 47.2018 47.1847C34.5562 47.1847 26.4325 57.8811 26.4325 70.2131V97.0739C26.4325 99.7586 26.4967 101.866 26.7751 103.52C27.0547 105.181 27.5587 106.441 28.48 107.387C29.3977 108.329 30.6728 108.901 32.371 109.306C33.973 109.689 36.0049 109.934 38.5595 110.179V113.903H0.926437V110.18C3.5241 109.934 5.5787 109.677 7.19116 109.281C8.8992 108.862 10.1693 108.272 11.0754 107.318C11.9842 106.36 12.4704 105.095 12.7358 103.443C13.0001 101.798 13.0534 99.7139 13.0534 97.0739V59.9887C13.0534 57.3041 12.9892 55.1968 12.7108 53.5476C12.4312 51.8922 11.9268 50.6397 11.0013 49.714C10.0795 48.7918 8.80007 48.2547 7.1012 47.8993C5.50147 47.5646 3.47387 47.3805 0.926437 47.2155V43.2935Z" fill="white" stroke="white"/>
</svg>
