<svg width="599" height="190" viewBox="0 0 599 190" fill="none" xmlns="http://www.w3.org/2000/svg">
<path d="M68.2107 165.042C63.1559 164.689 58.4145 163.519 53.9865 161.532C49.5585 159.545 45.6329 157.018 42.2097 153.95C38.7546 150.824 35.8207 147.261 33.4078 143.261C31.0535 139.23 29.3774 134.98 28.3795 130.511C27.4402 126.011 27.2137 121.424 27.7002 116.753C28.2131 111.99 29.6254 107.345 31.9369 102.815C33.4407 99.8667 34.9797 97.8865 36.5539 96.8746C38.1281 95.8626 39.5353 95.5877 40.7753 96.0498C42.0153 96.5118 43.0109 97.6392 43.7623 99.4317C44.5137 101.224 44.8317 103.405 44.7163 105.975C44.5636 108.338 44.8233 110.969 45.4956 113.868C46.1679 116.767 47.1276 119.775 48.3746 122.892C49.6802 125.978 51.1799 129.07 52.8739 132.171C54.6264 135.24 56.4932 138.171 58.4742 140.963C60.4819 143.664 62.5559 146.139 64.6962 148.389C66.895 150.606 69.0617 152.347 71.196 153.612C72.9366 154.712 74.1904 155.964 74.9575 157.368C75.7831 158.741 76.0686 160.028 75.814 161.231C75.5594 162.433 74.8045 163.415 73.5493 164.177C72.2942 164.939 70.5146 165.227 68.2107 165.042Z" fill="#E8B131" fill-opacity="0.98"/>
<path d="M123.225 115.035C123.963 114.725 124.548 114.225 124.981 113.536C125.414 112.847 125.6 111.829 125.539 110.48C125.477 109.132 125.112 107.405 124.442 105.3C123.834 103.169 122.883 100.567 121.589 97.4951C120.813 95.6519 120.607 94.2194 120.972 93.1974C121.338 92.1755 121.915 91.5707 122.704 91.3831C123.529 91.1081 124.46 91.2584 125.498 91.8339C126.536 92.4095 127.353 93.4038 127.948 94.8169C131.804 103.971 133.276 111.417 132.364 117.154C131.514 122.865 127.872 127.184 121.437 130.111C117.689 131.69 114.494 132.348 111.852 132.087C109.184 131.763 106.953 130.931 105.158 129.589C104.851 132.467 104.002 135.176 102.612 137.714C101.257 140.166 99.3819 141.896 96.9858 142.905C93.7295 144.277 90.7593 144.696 88.0752 144.162C85.4525 143.603 83.0529 142.371 80.8763 140.467C78.6739 138.501 76.6719 135.98 74.8704 132.905C73.1044 129.743 71.4322 126.287 69.8537 122.54L64.8854 110.743C64.549 109.944 64.1981 109.369 63.8326 109.016C63.3799 108.628 62.94 108.271 62.5131 107.945C62.0248 107.644 61.5979 107.317 61.2325 106.965C60.7797 106.577 60.3851 105.983 60.0487 105.185C59.35 103.526 59.4841 101.697 60.4508 99.6986C61.4789 97.6741 63.6519 95.9632 66.9696 94.5659C71.0246 92.858 74.3441 92.5812 76.928 93.7354C79.5734 94.8637 81.8277 97.6397 83.6908 102.063L88.9308 114.505C89.9141 116.84 90.8036 118.78 91.5993 120.326C92.4305 121.784 93.2067 122.94 93.9279 123.794C94.6233 124.586 95.2766 125.106 95.8878 125.355C96.5346 125.517 97.1651 125.468 97.7795 125.21C98.3325 124.977 98.7852 124.678 99.1377 124.312C99.4901 123.947 99.786 123.533 100.025 123.07C99.5401 122.262 99.1293 121.458 98.7929 120.66C98.5179 119.835 98.2123 119.023 97.8759 118.225L88.3274 95.5533C87.784 94.2631 87.3538 93.0698 87.0368 91.9736C86.7197 90.8774 86.6824 89.8442 86.9249 88.874C87.1673 87.9038 87.7331 87.0145 88.6224 86.2059C89.5471 85.3101 90.9619 84.4611 92.8665 83.6589C95.2626 82.6497 97.3403 82.1725 99.0995 82.2273C100.92 82.2562 102.476 82.6862 103.766 83.5171C105.056 84.3481 106.174 85.5413 107.118 87.0966C108.098 88.5647 108.976 90.2203 109.753 92.0635L115.691 106.164C117.357 109.947 118.685 112.499 119.675 113.818C120.726 115.111 121.909 115.517 123.225 115.035Z" fill="#E8B131" fill-opacity="0.98"/>
<path d="M180.713 97.7084C181.483 97.4892 182.124 97.0639 182.637 96.4324C183.15 95.8009 183.458 94.8121 183.56 93.4661C183.661 92.12 183.507 90.3617 183.097 88.1911C182.75 86.0022 182.12 83.3049 181.207 80.0992C180.659 78.1757 180.628 76.7288 181.114 75.7585C181.6 74.7882 182.246 74.2575 183.052 74.1665C183.904 73.9932 184.81 74.2548 185.771 74.9515C186.732 75.6482 187.423 76.7338 187.843 78.2085C189.231 83.0812 190.116 87.4042 190.498 91.1773C190.88 94.9504 190.681 98.2652 189.9 101.122C189.101 103.914 187.657 106.267 185.568 108.179C183.46 110.027 180.643 111.454 177.117 112.458C175.001 113.061 172.899 113.348 170.812 113.319C168.724 113.29 166.751 112.57 164.893 111.158C163.081 109.664 161.434 107.291 159.953 104.039C158.472 100.787 157.281 96.2396 156.378 90.3965C155.585 85.4235 154.732 82.0621 153.817 80.3124C152.903 78.5626 151.612 77.9253 149.945 78.4002C149.047 78.6559 148.383 79.1225 147.952 79.7998C147.567 80.3947 147.232 81.0447 146.948 81.7496L151.661 98.2913C152.574 101.497 153.291 104.378 153.811 106.933C154.395 109.47 154.38 111.727 153.765 113.705C153.122 115.829 152.045 117.522 150.533 118.785C149.021 120.047 147.143 120.998 144.899 121.638C142.719 122.259 140.668 122.115 138.746 121.207C136.869 120.217 135.438 117.991 134.451 114.528L124.423 79.3291C123.984 77.7903 123.83 76.5173 123.958 75.5101C124.069 74.4388 124.404 73.5462 124.963 72.8323C125.504 72.0544 126.237 71.4642 127.162 71.062C128.133 70.5774 129.228 70.1615 130.446 69.8145C133.139 69.0472 135.511 69.0994 137.561 69.9708C139.676 70.824 141.474 72.1486 142.957 73.9445C143.279 70.9412 144.435 68.1856 146.424 65.678C148.477 63.1521 151.043 61.4507 154.12 60.5739C157.518 59.6057 160.371 59.5208 162.678 60.3192C165.049 61.0994 167.008 62.6209 168.554 64.884C170.164 67.1287 171.439 70.0234 172.38 73.568C173.32 77.1126 174.123 81.147 174.788 85.6712C175.171 88.4737 175.535 90.7267 175.882 92.4302C176.275 94.0513 176.704 95.3154 177.17 96.2223C177.618 97.0651 178.113 97.5829 178.653 97.7756C179.257 97.95 179.944 97.9276 180.713 97.7084Z" fill="#E8B131" fill-opacity="0.98"/>
<path d="M205.599 115.714C203.922 117.305 202.356 118.198 200.901 118.394C199.446 118.59 198.242 118.299 197.288 117.524C196.4 116.736 195.814 115.555 195.529 113.98C195.244 112.406 195.433 110.644 196.096 108.695C196.962 106.37 197.522 103.66 197.775 100.566C198.093 97.4592 198.152 94.2303 197.951 90.8791C197.805 87.4503 197.417 83.9976 196.787 80.5208C196.223 77.0321 195.448 73.6834 194.46 70.4747C193.538 67.2541 192.395 64.3106 191.032 61.6442C189.734 58.9659 188.316 56.7497 186.779 54.9955C185.075 53.0683 183.952 51.1713 183.411 49.3046C182.936 47.4259 183.002 45.9233 183.611 44.7968C184.286 43.6584 185.553 42.9885 187.414 42.7871C189.275 42.5857 191.716 43.1599 194.738 44.5096C199.382 46.5821 203.399 49.31 206.789 52.6934C210.168 56.0112 212.872 59.722 214.902 63.8259C216.998 67.9179 218.397 72.2718 219.097 76.8876C219.797 81.5033 219.752 86.1185 218.962 90.7332C218.225 95.2704 216.758 99.7027 214.56 104.03C212.363 108.358 209.376 112.252 205.599 115.714Z" fill="#E8B131" fill-opacity="0.98"/>
<path d="M255.721 85.9047C256.517 85.8206 257.221 85.5115 257.835 84.9773C258.449 84.4432 258.922 83.5217 259.253 82.213C259.584 80.9043 259.766 79.142 259.8 76.9262C259.834 74.7103 259.676 71.945 259.325 68.6301C259.115 66.6412 259.332 65.2104 259.978 64.3378C260.623 63.4651 261.35 63.053 262.16 63.1015C263.029 63.0767 263.877 63.4899 264.704 64.3409C265.531 65.192 266.026 66.38 266.187 67.9048C267.231 77.7831 266.488 85.3364 263.957 90.5648C261.426 95.7932 256.657 98.8782 249.65 99.82C245.606 100.247 242.357 99.954 239.904 98.9397C237.443 97.859 235.548 96.4169 234.217 94.6134C232.887 92.8099 232 90.7585 231.556 88.4591C231.105 86.0934 230.763 83.8167 230.532 81.6289L225.791 36.7788C225.714 36.0495 225.663 35.2504 225.638 34.3815C225.68 33.5057 225.894 32.6786 226.281 31.9002C226.734 31.1149 227.5 30.4306 228.578 29.8474C229.649 29.1979 231.212 28.7645 233.267 28.5473C237.311 28.1198 240.547 28.9175 242.973 30.9403C245.458 32.8898 246.928 36.0193 247.384 40.3286L251.074 75.2341C251.574 79.3375 252.108 82.1638 252.674 83.7129C253.306 85.255 254.322 85.9856 255.721 85.9047Z" fill="#E8B131" fill-opacity="0.98"/>
<path d="M290.852 84.074C291.651 84.0449 292.376 83.785 293.025 83.2944C293.674 82.8038 294.209 81.9171 294.629 80.6342C295.049 79.3514 295.319 77.6071 295.439 75.4013C295.626 73.193 295.658 70.4233 295.537 67.0922C295.464 65.0935 295.779 63.6811 296.483 62.8549C297.187 62.0288 297.941 61.6678 298.745 61.7719C299.614 61.8069 300.431 62.2775 301.198 63.1835C301.965 64.0895 302.376 65.3087 302.432 66.841C302.794 76.7677 301.532 84.252 298.647 89.2937C295.829 94.333 290.892 97.0812 283.837 97.5384C279.773 97.6864 276.553 97.17 274.175 95.9892C271.794 94.7417 270.003 93.1725 268.8 91.2817C267.597 89.3909 266.853 87.2833 266.568 84.9588C266.281 82.5677 266.097 80.2728 266.017 78.0743L265.442 62.2848C265.267 57.4879 266.109 54.055 267.968 51.9859C269.825 49.8503 272.852 48.7059 277.049 48.553C278.648 48.4948 280.019 48.5783 281.161 48.8035C282.368 48.9597 283.317 49.392 284.01 50.1006C284.768 50.7401 285.336 51.6867 285.715 52.9404C286.094 54.1941 286.32 55.8203 286.393 57.819L286.95 73.1088C287.167 77.237 287.505 80.0933 287.963 81.6776C288.487 83.2596 289.45 84.0584 290.852 84.074ZM285.556 34.8342C285.655 37.5657 284.874 39.9291 283.212 41.9242C281.55 43.9194 278.921 44.9825 275.323 45.1136C271.859 45.2398 269.192 44.3697 267.323 42.5032C265.52 40.6342 264.569 38.334 264.47 35.6025C264.368 32.8043 265.148 30.4077 266.809 28.4125C268.538 26.4149 271.134 25.353 274.599 25.2268C278.196 25.0957 280.896 25.9647 282.699 27.8336C284.501 29.7025 285.454 32.0361 285.556 34.8342Z" fill="#E8B131" fill-opacity="0.98"/>
<path d="M375.501 88.5706C376.298 88.6359 377.048 88.4631 377.751 88.0524C378.453 87.6417 379.089 86.8242 379.657 85.5998C380.226 84.3755 380.7 82.6751 381.078 80.4988C381.524 78.3279 381.882 75.5813 382.154 72.2591C382.318 70.2658 382.797 68.9004 383.593 68.1629C384.39 67.4254 385.181 67.1557 385.967 67.3539C386.826 67.491 387.582 68.0547 388.237 69.0447C388.892 70.0348 389.156 71.2939 389.031 72.8221C388.618 77.8719 387.927 82.23 386.958 85.8965C385.988 89.563 384.636 92.5961 382.901 94.9959C381.172 97.3292 378.993 99.0237 376.365 100.079C373.742 101.069 370.603 101.414 366.949 101.115C364.756 100.935 362.688 100.465 360.743 99.7034C358.799 98.9422 357.205 97.5743 355.962 95.5996C354.791 93.5639 354.084 90.7635 353.841 87.1985C353.598 83.6334 354.081 78.9572 355.29 73.17C356.296 68.2356 356.679 64.7887 356.438 62.8291C356.197 60.8696 355.213 59.8191 353.485 59.6777C352.821 59.6233 352.209 59.7404 351.651 60.0291C351.164 60.2568 350.705 60.5537 350.273 60.9197C350.374 61.3293 350.397 61.8663 350.342 62.5307C350.288 63.1951 350.214 64.0921 350.122 65.2217L347.967 91.5337C347.891 92.4639 347.68 93.4164 347.332 94.3913C347.057 95.3052 346.587 96.1364 345.924 96.8848C345.266 97.5667 344.387 98.0967 343.285 98.4747C342.251 98.8583 340.936 98.9847 339.341 98.8542C334.956 98.4951 331.948 97.2455 330.317 95.1053C328.758 92.904 328.175 89.4114 328.566 84.6275L329.839 69.0795C330.177 64.9599 330.214 62.0533 329.951 60.3595C329.694 58.5993 328.801 57.6567 327.273 57.5316C326.742 57.488 326.26 57.6493 325.829 58.0153C325.398 58.3813 325.024 58.8525 324.71 59.4287L323.282 76.8703C323.01 80.1926 322.668 83.1412 322.256 85.7162C321.845 88.2912 321.004 90.3962 319.733 92.0313C318.384 93.7938 316.781 95.0003 314.921 95.6508C313.062 96.3012 310.97 96.5312 308.644 96.3408C306.385 96.1559 304.515 95.3004 303.035 93.7745C301.626 92.1876 301.069 89.6002 301.363 86.0122L304.349 49.5342C304.61 46.3449 305.54 44.3809 307.139 43.6423C308.744 42.8372 310.842 42.5407 313.433 42.7529C315.626 42.9324 317.481 43.5526 319 44.6133C320.524 45.6077 321.721 46.9098 322.593 48.5196C324.229 46.513 326.1 44.8937 328.208 43.6616C330.316 42.4295 332.532 41.9086 334.858 42.099C338.645 42.4091 341.628 43.5563 343.807 45.5407C345.991 47.4587 347.523 49.9921 348.402 53.1411C349.826 50.4483 351.91 48.2778 354.654 46.6295C357.403 44.9148 360.406 44.1907 363.661 44.4573C367.183 44.7456 369.883 45.6691 371.762 47.2276C373.708 48.7916 375.006 50.9046 375.658 53.5666C376.376 56.2341 376.552 59.3924 376.187 63.0414C375.821 66.6904 375.154 70.7495 374.186 75.2188C373.559 77.9768 373.108 80.2141 372.834 81.9308C372.632 83.5865 372.589 84.9208 372.707 85.9338C372.83 86.8803 373.111 87.5387 373.549 87.909C374.053 88.2848 374.704 88.5053 375.501 88.5706Z" fill="#E8B131" fill-opacity="0.98"/>
<path d="M410.6 96.1486C411.384 96.3073 412.149 96.2242 412.895 95.8991C413.641 95.5741 414.368 94.8371 415.077 93.6883C415.786 92.5394 416.457 90.9067 417.089 88.7902C417.787 86.6869 418.467 84.0017 419.129 80.7347C419.526 78.7745 420.163 77.4751 421.041 76.8366C421.918 76.198 422.736 76.0235 423.493 76.313C424.329 76.5503 425.014 77.1992 425.548 78.2595C426.081 79.3198 426.196 80.6014 425.892 82.1042C423.92 91.8399 420.942 98.821 416.957 103.048C413.038 107.287 407.595 108.804 400.629 107.597C396.643 106.79 393.633 105.534 391.597 103.83C389.575 102.06 388.2 100.115 387.473 97.9952C386.746 95.8754 386.516 93.6522 386.783 91.3256C387.064 88.9336 387.422 86.6595 387.859 84.5033L390.995 69.0176C391.947 64.3131 393.57 61.1726 395.861 59.5961C398.167 57.9543 401.377 57.5502 405.494 58.3838C407.062 58.7014 408.375 59.1033 409.433 59.5896C410.569 60.0238 411.391 60.6664 411.899 61.5175C412.486 62.3164 412.816 63.3697 412.892 64.6773C412.967 65.985 412.806 67.6189 412.409 69.5791L409.373 84.5747C408.618 88.639 408.277 91.495 408.352 93.1426C408.492 94.8033 409.241 95.8053 410.6 96.1486ZM416.974 47.0367C416.432 49.7156 415.119 51.8305 413.037 53.3814C410.954 54.9322 408.149 55.3504 404.62 54.6359C401.223 53.9478 398.833 52.4777 397.453 50.2256C396.138 47.9867 395.752 45.5278 396.294 42.8488C396.85 40.1045 398.169 37.9569 400.251 36.4061C402.399 34.8685 405.172 34.4437 408.57 35.1318C412.098 35.8463 414.52 37.323 415.835 39.5619C417.15 41.8008 417.53 44.2924 416.974 47.0367Z" fill="#E8B131" fill-opacity="0.98"/>
<path d="M427.835 69.6212C426.485 69.2496 425.736 68.4554 425.587 67.2389C425.455 65.9581 425.566 64.6749 425.92 63.3894C426.228 62.0219 426.757 60.8538 427.508 59.8851C428.212 58.8343 429.303 58.5125 430.782 58.9195L431.842 59.2116L432.984 55.0659C433.479 53.2662 434.307 51.7655 435.468 50.5638C436.629 49.3622 437.993 48.4242 439.562 47.7497C441.131 47.0753 442.853 46.7199 444.73 46.6836C446.625 46.583 448.504 46.7893 450.368 47.3026C452.747 47.9574 454.203 48.9462 454.738 50.269C455.29 51.5275 455.212 53.4422 454.504 56.0132L452.089 64.7866L454.499 65.4503C455.72 65.7866 456.364 66.5863 456.431 67.8494C456.58 69.066 456.469 70.3491 456.097 71.6989C455.743 72.9844 455.214 74.1525 454.51 75.2033C453.823 76.1897 452.837 76.506 451.552 76.152L449.142 75.4883L444.23 93.3245C443.197 97.3272 442.661 100.153 442.622 101.802C442.647 103.468 443.326 104.519 444.658 104.955C445.429 105.168 446.198 105.137 446.965 104.865C447.731 104.592 448.508 103.906 449.294 102.809C450.08 101.712 450.894 100.138 451.735 98.0877C452.576 96.0375 453.439 93.4055 454.324 90.1918C454.855 88.2635 455.58 87.0111 456.5 86.4345C457.419 85.8579 458.247 85.7401 458.983 86.081C459.801 86.3753 460.439 87.0698 460.898 88.1643C461.358 89.2588 461.384 90.5453 460.977 92.0236C458.34 101.6 454.888 108.36 450.622 112.302C446.355 116.244 440.789 117.374 433.923 115.691C430.002 114.611 427.085 113.151 425.172 111.31C423.276 109.405 422.038 107.37 421.459 105.206C420.88 103.041 420.803 100.807 421.23 98.5042C421.674 96.1372 422.188 93.8932 422.772 91.7722L428.799 69.8867L427.835 69.6212Z" fill="#E8B131" fill-opacity="0.98"/>
<path d="M507.98 99.8474C506.975 103.102 505.42 105.83 503.314 108.031C501.209 110.232 498.736 111.798 495.896 112.728C493.08 113.596 489.994 113.757 486.638 113.213C483.369 112.629 480.025 111.199 476.606 108.922C475.858 112.059 475.907 114.782 476.75 117.092C477.68 119.362 479.082 121.132 480.955 122.403C482.891 123.697 485.13 124.465 487.674 124.705C490.28 124.969 492.879 124.59 495.469 123.566C498.121 122.566 500.586 120.926 502.863 118.647C505.203 116.391 507.074 113.39 508.477 109.644C509.178 107.771 510.012 106.588 510.979 106.096C511.947 105.604 512.782 105.561 513.484 105.966C514.272 106.332 514.846 107.081 515.206 108.212C515.565 109.343 515.476 110.627 514.938 112.063C513.138 116.87 510.757 120.855 507.793 124.017C504.853 127.116 501.624 129.466 498.106 131.067C494.673 132.63 491.077 133.49 487.316 133.648C483.555 133.806 479.965 133.316 476.547 132.178C473.129 131.041 469.995 129.334 467.146 127.057C464.297 124.78 462.037 121.976 460.365 118.645C458.756 115.337 457.849 111.581 457.644 107.375C457.439 103.169 458.272 98.5694 460.142 93.5747C462.005 88.7906 464.148 84.9662 466.574 82.1014C469.085 79.1975 471.756 77.1011 474.588 75.8123C477.443 74.4609 480.451 73.843 483.611 73.9585C486.771 74.0739 489.974 74.7394 493.221 75.955C495.781 76.9135 498.138 78.2232 500.292 79.8841C502.446 81.545 504.223 83.4557 505.62 85.6164C507.041 87.7146 507.971 89.9848 508.409 92.4268C508.91 94.8922 508.767 97.3657 507.98 99.8474ZM488.475 88.0595C487.539 87.7088 486.622 87.9707 485.725 88.845C484.891 89.7428 484.045 90.9565 483.187 92.4863C482.353 93.9536 481.566 95.5809 480.825 97.3681C480.147 99.1787 479.528 100.833 478.967 102.332C480.216 103.369 481.445 103.793 482.654 103.605C483.887 103.355 484.995 102.773 485.977 101.86C487.046 100.907 487.954 99.717 488.703 98.2888C489.451 96.8605 489.946 95.444 490.187 94.0394C490.49 92.6582 490.494 91.4136 490.197 90.3058C489.985 89.1589 489.412 88.4101 488.475 88.0595Z" fill="#E8B131" fill-opacity="0.98"/>
<path d="M558.864 137.002C557.457 139.727 556.341 141.964 555.513 143.713C554.745 145.492 554.22 146.947 553.937 148.076C553.685 149.146 553.674 149.966 553.906 150.536C554.137 151.105 554.549 151.543 555.141 151.848C555.912 152.246 556.7 152.39 557.506 152.281C558.343 152.113 559.23 151.557 560.166 150.615C561.162 149.704 562.238 148.346 563.394 146.542C564.639 144.709 566.027 142.311 567.555 139.349C568.472 137.572 569.44 136.496 570.459 136.121C571.477 135.747 572.311 135.802 572.961 136.287C573.701 136.744 574.182 137.555 574.406 138.721C574.63 139.886 574.39 141.151 573.687 142.513C571.364 147.016 569.02 150.758 566.656 153.739C564.352 156.751 561.908 159.016 559.324 160.533C556.831 162.022 554.138 162.734 551.247 162.667C548.445 162.572 545.415 161.683 542.157 160.002C539.965 158.871 537.897 157.354 535.953 155.45C534.099 153.518 532.951 151.238 532.507 148.608C530.162 150.099 527.676 150.992 525.049 151.286C522.45 151.671 519.728 151.129 516.885 149.662C513.685 148.011 511.371 145.954 509.941 143.491C508.571 141.058 507.875 138.336 507.854 135.324C507.833 132.312 508.365 129.099 509.452 125.684C510.629 122.24 512.135 118.741 513.969 115.186C515.803 111.632 517.768 108.407 519.862 105.511C522.046 102.587 524.371 100.261 526.838 98.5336C529.305 96.8058 531.927 95.7956 534.704 95.503C537.48 95.2103 540.468 95.8894 543.668 97.5403C545.623 98.5491 547.08 100.014 548.039 101.934C549.058 103.885 549.687 106.01 549.926 108.309L557.08 94.4461C558.272 92.1356 559.647 90.707 561.204 90.1603C562.792 89.5544 565.022 90.03 567.895 91.5872C571.893 93.7253 574.322 96.1415 575.182 98.836C576.042 101.53 575.372 105.01 573.171 109.276L558.864 137.002ZM529.955 138.289C530.844 138.748 531.724 138.714 532.595 138.188C533.497 137.604 534.48 136.498 535.544 134.872C536.668 133.276 537.947 131.16 539.382 128.525C540.848 125.83 542.559 122.587 544.515 118.795C544.376 118.048 544.132 117.285 543.784 116.505C543.495 115.756 542.936 115.168 542.107 114.74C540.922 114.128 539.59 114.529 538.111 115.941C536.722 117.325 534.866 120.268 532.542 124.77C530.219 129.273 528.896 132.491 528.573 134.425C528.309 136.39 528.77 137.678 529.955 138.289Z" fill="#E8B131" fill-opacity="0.98"/>
</svg>
