<svg width="208" height="48" viewBox="0 0 208 48" fill="none" xmlns="http://www.w3.org/2000/svg">
<mask id="path-1-outside-1_262_39" maskUnits="userSpaceOnUse" x="0" y="0" width="208" height="48" fill="black">
<rect fill="white" width="208" height="48"/>
<path d="M8.05469 32.3945C8.05469 34.9492 8.35156 37.1719 8.94531 39.0625C9.54688 40.9531 10.4531 42.4414 11.6641 43.5273C11.6562 43.9023 11.5625 44.25 11.3828 44.5703C11.2109 44.8906 10.9688 45.168 10.6562 45.4023C10.3438 45.6445 9.96484 45.832 9.51953 45.9648C9.08203 46.1055 8.59375 46.1758 8.05469 46.1758C7.5 46.1758 6.9375 46.0859 6.36719 45.9062C5.80469 45.7266 5.26172 45.4336 4.73828 45.0273C4.21484 44.6289 3.72656 44.1055 3.27344 43.457C2.82031 42.8086 2.42188 42.0156 2.07812 41.0781C1.74219 40.1484 1.47656 39.0586 1.28125 37.8086C1.09375 36.5664 1 35.1445 1 33.543C1 31.7617 1.14453 29.9883 1.43359 28.2227C1.73047 26.4492 2.14062 24.7227 2.66406 23.043C3.1875 21.3555 3.80859 19.7344 4.52734 18.1797C5.25391 16.625 6.04297 15.1758 6.89453 13.832C7.75391 12.4805 8.66406 11.25 9.625 10.1406C10.5859 9.03125 11.5664 8.08203 12.5664 7.29297C13.5664 6.49609 14.5703 5.88281 15.5781 5.45312C16.5859 5.01562 17.5664 4.79688 18.5195 4.79688C19.2617 4.79688 19.793 4.92969 20.1133 5.19531C20.4336 5.46094 20.5938 5.82422 20.5938 6.28516C20.5938 6.44922 20.5742 6.59766 20.5352 6.73047C20.5039 6.86328 20.4414 7 20.3477 7.14062C18.9805 7.84375 17.7266 8.73438 16.5859 9.8125C15.4453 10.8906 14.418 12.0977 13.5039 13.4336C12.5977 14.7695 11.8047 16.2109 11.125 17.7578C10.4453 19.2969 9.875 20.8867 9.41406 22.5273C8.96094 24.1602 8.62109 25.8125 8.39453 27.4844C8.16797 29.1562 8.05469 30.793 8.05469 32.3945Z"/>
<path d="M31.1758 15.4492C31.418 15.1367 31.7227 14.9062 32.0898 14.7578C32.4648 14.6094 32.832 14.5352 33.1914 14.5352C33.8633 14.5352 34.4805 14.6445 35.043 14.8633C35.6133 15.082 36.1055 15.375 36.5195 15.7422C36.9336 16.1016 37.2578 16.5156 37.4922 16.9844C37.7266 17.4531 37.8438 17.9336 37.8438 18.4258C37.8438 18.6445 37.8281 18.875 37.7969 19.1172C37.7734 19.3516 37.7266 19.6172 37.6562 19.9141C37.5938 20.2031 37.5039 20.5312 37.3867 20.8984C37.2695 21.2656 37.1211 21.6914 36.9414 22.1758C36.7773 22.6289 36.5859 23.125 36.3672 23.6641C36.1562 24.1953 35.9375 24.7383 35.7109 25.293C35.4844 25.8398 35.2617 26.3789 35.043 26.9102C34.832 27.4414 34.6406 27.9336 34.4688 28.3867C34.3047 28.832 34.1719 29.2227 34.0703 29.5586C33.9688 29.8945 33.918 30.1367 33.918 30.2852C33.918 30.5977 33.9805 30.8047 34.1055 30.9062C34.2305 31 34.3906 31.0469 34.5859 31.0469C34.8594 31.0469 35.207 30.9258 35.6289 30.6836C36.0508 30.4336 36.5352 30.0547 37.082 29.5469C37.6367 29.0391 38.2461 28.3945 38.9102 27.6133C39.582 26.8242 40.3008 25.8906 41.0664 24.8125C41.3164 24.8125 41.5586 24.8516 41.793 24.9297C42.0352 25 42.2461 25.1016 42.4258 25.2344C42.6133 25.3672 42.7617 25.5234 42.8711 25.7031C42.9805 25.8828 43.0352 26.082 43.0352 26.3008C43.0352 26.7305 42.8945 27.2383 42.6133 27.8242C42.3398 28.4023 41.9648 29.0195 41.4883 29.6758C41.0117 30.3242 40.457 30.9883 39.8242 31.668C39.1992 32.3398 38.5391 32.9805 37.8438 33.5898C37.2812 34.0898 36.7031 34.5586 36.1094 34.9961C35.5234 35.4258 34.9375 35.8008 34.3516 36.1211C33.7656 36.4414 33.1914 36.6914 32.6289 36.8711C32.0742 37.0508 31.543 37.1406 31.0352 37.1406C30.543 37.1406 30.1016 37.0938 29.7109 37C29.3203 36.9141 28.9844 36.7539 28.7031 36.5195C28.4297 36.2852 28.2188 35.9688 28.0703 35.5703C27.9297 35.1641 27.8594 34.6484 27.8594 34.0234C27.8594 33.6875 27.8828 33.3164 27.9297 32.9102C27.9844 32.4961 28.0586 32.0352 28.1523 31.5273C27.5742 32.6211 26.9648 33.5703 26.3242 34.375C25.6914 35.1719 25.0508 35.8359 24.4023 36.3672C23.7617 36.8906 23.1289 37.2773 22.5039 37.5273C21.8789 37.7852 21.2969 37.9141 20.7578 37.9141C20.0547 37.9141 19.4766 37.8125 19.0234 37.6094C18.5703 37.4141 18.2109 37.125 17.9453 36.7422C17.6875 36.3594 17.5078 35.8867 17.4062 35.3242C17.3047 34.7617 17.2539 34.1211 17.2539 33.4023C17.2539 33.043 17.293 32.6055 17.3711 32.0898C17.457 31.5742 17.582 31 17.7461 30.3672C17.9102 29.7344 18.1094 29.0586 18.3438 28.3398C18.5859 27.6211 18.8633 26.875 19.1758 26.1016C18.9102 25.5938 18.7383 25.0938 18.6602 24.6016C18.5898 24.1016 18.5547 23.6094 18.5547 23.125C18.5547 22.625 18.6719 22.0742 18.9062 21.4727C19.1484 20.8711 19.4688 20.2617 19.8672 19.6445C20.2734 19.0195 20.7422 18.418 21.2734 17.8398C21.8125 17.2539 22.375 16.7344 22.9609 16.2812C23.5547 15.8281 24.1562 15.4648 24.7656 15.1914C25.375 14.918 25.9609 14.7812 26.5234 14.7812C26.8984 14.7812 27.2266 14.8164 27.5078 14.8867C27.7969 14.9492 28.0352 15.0547 28.2227 15.2031C28.418 15.3516 28.5664 15.5508 28.668 15.8008C28.7695 16.043 28.8203 16.3438 28.8203 16.7031C28.8203 17.4766 28.5117 18.5664 27.8945 19.9727C27.2852 21.3789 26.3633 23.0859 25.1289 25.0938C24.8867 25.9688 24.6953 26.75 24.5547 27.4375C24.4219 28.1172 24.3555 28.6484 24.3555 29.0312C24.3555 29.4219 24.4297 29.7305 24.5781 29.957C24.7344 30.1758 24.9805 30.2852 25.3164 30.2852C25.5195 30.2852 25.7617 30.2188 26.043 30.0859C26.3242 29.9531 26.6172 29.7852 26.9219 29.582C27.2266 29.3711 27.5273 29.1367 27.8242 28.8789C28.1211 28.6211 28.3906 28.3672 28.6328 28.1172C29.0391 26.8203 29.3867 25.625 29.6758 24.5312C29.9727 23.4375 30.2227 22.3906 30.4258 21.3906C30.6289 20.3828 30.7891 19.3984 30.9062 18.4375C31.0312 17.4766 31.1211 16.4805 31.1758 15.4492Z"/>
<path d="M40.7852 25.6211C40.5898 25.168 40.4609 24.6797 40.3984 24.1562C40.3359 23.6328 40.3047 23.1289 40.3047 22.6445C40.3047 22.1758 40.4141 21.6562 40.6328 21.0859C40.8516 20.5078 41.1445 19.9297 41.5117 19.3516C41.8867 18.7656 42.3164 18.1992 42.8008 17.6523C43.293 17.1055 43.8086 16.6211 44.3477 16.1992C44.8867 15.7695 45.4297 15.4258 45.9766 15.168C46.5312 14.9102 47.0547 14.7812 47.5469 14.7812C47.9609 14.7812 48.3008 14.8203 48.5664 14.8984C48.832 14.9688 49.0391 15.0859 49.1875 15.25C49.3438 15.4141 49.4531 15.625 49.5156 15.8828C49.5781 16.1328 49.6094 16.4375 49.6094 16.7969C49.6094 17.0938 49.5703 17.5117 49.4922 18.0508C49.4141 18.5898 49.2969 19.1797 49.1406 19.8203C48.9844 20.4609 48.7852 21.125 48.543 21.8125C48.3008 22.4922 48.0195 23.125 47.6992 23.7109C48.5742 22.1953 49.4297 20.918 50.2656 19.8789C51.1094 18.832 51.9141 17.9844 52.6797 17.3359C53.4453 16.6875 54.1602 16.2188 54.8242 15.9297C55.4961 15.6406 56.0938 15.4961 56.6172 15.4961C57.1719 15.4961 57.6562 15.582 58.0703 15.7539C58.4844 15.918 58.8281 16.1523 59.1016 16.457C59.3828 16.7539 59.5898 17.1055 59.7227 17.5117C59.8633 17.9102 59.9336 18.3438 59.9336 18.8125C59.9336 19.4531 59.8281 20.207 59.6172 21.0742C59.4062 21.9336 59.0469 22.9375 58.5391 24.0859C58.3984 24.4375 58.2383 24.8203 58.0586 25.2344C57.8867 25.6484 57.7109 26.0742 57.5312 26.5117C57.3594 26.9414 57.1875 27.3711 57.0156 27.8008C56.8516 28.2227 56.7031 28.625 56.5703 29.0078C56.4375 29.3828 56.332 29.7266 56.2539 30.0391C56.1758 30.3516 56.1367 30.6094 56.1367 30.8125C56.1367 31.0781 56.1953 31.2656 56.3125 31.375C56.4297 31.4766 56.5977 31.5273 56.8164 31.5273C57.0586 31.5273 57.418 31.3789 57.8945 31.082C58.3711 30.7773 58.918 30.3398 59.5352 29.7695C60.1602 29.1992 60.8359 28.4961 61.5625 27.6602C62.2969 26.8242 63.0352 25.875 63.7773 24.8125C64.0039 24.8125 64.2266 24.8516 64.4453 24.9297C64.6719 25 64.8711 25.1055 65.043 25.2461C65.2227 25.3789 65.3672 25.543 65.4766 25.7383C65.5859 25.9336 65.6406 26.1523 65.6406 26.3945C65.6406 26.7695 65.5195 27.2188 65.2773 27.7422C65.043 28.2578 64.7188 28.8125 64.3047 29.4062C63.8906 30 63.4023 30.6133 62.8398 31.2461C62.2773 31.8789 61.6719 32.4961 61.0234 33.0977C60.3828 33.6992 59.7109 34.2695 59.0078 34.8086C58.3125 35.3398 57.6211 35.8086 56.9336 36.2148C56.2461 36.6211 55.5742 36.9414 54.918 37.1758C54.2695 37.4102 53.668 37.5273 53.1133 37.5273C52.4102 37.5273 51.8164 37.4492 51.332 37.293C50.8477 37.1367 50.457 36.8984 50.1602 36.5781C49.8633 36.2578 49.6484 35.8555 49.5156 35.3711C49.3906 34.8789 49.3281 34.3008 49.3281 33.6367C49.3281 33.1055 49.3867 32.5391 49.5039 31.9375C49.6289 31.3359 49.7812 30.7305 49.9609 30.1211C50.1406 29.5039 50.3359 28.9023 50.5469 28.3164C50.7656 27.7227 50.9648 27.1797 51.1445 26.6875C51.3242 26.1875 51.4727 25.7539 51.5898 25.3867C51.7148 25.0195 51.7773 24.7461 51.7773 24.5664C51.7773 24.1836 51.5859 23.9922 51.2031 23.9922C51.0938 23.9922 50.918 24.043 50.6758 24.1445C50.4336 24.2461 50.1406 24.4258 49.7969 24.6836C49.4531 24.9336 49.0703 25.2734 48.6484 25.7031C48.2266 26.125 47.7812 26.6602 47.3125 27.3086C47.1406 28.2305 46.9922 29.0742 46.8672 29.8398C46.75 30.5977 46.6484 31.3281 46.5625 32.0312C46.4766 32.7344 46.4062 33.4414 46.3516 34.1523C46.2969 34.8555 46.25 35.6133 46.2109 36.4258C46.0938 36.543 45.9766 36.6445 45.8594 36.7305C45.75 36.8086 45.625 36.8711 45.4844 36.918C45.3438 36.9648 45.1758 36.9961 44.9805 37.0117C44.793 37.0352 44.5625 37.0469 44.2891 37.0469C43.6172 37.0469 42.9961 36.8984 42.4258 36.6016C41.8555 36.3047 41.3594 35.9102 40.9375 35.418C40.5234 34.918 40.1953 34.3398 39.9531 33.6836C39.7188 33.0273 39.5938 32.3398 39.5781 31.6211C39.5781 30.707 39.6758 29.7578 39.8711 28.7734C40.0664 27.7891 40.3711 26.7383 40.7852 25.6211Z"/>
<path d="M73.2109 18.4727C73.2109 17.1992 73.1367 16.0039 72.9883 14.8867C72.8398 13.7695 72.6133 12.7422 72.3086 11.8047C72.0117 10.8672 71.6367 10.0234 71.1836 9.27344C70.7383 8.52344 70.2148 7.87891 69.6133 7.33984C69.6289 6.96484 69.7227 6.61719 69.8945 6.29688C70.0664 5.97656 70.3086 5.69922 70.6211 5.46484C70.9336 5.23047 71.3086 5.04688 71.7461 4.91406C72.1836 4.77344 72.6719 4.70312 73.2109 4.70312C73.7734 4.70312 74.3359 4.79297 74.8984 4.97266C75.4688 5.15234 76.0156 5.44531 76.5391 5.85156C77.0625 6.25 77.5508 6.77344 78.0039 7.42188C78.457 8.0625 78.8516 8.85156 79.1875 9.78906C79.5234 10.7188 79.7852 11.8086 79.9727 13.0586C80.168 14.3008 80.2656 15.7227 80.2656 17.3242C80.2656 19.1055 80.1172 20.8828 79.8203 22.6562C79.5312 24.4219 79.125 26.1484 78.6016 27.8359C78.0781 29.5156 77.457 31.1328 76.7383 32.6875C76.0195 34.2422 75.2305 35.6914 74.3711 37.0352C73.5117 38.3867 72.6016 39.6172 71.6406 40.7266C70.6875 41.8359 69.7109 42.7852 68.7109 43.5742C67.7109 44.3711 66.7031 44.9844 65.6875 45.4141C64.6797 45.8516 63.6992 46.0703 62.7461 46.0703C62.0039 46.0703 61.4727 45.9375 61.1523 45.6719C60.8398 45.4062 60.6836 45.043 60.6836 44.582C60.6836 44.418 60.6992 44.2695 60.7305 44.1367C60.7617 44.0039 60.8281 43.8672 60.9297 43.7266C62.2969 43.0234 63.5469 42.1328 64.6797 41.0547C65.8203 39.9766 66.8438 38.7695 67.75 37.4336C68.6641 36.0977 69.4609 34.6602 70.1406 33.1211C70.8281 31.5742 71.3984 29.9844 71.8516 28.3516C72.3047 26.7109 72.6445 25.0547 72.8711 23.3828C73.0977 21.7109 73.2109 20.0742 73.2109 18.4727Z"/>
<path d="M85.832 23.0312C85.9727 22.25 86.1289 21.3984 86.3008 20.4766C86.4805 19.5469 86.6523 18.6016 86.8164 17.6406C86.9883 16.6797 87.1523 15.7266 87.3086 14.7812C87.4648 13.8359 87.5977 12.9531 87.707 12.1328C87.918 10.5156 88.2773 9.06641 88.7852 7.78516C89.3008 6.50391 89.918 5.41797 90.6367 4.52734C91.3555 3.63672 92.1523 2.95703 93.0273 2.48828C93.9102 2.01172 94.8242 1.77344 95.7695 1.77344C96.2852 1.77344 96.75 1.83594 97.1641 1.96094C97.5781 2.08594 97.9297 2.28516 98.2188 2.55859C98.5078 2.83203 98.7305 3.1875 98.8867 3.625C99.043 4.05469 99.1211 4.57422 99.1211 5.18359C99.1211 5.53516 99.0898 5.90234 99.0273 6.28516C98.9727 6.66016 98.875 7.07422 98.7344 7.52734C98.6016 7.98047 98.4219 8.48828 98.1953 9.05078C97.9688 9.60547 97.6875 10.2422 97.3516 10.9609C97.0156 11.6719 96.6172 12.4766 96.1562 13.375C95.6953 14.2734 95.1641 15.2852 94.5625 16.4102C94.3984 16.9883 94.2227 17.6211 94.0352 18.3086C93.8477 18.9883 93.6562 19.6953 93.4609 20.4297C93.2656 21.1562 93.0703 21.8906 92.875 22.6328C92.6797 23.375 92.4883 24.1016 92.3008 24.8125C92.1211 25.5156 91.9531 26.1875 91.7969 26.8281C91.6406 27.4609 91.5039 28.0352 91.3867 28.5508C91.2695 29.0586 91.1758 29.4922 91.1055 29.8516C91.043 30.2109 91.0117 30.4648 91.0117 30.6133C91.0117 30.8789 91.0703 31.0664 91.1875 31.1758C91.3047 31.2852 91.4727 31.3398 91.6914 31.3398C92.0664 31.3398 92.5117 31.1797 93.0273 30.8594C93.5508 30.5312 94.1133 30.0742 94.7148 29.4883C95.3164 28.9023 95.9414 28.2031 96.5898 27.3906C97.2383 26.5781 97.875 25.6875 98.5 24.7188C98.7266 24.7188 98.9492 24.7578 99.168 24.8359C99.3867 24.9141 99.582 25.0273 99.7539 25.1758C99.9258 25.3164 100.062 25.4883 100.164 25.6914C100.273 25.8867 100.328 26.1055 100.328 26.3477C100.328 26.8008 100.211 27.3086 99.9766 27.8711C99.75 28.4336 99.4336 29.0195 99.0273 29.6289C98.6289 30.2383 98.1562 30.8594 97.6094 31.4922C97.0625 32.1172 96.4688 32.7227 95.8281 33.3086C95.1953 33.8867 94.5273 34.4336 93.8242 34.9492C93.1289 35.4648 92.4258 35.9141 91.7148 36.2969C91.0117 36.6797 90.3164 36.9805 89.6289 37.1992C88.9492 37.418 88.3086 37.5273 87.707 37.5273C87.0117 37.5273 86.4219 37.4492 85.9375 37.293C85.4531 37.1445 85.0586 36.918 84.7539 36.6133C84.457 36.3086 84.2422 35.9258 84.1094 35.4648C83.9766 35.0039 83.9102 34.4609 83.9102 33.8359C83.9102 33.2969 83.9492 32.7031 84.0273 32.0547C84.1055 31.4062 84.2031 30.7383 84.3203 30.0508C84.4453 29.3633 84.582 28.6758 84.7305 27.9883C84.8789 27.293 85.0234 26.6367 85.1641 26.0195C85.3047 25.3945 85.4336 24.8242 85.5508 24.3086C85.6758 23.793 85.7695 23.3672 85.832 23.0312Z"/>
<path d="M104.688 8.34766C104.688 7.37109 104.738 6.54688 104.84 5.875C104.941 5.20312 105.09 4.66016 105.285 4.24609C105.48 3.83203 105.723 3.53125 106.012 3.34375C106.309 3.15625 106.648 3.0625 107.031 3.0625C107.352 3.0625 107.672 3.11719 107.992 3.22656C108.32 3.33594 108.637 3.48438 108.941 3.67188C109.246 3.85156 109.527 4.0625 109.785 4.30469C110.051 4.54688 110.281 4.80469 110.477 5.07812C110.672 5.34375 110.824 5.61328 110.934 5.88672C111.051 6.16016 111.109 6.42188 111.109 6.67188C111.109 6.96094 111.051 7.29688 110.934 7.67969C110.816 8.05469 110.629 8.48438 110.371 8.96875C110.113 9.45312 109.781 9.99219 109.375 10.5859C108.969 11.1719 108.477 11.8164 107.898 12.5195C107.43 12.5195 106.996 12.4336 106.598 12.2617C106.207 12.082 105.871 11.8203 105.59 11.4766C105.309 11.125 105.086 10.6914 104.922 10.1758C104.766 9.65234 104.688 9.04297 104.688 8.34766ZM98.4883 26.582C98.293 26.1289 98.1641 25.6406 98.1016 25.1172C98.0391 24.5938 98.0078 24.0898 98.0078 23.6055C98.0078 23.1367 98.1172 22.6172 98.3359 22.0469C98.5547 21.4688 98.8516 20.8906 99.2266 20.3125C99.6016 19.7266 100.031 19.1602 100.516 18.6133C101.008 18.0664 101.52 17.582 102.051 17.1602C102.59 16.7305 103.137 16.3867 103.691 16.1289C104.246 15.8711 104.77 15.7422 105.262 15.7422C105.816 15.7422 106.25 15.8164 106.562 15.9648C106.883 16.1055 107.125 16.3086 107.289 16.5742C107.453 16.8398 107.555 17.1641 107.594 17.5469C107.641 17.9219 107.664 18.3438 107.664 18.8125C107.664 19.125 107.617 19.4805 107.523 19.8789C107.43 20.2773 107.305 20.707 107.148 21.168C106.992 21.6211 106.812 22.0938 106.609 22.5859C106.406 23.0781 106.195 23.5781 105.977 24.0859C105.641 24.9141 105.348 25.6406 105.098 26.2656C104.855 26.8828 104.652 27.4258 104.488 27.8945C104.324 28.3633 104.203 28.7695 104.125 29.1133C104.047 29.457 104.008 29.7656 104.008 30.0391C104.008 30.3047 104.066 30.4922 104.184 30.6016C104.301 30.7109 104.469 30.7656 104.688 30.7656C104.852 30.7656 105.109 30.6641 105.461 30.4609C105.812 30.25 106.242 29.9062 106.75 29.4297C107.266 28.9531 107.855 28.3281 108.52 27.5547C109.191 26.7734 109.93 25.8125 110.734 24.6719C110.961 24.6719 111.184 24.7188 111.402 24.8125C111.629 24.8984 111.828 25.0195 112 25.1758C112.18 25.332 112.324 25.5156 112.434 25.7266C112.543 25.9297 112.598 26.1523 112.598 26.3945C112.598 26.7695 112.484 27.2188 112.258 27.7422C112.039 28.2578 111.73 28.8125 111.332 29.4062C110.941 30 110.48 30.6133 109.949 31.2461C109.418 31.8789 108.844 32.4961 108.227 33.0977C107.617 33.6992 106.977 34.2695 106.305 34.8086C105.633 35.3398 104.961 35.8086 104.289 36.2148C103.625 36.6211 102.973 36.9414 102.332 37.1758C101.699 37.4102 101.105 37.5273 100.551 37.5273C99.8477 37.5273 99.2539 37.4492 98.7695 37.293C98.2852 37.1367 97.8945 36.8984 97.5977 36.5781C97.3008 36.2578 97.0859 35.8555 96.9531 35.3711C96.8281 34.8789 96.7656 34.3008 96.7656 33.6367C96.7656 33.1055 96.7969 32.582 96.8594 32.0664C96.9297 31.543 97.0352 31 97.1758 30.4375C97.3164 29.875 97.4961 29.2773 97.7148 28.6445C97.9336 28.0117 98.1914 27.3242 98.4883 26.582Z"/>
<path d="M127.094 23.2773C128.078 21.8008 128.984 20.5547 129.812 19.5391C130.641 18.5234 131.41 17.7031 132.121 17.0781C132.832 16.4531 133.488 16.0039 134.09 15.7305C134.691 15.4492 135.254 15.3086 135.777 15.3086C136.332 15.3086 136.812 15.4062 137.219 15.6016C137.633 15.7969 137.973 16.0586 138.238 16.3867C138.512 16.707 138.715 17.082 138.848 17.5117C138.98 17.9414 139.047 18.3906 139.047 18.8594C139.047 19.4844 138.938 20.2109 138.719 21.0391C138.508 21.8672 138.184 22.7891 137.746 23.8047C137.605 24.1562 137.438 24.5586 137.242 25.0117C137.047 25.457 136.848 25.9258 136.645 26.418C136.441 26.9023 136.238 27.3945 136.035 27.8945C135.832 28.3867 135.652 28.8516 135.496 29.2891C135.34 29.7266 135.211 30.1211 135.109 30.4727C135.016 30.8164 134.969 31.0898 134.969 31.293C134.969 31.5586 135.023 31.7461 135.133 31.8555C135.25 31.957 135.418 32.0078 135.637 32.0078C135.855 32.0078 136.199 31.8555 136.668 31.5508C137.145 31.2383 137.703 30.7812 138.344 30.1797C138.992 29.5703 139.703 28.8164 140.477 27.918C141.258 27.0195 142.062 25.9844 142.891 24.8125C143.117 24.8125 143.34 24.8516 143.559 24.9297C143.785 25 143.984 25.1055 144.156 25.2461C144.336 25.3789 144.48 25.543 144.59 25.7383C144.699 25.9336 144.754 26.1523 144.754 26.3945C144.754 26.7695 144.629 27.2266 144.379 27.7656C144.137 28.3047 143.801 28.8828 143.371 29.5C142.941 30.1172 142.438 30.7617 141.859 31.4336C141.289 32.0977 140.672 32.75 140.008 33.3906C139.344 34.0234 138.652 34.625 137.934 35.1953C137.223 35.7656 136.516 36.2656 135.812 36.6953C135.109 37.125 134.426 37.4648 133.762 37.7148C133.105 37.9727 132.5 38.1016 131.945 38.1016C131.234 38.1016 130.637 38.0234 130.152 37.8672C129.668 37.7109 129.277 37.4727 128.98 37.1523C128.684 36.832 128.469 36.4297 128.336 35.9453C128.211 35.4531 128.148 34.8789 128.148 34.2227C128.148 33.6914 128.219 33.1016 128.359 32.4531C128.5 31.8047 128.676 31.1445 128.887 30.4727C129.098 29.793 129.324 29.1211 129.566 28.457C129.809 27.793 130.035 27.1836 130.246 26.6289C130.457 26.0664 130.633 25.5781 130.773 25.1641C130.914 24.75 130.984 24.457 130.984 24.2852C130.984 23.9023 130.793 23.7109 130.41 23.7109C130.301 23.7109 130.117 23.7773 129.859 23.9102C129.609 24.043 129.305 24.2539 128.945 24.543C128.594 24.8242 128.203 25.1953 127.773 25.6562C127.344 26.1094 126.895 26.6602 126.426 27.3086C126.254 28.2305 126.098 29.1016 125.957 29.9219C125.816 30.7344 125.688 31.5273 125.57 32.3008C125.461 33.0664 125.367 33.832 125.289 34.5977C125.219 35.3555 125.164 36.1406 125.125 36.9531C125.008 37.0703 124.887 37.1758 124.762 37.2695C124.645 37.3633 124.512 37.4375 124.363 37.4922C124.215 37.5547 124.047 37.6016 123.859 37.6328C123.672 37.6641 123.453 37.6797 123.203 37.6797C122.531 37.6797 121.918 37.6055 121.363 37.457C120.809 37.3164 120.332 37.0859 119.934 36.7656C119.535 36.4453 119.223 36.0352 118.996 35.5352C118.777 35.0273 118.66 34.4141 118.645 33.6953C118.645 33.2344 118.688 32.7227 118.773 32.1602C118.867 31.5898 118.988 31 119.137 30.3906C119.285 29.7812 119.457 29.1641 119.652 28.5391C119.855 27.9062 120.062 27.3047 120.273 26.7344C120.367 26.4688 120.461 26.207 120.555 25.9492C120.656 25.6836 120.746 25.4336 120.824 25.1992C120.902 24.9648 120.965 24.75 121.012 24.5547C121.066 24.3594 121.094 24.2031 121.094 24.0859C121.094 23.875 121.047 23.7266 120.953 23.6406C120.859 23.5547 120.715 23.5117 120.52 23.5117C120.41 23.5117 120.254 23.5625 120.051 23.6641C119.855 23.7656 119.613 23.9453 119.324 24.2031C119.043 24.4531 118.711 24.793 118.328 25.2227C117.953 25.6445 117.531 26.1797 117.062 26.8281C116.898 27.75 116.746 28.6211 116.605 29.4414C116.473 30.2539 116.352 31.0469 116.242 31.8203C116.141 32.5859 116.055 33.3516 115.984 34.1172C115.914 34.875 115.859 35.6602 115.82 36.4727C115.703 36.5898 115.586 36.6914 115.469 36.7773C115.359 36.8555 115.234 36.918 115.094 36.9648C114.953 37.0117 114.785 37.043 114.59 37.0586C114.402 37.082 114.172 37.0938 113.898 37.0938C113.227 37.0938 112.605 36.9492 112.035 36.6602C111.465 36.3633 110.969 35.9648 110.547 35.4648C110.133 34.9648 109.805 34.3906 109.562 33.7422C109.328 33.0859 109.203 32.3984 109.188 31.6797C109.188 31.2188 109.219 30.7266 109.281 30.2031C109.344 29.6719 109.434 29.125 109.551 28.5625C109.668 27.9922 109.809 27.418 109.973 26.8398C110.145 26.2617 110.332 25.6953 110.535 25.1406C110.34 24.6875 110.211 24.1992 110.148 23.6758C110.086 23.1523 110.055 22.6523 110.055 22.1758C110.055 21.6992 110.152 21.2148 110.348 20.7227C110.551 20.2227 110.82 19.7383 111.156 19.2695C111.5 18.793 111.898 18.3438 112.352 17.9219C112.805 17.5 113.281 17.1328 113.781 16.8203C114.289 16.5 114.809 16.25 115.34 16.0703C115.871 15.8828 116.383 15.7891 116.875 15.7891C117.57 15.7891 118.086 15.9453 118.422 16.2578C118.766 16.5625 118.938 17.0781 118.938 17.8047C118.938 18.1016 118.914 18.4336 118.867 18.8008C118.82 19.1602 118.738 19.5625 118.621 20.0078C118.512 20.4531 118.359 20.9453 118.164 21.4844C117.977 22.0156 117.738 22.5977 117.449 23.2305C118.324 21.7148 119.133 20.4766 119.875 19.5156C120.625 18.5547 121.324 17.7969 121.973 17.2422C122.629 16.6875 123.242 16.3086 123.812 16.1055C124.391 15.8945 124.941 15.7891 125.465 15.7891C125.918 15.7891 126.32 15.8633 126.672 16.0117C127.023 16.1523 127.316 16.3516 127.551 16.6094C127.793 16.8594 127.977 17.1562 128.102 17.5C128.227 17.8438 128.289 18.2148 128.289 18.6133C128.289 18.9258 128.281 19.2383 128.266 19.5508C128.25 19.8555 128.203 20.1875 128.125 20.5469C128.047 20.9062 127.926 21.3086 127.762 21.7539C127.605 22.1914 127.383 22.6992 127.094 23.2773Z"/>
<path d="M149.031 8.34766C149.031 7.37109 149.082 6.54688 149.184 5.875C149.285 5.20312 149.434 4.66016 149.629 4.24609C149.824 3.83203 150.066 3.53125 150.355 3.34375C150.652 3.15625 150.992 3.0625 151.375 3.0625C151.695 3.0625 152.016 3.11719 152.336 3.22656C152.664 3.33594 152.98 3.48438 153.285 3.67188C153.59 3.85156 153.871 4.0625 154.129 4.30469C154.395 4.54688 154.625 4.80469 154.82 5.07812C155.016 5.34375 155.168 5.61328 155.277 5.88672C155.395 6.16016 155.453 6.42188 155.453 6.67188C155.453 6.96094 155.395 7.29688 155.277 7.67969C155.16 8.05469 154.973 8.48438 154.715 8.96875C154.457 9.45312 154.125 9.99219 153.719 10.5859C153.312 11.1719 152.82 11.8164 152.242 12.5195C151.773 12.5195 151.34 12.4336 150.941 12.2617C150.551 12.082 150.215 11.8203 149.934 11.4766C149.652 11.125 149.43 10.6914 149.266 10.1758C149.109 9.65234 149.031 9.04297 149.031 8.34766ZM142.832 26.582C142.637 26.1289 142.508 25.6406 142.445 25.1172C142.383 24.5938 142.352 24.0898 142.352 23.6055C142.352 23.1367 142.461 22.6172 142.68 22.0469C142.898 21.4688 143.195 20.8906 143.57 20.3125C143.945 19.7266 144.375 19.1602 144.859 18.6133C145.352 18.0664 145.863 17.582 146.395 17.1602C146.934 16.7305 147.48 16.3867 148.035 16.1289C148.59 15.8711 149.113 15.7422 149.605 15.7422C150.16 15.7422 150.594 15.8164 150.906 15.9648C151.227 16.1055 151.469 16.3086 151.633 16.5742C151.797 16.8398 151.898 17.1641 151.938 17.5469C151.984 17.9219 152.008 18.3438 152.008 18.8125C152.008 19.125 151.961 19.4805 151.867 19.8789C151.773 20.2773 151.648 20.707 151.492 21.168C151.336 21.6211 151.156 22.0938 150.953 22.5859C150.75 23.0781 150.539 23.5781 150.32 24.0859C149.984 24.9141 149.691 25.6406 149.441 26.2656C149.199 26.8828 148.996 27.4258 148.832 27.8945C148.668 28.3633 148.547 28.7695 148.469 29.1133C148.391 29.457 148.352 29.7656 148.352 30.0391C148.352 30.3047 148.41 30.4922 148.527 30.6016C148.645 30.7109 148.812 30.7656 149.031 30.7656C149.195 30.7656 149.453 30.6641 149.805 30.4609C150.156 30.25 150.586 29.9062 151.094 29.4297C151.609 28.9531 152.199 28.3281 152.863 27.5547C153.535 26.7734 154.273 25.8125 155.078 24.6719C155.305 24.6719 155.527 24.7188 155.746 24.8125C155.973 24.8984 156.172 25.0195 156.344 25.1758C156.523 25.332 156.668 25.5156 156.777 25.7266C156.887 25.9297 156.941 26.1523 156.941 26.3945C156.941 26.7695 156.828 27.2188 156.602 27.7422C156.383 28.2578 156.074 28.8125 155.676 29.4062C155.285 30 154.824 30.6133 154.293 31.2461C153.762 31.8789 153.188 32.4961 152.57 33.0977C151.961 33.6992 151.32 34.2695 150.648 34.8086C149.977 35.3398 149.305 35.8086 148.633 36.2148C147.969 36.6211 147.316 36.9414 146.676 37.1758C146.043 37.4102 145.449 37.5273 144.895 37.5273C144.191 37.5273 143.598 37.4492 143.113 37.293C142.629 37.1367 142.238 36.8984 141.941 36.5781C141.645 36.2578 141.43 35.8555 141.297 35.3711C141.172 34.8789 141.109 34.3008 141.109 33.6367C141.109 33.1055 141.141 32.582 141.203 32.0664C141.273 31.543 141.379 31 141.52 30.4375C141.66 29.875 141.84 29.2773 142.059 28.6445C142.277 28.0117 142.535 27.3242 142.832 26.582Z"/>
<path d="M153.777 31.3867C153.777 31.0352 153.812 30.582 153.883 30.0273C153.953 29.4727 154.074 28.7773 154.246 27.9414C154.418 27.1055 154.652 26.1172 154.949 24.9766C155.246 23.8281 155.621 22.4922 156.074 20.9688C155.832 20.9453 155.602 20.918 155.383 20.8867C155.172 20.8477 154.984 20.7891 154.82 20.7109C154.664 20.625 154.539 20.5078 154.445 20.3594C154.352 20.2031 154.305 19.9922 154.305 19.7266C154.305 19.3516 154.367 18.9961 154.492 18.6602C154.625 18.3164 154.82 18.0117 155.078 17.7461C155.336 17.4805 155.652 17.2656 156.027 17.1016C156.402 16.9375 156.836 16.8516 157.328 16.8438C157.344 16.5938 157.355 16.3516 157.363 16.1172C157.379 15.875 157.395 15.6211 157.41 15.3555C157.434 15.082 157.461 14.7812 157.492 14.4531C157.523 14.125 157.562 13.7383 157.609 13.293C157.719 12.2383 157.953 11.2656 158.312 10.375C158.68 9.48438 159.141 8.71875 159.695 8.07812C160.25 7.4375 160.883 6.9375 161.594 6.57812C162.312 6.21875 163.082 6.03906 163.902 6.03906C164.457 6.03906 164.934 6.08984 165.332 6.19141C165.738 6.29297 166.07 6.45703 166.328 6.68359C166.594 6.91016 166.789 7.20312 166.914 7.5625C167.047 7.92188 167.113 8.35938 167.113 8.875C167.113 9.125 167.094 9.37109 167.055 9.61328C167.023 9.85547 166.961 10.1211 166.867 10.4102C166.781 10.6992 166.66 11.0273 166.504 11.3945C166.355 11.7539 166.164 12.1797 165.93 12.6719C165.703 13.1562 165.43 13.7188 165.109 14.3594C164.789 15 164.418 15.7461 163.996 16.5977C164.371 16.582 164.766 16.5664 165.18 16.5508C165.602 16.5273 166.004 16.5 166.387 16.4688C166.77 16.4375 167.113 16.4062 167.418 16.375C167.73 16.3359 167.965 16.3008 168.121 16.2695C168.27 16.3789 168.398 16.5117 168.508 16.668C168.625 16.8242 168.723 16.9922 168.801 17.1719C168.879 17.3516 168.938 17.5391 168.977 17.7344C169.016 17.9219 169.035 18.1055 169.035 18.2852C169.035 18.7383 168.965 19.1602 168.824 19.5508C168.684 19.9414 168.488 20.2812 168.238 20.5703C167.988 20.8594 167.695 21.0859 167.359 21.25C167.023 21.4141 166.656 21.4961 166.258 21.4961C165.977 21.4961 165.699 21.4922 165.426 21.4844C165.16 21.4766 164.887 21.4648 164.605 21.4492C164.324 21.4258 164.031 21.3945 163.727 21.3555C163.422 21.3164 163.098 21.2695 162.754 21.2148C162.426 22.5352 162.152 23.6953 161.934 24.6953C161.723 25.6953 161.551 26.5508 161.418 27.2617C161.293 27.9727 161.203 28.5469 161.148 28.9844C161.094 29.4141 161.066 29.7188 161.066 29.8984C161.066 30.4688 161.156 30.8906 161.336 31.1641C161.523 31.4375 161.867 31.5742 162.367 31.5742C162.859 31.5742 163.426 31.4297 164.066 31.1406C164.715 30.8516 165.41 30.4219 166.152 29.8516C166.895 29.2734 167.668 28.5547 168.473 27.6953C169.277 26.8281 170.09 25.8203 170.91 24.6719C171.137 24.6719 171.363 24.7109 171.59 24.7891C171.824 24.8672 172.031 24.9805 172.211 25.1289C172.398 25.2695 172.547 25.4414 172.656 25.6445C172.773 25.8398 172.832 26.0586 172.832 26.3008C172.832 26.6523 172.723 27.0859 172.504 27.6016C172.285 28.1172 171.98 28.6758 171.59 29.2773C171.207 29.8789 170.746 30.5078 170.207 31.1641C169.676 31.8125 169.094 32.4492 168.461 33.0742C167.836 33.6992 167.168 34.293 166.457 34.8555C165.754 35.418 165.035 35.9141 164.301 36.3438C163.574 36.7656 162.84 37.1016 162.098 37.3516C161.363 37.6016 160.652 37.7266 159.965 37.7266C159.043 37.7266 158.199 37.6016 157.434 37.3516C156.676 37.1094 156.023 36.7305 155.477 36.2148C154.938 35.6992 154.52 35.043 154.223 34.2461C153.926 33.4414 153.777 32.4883 153.777 31.3867Z"/>
<path d="M179.219 21.2148C179.219 20.707 179.129 20.3164 178.949 20.043C178.777 19.7617 178.547 19.6211 178.258 19.6211C178.094 19.6211 177.895 19.7266 177.66 19.9375C177.434 20.1406 177.207 20.4492 176.98 20.8633C176.754 21.2773 176.547 21.7969 176.359 22.4219C176.18 23.0469 176.047 23.7773 175.961 24.6133C176.633 24.4961 177.18 24.3203 177.602 24.0859C178.023 23.8438 178.355 23.5703 178.598 23.2656C178.84 22.9609 179.004 22.6328 179.09 22.2812C179.176 21.9297 179.219 21.5742 179.219 21.2148ZM175.762 37.3398C174.59 37.3398 173.57 37.1602 172.703 36.8008C171.844 36.4414 171.129 35.918 170.559 35.2305C169.996 34.5352 169.578 33.6875 169.305 32.6875C169.031 31.6797 168.895 30.5273 168.895 29.2305C168.895 28.0195 169.047 26.8203 169.352 25.6328C169.656 24.4375 170.07 23.2969 170.594 22.2109C171.117 21.125 171.727 20.1172 172.422 19.1875C173.125 18.2578 173.867 17.4531 174.648 16.7734C175.43 16.0859 176.23 15.5508 177.051 15.168C177.879 14.7773 178.684 14.582 179.465 14.582C181.121 14.582 182.391 14.9883 183.273 15.8008C184.156 16.6055 184.598 17.8477 184.598 19.5273C184.598 20.5352 184.441 21.4844 184.129 22.375C183.816 23.2578 183.305 24.0703 182.594 24.8125C181.891 25.5469 180.969 26.1992 179.828 26.7695C178.695 27.332 177.309 27.8008 175.668 28.1758C175.668 28.7148 175.699 29.1953 175.762 29.6172C175.832 30.0312 175.949 30.3789 176.113 30.6602C176.285 30.9414 176.52 31.1562 176.816 31.3047C177.121 31.4531 177.508 31.5273 177.977 31.5273C178.789 31.5273 179.648 31.3633 180.555 31.0352C181.469 30.6992 182.375 30.2266 183.273 29.6172C184.18 29.0078 185.055 28.2773 185.898 27.4258C186.75 26.5664 187.516 25.6133 188.195 24.5664C188.484 24.5742 188.742 24.6289 188.969 24.7305C189.195 24.8242 189.387 24.9453 189.543 25.0938C189.699 25.2344 189.816 25.3984 189.895 25.5859C189.98 25.7734 190.023 25.9609 190.023 26.1484C190.023 26.5938 189.902 27.0977 189.66 27.6602C189.426 28.2148 189.094 28.7969 188.664 29.4062C188.242 30.0078 187.738 30.625 187.152 31.2578C186.566 31.8828 185.926 32.4922 185.23 33.0859C184.535 33.6719 183.797 34.2227 183.016 34.7383C182.234 35.2539 181.438 35.707 180.625 36.0977C179.812 36.4805 178.992 36.7812 178.164 37C177.344 37.2266 176.543 37.3398 175.762 37.3398Z"/>
<path d="M186.391 29.5117C186.391 28.3398 186.539 27.1836 186.836 26.043C187.133 24.9023 187.531 23.8164 188.031 22.7852C188.539 21.7539 189.117 20.8008 189.766 19.9258C190.422 19.043 191.105 18.2812 191.816 17.6406C192.535 17 193.258 16.5 193.984 16.1406C194.711 15.7734 195.395 15.5898 196.035 15.5898C196.785 15.5898 197.34 15.7773 197.699 16.1523C198.066 16.5273 198.25 17.0312 198.25 17.6641C198.25 17.7578 198.246 17.8516 198.238 17.9453C198.238 18.0391 198.223 18.1367 198.191 18.2383C197.605 18.6133 197.074 19.0625 196.598 19.5859C196.121 20.1016 195.695 20.6641 195.32 21.2734C194.953 21.875 194.633 22.5117 194.359 23.1836C194.086 23.8477 193.859 24.5156 193.68 25.1875C193.5 25.8516 193.367 26.5078 193.281 27.1562C193.195 27.8047 193.152 28.4141 193.152 28.9844C193.152 29.3906 193.18 29.7305 193.234 30.0039C193.297 30.2695 193.387 30.4844 193.504 30.6484C193.629 30.8125 193.781 30.9297 193.961 31C194.141 31.0625 194.352 31.0938 194.594 31.0938C194.93 31.0938 195.285 30.8984 195.66 30.5078C196.035 30.1094 196.406 29.5625 196.773 28.8672C197.141 28.1641 197.488 27.3359 197.816 26.3828C198.152 25.4219 198.445 24.3789 198.695 23.2539C198.953 22.1211 199.156 20.9258 199.305 19.668C199.461 18.4102 199.539 17.1328 199.539 15.8359C199.539 14.4453 199.355 13.2227 198.988 12.168C198.629 11.1133 198.117 10.2266 197.453 9.50781C196.797 8.78906 196.004 8.23438 195.074 7.84375C194.152 7.44531 193.129 7.21094 192.004 7.14062C191.785 6.95312 191.625 6.71484 191.523 6.42578C191.43 6.13672 191.383 5.84766 191.383 5.55859C191.383 4.99609 191.504 4.44141 191.746 3.89453C191.996 3.34766 192.371 2.86328 192.871 2.44141C193.379 2.01172 194.023 1.66406 194.805 1.39844C195.586 1.13281 196.508 1 197.57 1C198.93 1 200.164 1.27344 201.273 1.82031C202.383 2.36719 203.332 3.14844 204.121 4.16406C204.91 5.17969 205.52 6.41406 205.949 7.86719C206.379 9.32031 206.594 10.9531 206.594 12.7656C206.594 15.25 206.391 17.5859 205.984 19.7734C205.586 21.9531 205.043 23.9531 204.355 25.7734C203.668 27.5938 202.863 29.2227 201.941 30.6602C201.027 32.0898 200.055 33.3008 199.023 34.293C198 35.2773 196.949 36.0312 195.871 36.5547C194.793 37.0781 193.746 37.3398 192.73 37.3398C191.77 37.3398 190.898 37.1836 190.117 36.8711C189.336 36.5508 188.668 36.0703 188.113 35.4297C187.566 34.7812 187.141 33.9688 186.836 32.9922C186.539 32.0078 186.391 30.8477 186.391 29.5117Z"/>
</mask>
<path d="M8.05469 32.3945C8.05469 34.9492 8.35156 37.1719 8.94531 39.0625C9.54688 40.9531 10.4531 42.4414 11.6641 43.5273C11.6562 43.9023 11.5625 44.25 11.3828 44.5703C11.2109 44.8906 10.9688 45.168 10.6562 45.4023C10.3438 45.6445 9.96484 45.832 9.51953 45.9648C9.08203 46.1055 8.59375 46.1758 8.05469 46.1758C7.5 46.1758 6.9375 46.0859 6.36719 45.9062C5.80469 45.7266 5.26172 45.4336 4.73828 45.0273C4.21484 44.6289 3.72656 44.1055 3.27344 43.457C2.82031 42.8086 2.42188 42.0156 2.07812 41.0781C1.74219 40.1484 1.47656 39.0586 1.28125 37.8086C1.09375 36.5664 1 35.1445 1 33.543C1 31.7617 1.14453 29.9883 1.43359 28.2227C1.73047 26.4492 2.14062 24.7227 2.66406 23.043C3.1875 21.3555 3.80859 19.7344 4.52734 18.1797C5.25391 16.625 6.04297 15.1758 6.89453 13.832C7.75391 12.4805 8.66406 11.25 9.625 10.1406C10.5859 9.03125 11.5664 8.08203 12.5664 7.29297C13.5664 6.49609 14.5703 5.88281 15.5781 5.45312C16.5859 5.01562 17.5664 4.79688 18.5195 4.79688C19.2617 4.79688 19.793 4.92969 20.1133 5.19531C20.4336 5.46094 20.5938 5.82422 20.5938 6.28516C20.5938 6.44922 20.5742 6.59766 20.5352 6.73047C20.5039 6.86328 20.4414 7 20.3477 7.14062C18.9805 7.84375 17.7266 8.73438 16.5859 9.8125C15.4453 10.8906 14.418 12.0977 13.5039 13.4336C12.5977 14.7695 11.8047 16.2109 11.125 17.7578C10.4453 19.2969 9.875 20.8867 9.41406 22.5273C8.96094 24.1602 8.62109 25.8125 8.39453 27.4844C8.16797 29.1562 8.05469 30.793 8.05469 32.3945Z" stroke="#E8B131" stroke-width="2" mask="url(#path-1-outside-1_262_39)"/>
<path d="M31.1758 15.4492C31.418 15.1367 31.7227 14.9062 32.0898 14.7578C32.4648 14.6094 32.832 14.5352 33.1914 14.5352C33.8633 14.5352 34.4805 14.6445 35.043 14.8633C35.6133 15.082 36.1055 15.375 36.5195 15.7422C36.9336 16.1016 37.2578 16.5156 37.4922 16.9844C37.7266 17.4531 37.8438 17.9336 37.8438 18.4258C37.8438 18.6445 37.8281 18.875 37.7969 19.1172C37.7734 19.3516 37.7266 19.6172 37.6562 19.9141C37.5938 20.2031 37.5039 20.5312 37.3867 20.8984C37.2695 21.2656 37.1211 21.6914 36.9414 22.1758C36.7773 22.6289 36.5859 23.125 36.3672 23.6641C36.1562 24.1953 35.9375 24.7383 35.7109 25.293C35.4844 25.8398 35.2617 26.3789 35.043 26.9102C34.832 27.4414 34.6406 27.9336 34.4688 28.3867C34.3047 28.832 34.1719 29.2227 34.0703 29.5586C33.9688 29.8945 33.918 30.1367 33.918 30.2852C33.918 30.5977 33.9805 30.8047 34.1055 30.9062C34.2305 31 34.3906 31.0469 34.5859 31.0469C34.8594 31.0469 35.207 30.9258 35.6289 30.6836C36.0508 30.4336 36.5352 30.0547 37.082 29.5469C37.6367 29.0391 38.2461 28.3945 38.9102 27.6133C39.582 26.8242 40.3008 25.8906 41.0664 24.8125C41.3164 24.8125 41.5586 24.8516 41.793 24.9297C42.0352 25 42.2461 25.1016 42.4258 25.2344C42.6133 25.3672 42.7617 25.5234 42.8711 25.7031C42.9805 25.8828 43.0352 26.082 43.0352 26.3008C43.0352 26.7305 42.8945 27.2383 42.6133 27.8242C42.3398 28.4023 41.9648 29.0195 41.4883 29.6758C41.0117 30.3242 40.457 30.9883 39.8242 31.668C39.1992 32.3398 38.5391 32.9805 37.8438 33.5898C37.2812 34.0898 36.7031 34.5586 36.1094 34.9961C35.5234 35.4258 34.9375 35.8008 34.3516 36.1211C33.7656 36.4414 33.1914 36.6914 32.6289 36.8711C32.0742 37.0508 31.543 37.1406 31.0352 37.1406C30.543 37.1406 30.1016 37.0938 29.7109 37C29.3203 36.9141 28.9844 36.7539 28.7031 36.5195C28.4297 36.2852 28.2188 35.9688 28.0703 35.5703C27.9297 35.1641 27.8594 34.6484 27.8594 34.0234C27.8594 33.6875 27.8828 33.3164 27.9297 32.9102C27.9844 32.4961 28.0586 32.0352 28.1523 31.5273C27.5742 32.6211 26.9648 33.5703 26.3242 34.375C25.6914 35.1719 25.0508 35.8359 24.4023 36.3672C23.7617 36.8906 23.1289 37.2773 22.5039 37.5273C21.8789 37.7852 21.2969 37.9141 20.7578 37.9141C20.0547 37.9141 19.4766 37.8125 19.0234 37.6094C18.5703 37.4141 18.2109 37.125 17.9453 36.7422C17.6875 36.3594 17.5078 35.8867 17.4062 35.3242C17.3047 34.7617 17.2539 34.1211 17.2539 33.4023C17.2539 33.043 17.293 32.6055 17.3711 32.0898C17.457 31.5742 17.582 31 17.7461 30.3672C17.9102 29.7344 18.1094 29.0586 18.3438 28.3398C18.5859 27.6211 18.8633 26.875 19.1758 26.1016C18.9102 25.5938 18.7383 25.0938 18.6602 24.6016C18.5898 24.1016 18.5547 23.6094 18.5547 23.125C18.5547 22.625 18.6719 22.0742 18.9062 21.4727C19.1484 20.8711 19.4688 20.2617 19.8672 19.6445C20.2734 19.0195 20.7422 18.418 21.2734 17.8398C21.8125 17.2539 22.375 16.7344 22.9609 16.2812C23.5547 15.8281 24.1562 15.4648 24.7656 15.1914C25.375 14.918 25.9609 14.7812 26.5234 14.7812C26.8984 14.7812 27.2266 14.8164 27.5078 14.8867C27.7969 14.9492 28.0352 15.0547 28.2227 15.2031C28.418 15.3516 28.5664 15.5508 28.668 15.8008C28.7695 16.043 28.8203 16.3438 28.8203 16.7031C28.8203 17.4766 28.5117 18.5664 27.8945 19.9727C27.2852 21.3789 26.3633 23.0859 25.1289 25.0938C24.8867 25.9688 24.6953 26.75 24.5547 27.4375C24.4219 28.1172 24.3555 28.6484 24.3555 29.0312C24.3555 29.4219 24.4297 29.7305 24.5781 29.957C24.7344 30.1758 24.9805 30.2852 25.3164 30.2852C25.5195 30.2852 25.7617 30.2188 26.043 30.0859C26.3242 29.9531 26.6172 29.7852 26.9219 29.582C27.2266 29.3711 27.5273 29.1367 27.8242 28.8789C28.1211 28.6211 28.3906 28.3672 28.6328 28.1172C29.0391 26.8203 29.3867 25.625 29.6758 24.5312C29.9727 23.4375 30.2227 22.3906 30.4258 21.3906C30.6289 20.3828 30.7891 19.3984 30.9062 18.4375C31.0312 17.4766 31.1211 16.4805 31.1758 15.4492Z" stroke="#E8B131" stroke-width="2" mask="url(#path-1-outside-1_262_39)"/>
<path d="M40.7852 25.6211C40.5898 25.168 40.4609 24.6797 40.3984 24.1562C40.3359 23.6328 40.3047 23.1289 40.3047 22.6445C40.3047 22.1758 40.4141 21.6562 40.6328 21.0859C40.8516 20.5078 41.1445 19.9297 41.5117 19.3516C41.8867 18.7656 42.3164 18.1992 42.8008 17.6523C43.293 17.1055 43.8086 16.6211 44.3477 16.1992C44.8867 15.7695 45.4297 15.4258 45.9766 15.168C46.5312 14.9102 47.0547 14.7812 47.5469 14.7812C47.9609 14.7812 48.3008 14.8203 48.5664 14.8984C48.832 14.9688 49.0391 15.0859 49.1875 15.25C49.3438 15.4141 49.4531 15.625 49.5156 15.8828C49.5781 16.1328 49.6094 16.4375 49.6094 16.7969C49.6094 17.0938 49.5703 17.5117 49.4922 18.0508C49.4141 18.5898 49.2969 19.1797 49.1406 19.8203C48.9844 20.4609 48.7852 21.125 48.543 21.8125C48.3008 22.4922 48.0195 23.125 47.6992 23.7109C48.5742 22.1953 49.4297 20.918 50.2656 19.8789C51.1094 18.832 51.9141 17.9844 52.6797 17.3359C53.4453 16.6875 54.1602 16.2188 54.8242 15.9297C55.4961 15.6406 56.0938 15.4961 56.6172 15.4961C57.1719 15.4961 57.6562 15.582 58.0703 15.7539C58.4844 15.918 58.8281 16.1523 59.1016 16.457C59.3828 16.7539 59.5898 17.1055 59.7227 17.5117C59.8633 17.9102 59.9336 18.3438 59.9336 18.8125C59.9336 19.4531 59.8281 20.207 59.6172 21.0742C59.4062 21.9336 59.0469 22.9375 58.5391 24.0859C58.3984 24.4375 58.2383 24.8203 58.0586 25.2344C57.8867 25.6484 57.7109 26.0742 57.5312 26.5117C57.3594 26.9414 57.1875 27.3711 57.0156 27.8008C56.8516 28.2227 56.7031 28.625 56.5703 29.0078C56.4375 29.3828 56.332 29.7266 56.2539 30.0391C56.1758 30.3516 56.1367 30.6094 56.1367 30.8125C56.1367 31.0781 56.1953 31.2656 56.3125 31.375C56.4297 31.4766 56.5977 31.5273 56.8164 31.5273C57.0586 31.5273 57.418 31.3789 57.8945 31.082C58.3711 30.7773 58.918 30.3398 59.5352 29.7695C60.1602 29.1992 60.8359 28.4961 61.5625 27.6602C62.2969 26.8242 63.0352 25.875 63.7773 24.8125C64.0039 24.8125 64.2266 24.8516 64.4453 24.9297C64.6719 25 64.8711 25.1055 65.043 25.2461C65.2227 25.3789 65.3672 25.543 65.4766 25.7383C65.5859 25.9336 65.6406 26.1523 65.6406 26.3945C65.6406 26.7695 65.5195 27.2188 65.2773 27.7422C65.043 28.2578 64.7188 28.8125 64.3047 29.4062C63.8906 30 63.4023 30.6133 62.8398 31.2461C62.2773 31.8789 61.6719 32.4961 61.0234 33.0977C60.3828 33.6992 59.7109 34.2695 59.0078 34.8086C58.3125 35.3398 57.6211 35.8086 56.9336 36.2148C56.2461 36.6211 55.5742 36.9414 54.918 37.1758C54.2695 37.4102 53.668 37.5273 53.1133 37.5273C52.4102 37.5273 51.8164 37.4492 51.332 37.293C50.8477 37.1367 50.457 36.8984 50.1602 36.5781C49.8633 36.2578 49.6484 35.8555 49.5156 35.3711C49.3906 34.8789 49.3281 34.3008 49.3281 33.6367C49.3281 33.1055 49.3867 32.5391 49.5039 31.9375C49.6289 31.3359 49.7812 30.7305 49.9609 30.1211C50.1406 29.5039 50.3359 28.9023 50.5469 28.3164C50.7656 27.7227 50.9648 27.1797 51.1445 26.6875C51.3242 26.1875 51.4727 25.7539 51.5898 25.3867C51.7148 25.0195 51.7773 24.7461 51.7773 24.5664C51.7773 24.1836 51.5859 23.9922 51.2031 23.9922C51.0938 23.9922 50.918 24.043 50.6758 24.1445C50.4336 24.2461 50.1406 24.4258 49.7969 24.6836C49.4531 24.9336 49.0703 25.2734 48.6484 25.7031C48.2266 26.125 47.7812 26.6602 47.3125 27.3086C47.1406 28.2305 46.9922 29.0742 46.8672 29.8398C46.75 30.5977 46.6484 31.3281 46.5625 32.0312C46.4766 32.7344 46.4062 33.4414 46.3516 34.1523C46.2969 34.8555 46.25 35.6133 46.2109 36.4258C46.0938 36.543 45.9766 36.6445 45.8594 36.7305C45.75 36.8086 45.625 36.8711 45.4844 36.918C45.3438 36.9648 45.1758 36.9961 44.9805 37.0117C44.793 37.0352 44.5625 37.0469 44.2891 37.0469C43.6172 37.0469 42.9961 36.8984 42.4258 36.6016C41.8555 36.3047 41.3594 35.9102 40.9375 35.418C40.5234 34.918 40.1953 34.3398 39.9531 33.6836C39.7188 33.0273 39.5938 32.3398 39.5781 31.6211C39.5781 30.707 39.6758 29.7578 39.8711 28.7734C40.0664 27.7891 40.3711 26.7383 40.7852 25.6211Z" stroke="#E8B131" stroke-width="2" mask="url(#path-1-outside-1_262_39)"/>
<path d="M73.2109 18.4727C73.2109 17.1992 73.1367 16.0039 72.9883 14.8867C72.8398 13.7695 72.6133 12.7422 72.3086 11.8047C72.0117 10.8672 71.6367 10.0234 71.1836 9.27344C70.7383 8.52344 70.2148 7.87891 69.6133 7.33984C69.6289 6.96484 69.7227 6.61719 69.8945 6.29688C70.0664 5.97656 70.3086 5.69922 70.6211 5.46484C70.9336 5.23047 71.3086 5.04688 71.7461 4.91406C72.1836 4.77344 72.6719 4.70312 73.2109 4.70312C73.7734 4.70312 74.3359 4.79297 74.8984 4.97266C75.4688 5.15234 76.0156 5.44531 76.5391 5.85156C77.0625 6.25 77.5508 6.77344 78.0039 7.42188C78.457 8.0625 78.8516 8.85156 79.1875 9.78906C79.5234 10.7188 79.7852 11.8086 79.9727 13.0586C80.168 14.3008 80.2656 15.7227 80.2656 17.3242C80.2656 19.1055 80.1172 20.8828 79.8203 22.6562C79.5312 24.4219 79.125 26.1484 78.6016 27.8359C78.0781 29.5156 77.457 31.1328 76.7383 32.6875C76.0195 34.2422 75.2305 35.6914 74.3711 37.0352C73.5117 38.3867 72.6016 39.6172 71.6406 40.7266C70.6875 41.8359 69.7109 42.7852 68.7109 43.5742C67.7109 44.3711 66.7031 44.9844 65.6875 45.4141C64.6797 45.8516 63.6992 46.0703 62.7461 46.0703C62.0039 46.0703 61.4727 45.9375 61.1523 45.6719C60.8398 45.4062 60.6836 45.043 60.6836 44.582C60.6836 44.418 60.6992 44.2695 60.7305 44.1367C60.7617 44.0039 60.8281 43.8672 60.9297 43.7266C62.2969 43.0234 63.5469 42.1328 64.6797 41.0547C65.8203 39.9766 66.8438 38.7695 67.75 37.4336C68.6641 36.0977 69.4609 34.6602 70.1406 33.1211C70.8281 31.5742 71.3984 29.9844 71.8516 28.3516C72.3047 26.7109 72.6445 25.0547 72.8711 23.3828C73.0977 21.7109 73.2109 20.0742 73.2109 18.4727Z" stroke="#E8B131" stroke-width="2" mask="url(#path-1-outside-1_262_39)"/>
<path d="M85.832 23.0312C85.9727 22.25 86.1289 21.3984 86.3008 20.4766C86.4805 19.5469 86.6523 18.6016 86.8164 17.6406C86.9883 16.6797 87.1523 15.7266 87.3086 14.7812C87.4648 13.8359 87.5977 12.9531 87.707 12.1328C87.918 10.5156 88.2773 9.06641 88.7852 7.78516C89.3008 6.50391 89.918 5.41797 90.6367 4.52734C91.3555 3.63672 92.1523 2.95703 93.0273 2.48828C93.9102 2.01172 94.8242 1.77344 95.7695 1.77344C96.2852 1.77344 96.75 1.83594 97.1641 1.96094C97.5781 2.08594 97.9297 2.28516 98.2188 2.55859C98.5078 2.83203 98.7305 3.1875 98.8867 3.625C99.043 4.05469 99.1211 4.57422 99.1211 5.18359C99.1211 5.53516 99.0898 5.90234 99.0273 6.28516C98.9727 6.66016 98.875 7.07422 98.7344 7.52734C98.6016 7.98047 98.4219 8.48828 98.1953 9.05078C97.9688 9.60547 97.6875 10.2422 97.3516 10.9609C97.0156 11.6719 96.6172 12.4766 96.1562 13.375C95.6953 14.2734 95.1641 15.2852 94.5625 16.4102C94.3984 16.9883 94.2227 17.6211 94.0352 18.3086C93.8477 18.9883 93.6562 19.6953 93.4609 20.4297C93.2656 21.1562 93.0703 21.8906 92.875 22.6328C92.6797 23.375 92.4883 24.1016 92.3008 24.8125C92.1211 25.5156 91.9531 26.1875 91.7969 26.8281C91.6406 27.4609 91.5039 28.0352 91.3867 28.5508C91.2695 29.0586 91.1758 29.4922 91.1055 29.8516C91.043 30.2109 91.0117 30.4648 91.0117 30.6133C91.0117 30.8789 91.0703 31.0664 91.1875 31.1758C91.3047 31.2852 91.4727 31.3398 91.6914 31.3398C92.0664 31.3398 92.5117 31.1797 93.0273 30.8594C93.5508 30.5312 94.1133 30.0742 94.7148 29.4883C95.3164 28.9023 95.9414 28.2031 96.5898 27.3906C97.2383 26.5781 97.875 25.6875 98.5 24.7188C98.7266 24.7188 98.9492 24.7578 99.168 24.8359C99.3867 24.9141 99.582 25.0273 99.7539 25.1758C99.9258 25.3164 100.062 25.4883 100.164 25.6914C100.273 25.8867 100.328 26.1055 100.328 26.3477C100.328 26.8008 100.211 27.3086 99.9766 27.8711C99.75 28.4336 99.4336 29.0195 99.0273 29.6289C98.6289 30.2383 98.1562 30.8594 97.6094 31.4922C97.0625 32.1172 96.4688 32.7227 95.8281 33.3086C95.1953 33.8867 94.5273 34.4336 93.8242 34.9492C93.1289 35.4648 92.4258 35.9141 91.7148 36.2969C91.0117 36.6797 90.3164 36.9805 89.6289 37.1992C88.9492 37.418 88.3086 37.5273 87.707 37.5273C87.0117 37.5273 86.4219 37.4492 85.9375 37.293C85.4531 37.1445 85.0586 36.918 84.7539 36.6133C84.457 36.3086 84.2422 35.9258 84.1094 35.4648C83.9766 35.0039 83.9102 34.4609 83.9102 33.8359C83.9102 33.2969 83.9492 32.7031 84.0273 32.0547C84.1055 31.4062 84.2031 30.7383 84.3203 30.0508C84.4453 29.3633 84.582 28.6758 84.7305 27.9883C84.8789 27.293 85.0234 26.6367 85.1641 26.0195C85.3047 25.3945 85.4336 24.8242 85.5508 24.3086C85.6758 23.793 85.7695 23.3672 85.832 23.0312Z" stroke="#E8B131" stroke-width="2" mask="url(#path-1-outside-1_262_39)"/>
<path d="M104.688 8.34766C104.688 7.37109 104.738 6.54688 104.84 5.875C104.941 5.20312 105.09 4.66016 105.285 4.24609C105.48 3.83203 105.723 3.53125 106.012 3.34375C106.309 3.15625 106.648 3.0625 107.031 3.0625C107.352 3.0625 107.672 3.11719 107.992 3.22656C108.32 3.33594 108.637 3.48438 108.941 3.67188C109.246 3.85156 109.527 4.0625 109.785 4.30469C110.051 4.54688 110.281 4.80469 110.477 5.07812C110.672 5.34375 110.824 5.61328 110.934 5.88672C111.051 6.16016 111.109 6.42188 111.109 6.67188C111.109 6.96094 111.051 7.29688 110.934 7.67969C110.816 8.05469 110.629 8.48438 110.371 8.96875C110.113 9.45312 109.781 9.99219 109.375 10.5859C108.969 11.1719 108.477 11.8164 107.898 12.5195C107.43 12.5195 106.996 12.4336 106.598 12.2617C106.207 12.082 105.871 11.8203 105.59 11.4766C105.309 11.125 105.086 10.6914 104.922 10.1758C104.766 9.65234 104.688 9.04297 104.688 8.34766ZM98.4883 26.582C98.293 26.1289 98.1641 25.6406 98.1016 25.1172C98.0391 24.5938 98.0078 24.0898 98.0078 23.6055C98.0078 23.1367 98.1172 22.6172 98.3359 22.0469C98.5547 21.4688 98.8516 20.8906 99.2266 20.3125C99.6016 19.7266 100.031 19.1602 100.516 18.6133C101.008 18.0664 101.52 17.582 102.051 17.1602C102.59 16.7305 103.137 16.3867 103.691 16.1289C104.246 15.8711 104.77 15.7422 105.262 15.7422C105.816 15.7422 106.25 15.8164 106.562 15.9648C106.883 16.1055 107.125 16.3086 107.289 16.5742C107.453 16.8398 107.555 17.1641 107.594 17.5469C107.641 17.9219 107.664 18.3438 107.664 18.8125C107.664 19.125 107.617 19.4805 107.523 19.8789C107.43 20.2773 107.305 20.707 107.148 21.168C106.992 21.6211 106.812 22.0938 106.609 22.5859C106.406 23.0781 106.195 23.5781 105.977 24.0859C105.641 24.9141 105.348 25.6406 105.098 26.2656C104.855 26.8828 104.652 27.4258 104.488 27.8945C104.324 28.3633 104.203 28.7695 104.125 29.1133C104.047 29.457 104.008 29.7656 104.008 30.0391C104.008 30.3047 104.066 30.4922 104.184 30.6016C104.301 30.7109 104.469 30.7656 104.688 30.7656C104.852 30.7656 105.109 30.6641 105.461 30.4609C105.812 30.25 106.242 29.9062 106.75 29.4297C107.266 28.9531 107.855 28.3281 108.52 27.5547C109.191 26.7734 109.93 25.8125 110.734 24.6719C110.961 24.6719 111.184 24.7188 111.402 24.8125C111.629 24.8984 111.828 25.0195 112 25.1758C112.18 25.332 112.324 25.5156 112.434 25.7266C112.543 25.9297 112.598 26.1523 112.598 26.3945C112.598 26.7695 112.484 27.2188 112.258 27.7422C112.039 28.2578 111.73 28.8125 111.332 29.4062C110.941 30 110.48 30.6133 109.949 31.2461C109.418 31.8789 108.844 32.4961 108.227 33.0977C107.617 33.6992 106.977 34.2695 106.305 34.8086C105.633 35.3398 104.961 35.8086 104.289 36.2148C103.625 36.6211 102.973 36.9414 102.332 37.1758C101.699 37.4102 101.105 37.5273 100.551 37.5273C99.8477 37.5273 99.2539 37.4492 98.7695 37.293C98.2852 37.1367 97.8945 36.8984 97.5977 36.5781C97.3008 36.2578 97.0859 35.8555 96.9531 35.3711C96.8281 34.8789 96.7656 34.3008 96.7656 33.6367C96.7656 33.1055 96.7969 32.582 96.8594 32.0664C96.9297 31.543 97.0352 31 97.1758 30.4375C97.3164 29.875 97.4961 29.2773 97.7148 28.6445C97.9336 28.0117 98.1914 27.3242 98.4883 26.582Z" stroke="#E8B131" stroke-width="2" mask="url(#path-1-outside-1_262_39)"/>
<path d="M127.094 23.2773C128.078 21.8008 128.984 20.5547 129.812 19.5391C130.641 18.5234 131.41 17.7031 132.121 17.0781C132.832 16.4531 133.488 16.0039 134.09 15.7305C134.691 15.4492 135.254 15.3086 135.777 15.3086C136.332 15.3086 136.812 15.4062 137.219 15.6016C137.633 15.7969 137.973 16.0586 138.238 16.3867C138.512 16.707 138.715 17.082 138.848 17.5117C138.98 17.9414 139.047 18.3906 139.047 18.8594C139.047 19.4844 138.938 20.2109 138.719 21.0391C138.508 21.8672 138.184 22.7891 137.746 23.8047C137.605 24.1562 137.438 24.5586 137.242 25.0117C137.047 25.457 136.848 25.9258 136.645 26.418C136.441 26.9023 136.238 27.3945 136.035 27.8945C135.832 28.3867 135.652 28.8516 135.496 29.2891C135.34 29.7266 135.211 30.1211 135.109 30.4727C135.016 30.8164 134.969 31.0898 134.969 31.293C134.969 31.5586 135.023 31.7461 135.133 31.8555C135.25 31.957 135.418 32.0078 135.637 32.0078C135.855 32.0078 136.199 31.8555 136.668 31.5508C137.145 31.2383 137.703 30.7812 138.344 30.1797C138.992 29.5703 139.703 28.8164 140.477 27.918C141.258 27.0195 142.062 25.9844 142.891 24.8125C143.117 24.8125 143.34 24.8516 143.559 24.9297C143.785 25 143.984 25.1055 144.156 25.2461C144.336 25.3789 144.48 25.543 144.59 25.7383C144.699 25.9336 144.754 26.1523 144.754 26.3945C144.754 26.7695 144.629 27.2266 144.379 27.7656C144.137 28.3047 143.801 28.8828 143.371 29.5C142.941 30.1172 142.438 30.7617 141.859 31.4336C141.289 32.0977 140.672 32.75 140.008 33.3906C139.344 34.0234 138.652 34.625 137.934 35.1953C137.223 35.7656 136.516 36.2656 135.812 36.6953C135.109 37.125 134.426 37.4648 133.762 37.7148C133.105 37.9727 132.5 38.1016 131.945 38.1016C131.234 38.1016 130.637 38.0234 130.152 37.8672C129.668 37.7109 129.277 37.4727 128.98 37.1523C128.684 36.832 128.469 36.4297 128.336 35.9453C128.211 35.4531 128.148 34.8789 128.148 34.2227C128.148 33.6914 128.219 33.1016 128.359 32.4531C128.5 31.8047 128.676 31.1445 128.887 30.4727C129.098 29.793 129.324 29.1211 129.566 28.457C129.809 27.793 130.035 27.1836 130.246 26.6289C130.457 26.0664 130.633 25.5781 130.773 25.1641C130.914 24.75 130.984 24.457 130.984 24.2852C130.984 23.9023 130.793 23.7109 130.41 23.7109C130.301 23.7109 130.117 23.7773 129.859 23.9102C129.609 24.043 129.305 24.2539 128.945 24.543C128.594 24.8242 128.203 25.1953 127.773 25.6562C127.344 26.1094 126.895 26.6602 126.426 27.3086C126.254 28.2305 126.098 29.1016 125.957 29.9219C125.816 30.7344 125.688 31.5273 125.57 32.3008C125.461 33.0664 125.367 33.832 125.289 34.5977C125.219 35.3555 125.164 36.1406 125.125 36.9531C125.008 37.0703 124.887 37.1758 124.762 37.2695C124.645 37.3633 124.512 37.4375 124.363 37.4922C124.215 37.5547 124.047 37.6016 123.859 37.6328C123.672 37.6641 123.453 37.6797 123.203 37.6797C122.531 37.6797 121.918 37.6055 121.363 37.457C120.809 37.3164 120.332 37.0859 119.934 36.7656C119.535 36.4453 119.223 36.0352 118.996 35.5352C118.777 35.0273 118.66 34.4141 118.645 33.6953C118.645 33.2344 118.688 32.7227 118.773 32.1602C118.867 31.5898 118.988 31 119.137 30.3906C119.285 29.7812 119.457 29.1641 119.652 28.5391C119.855 27.9062 120.062 27.3047 120.273 26.7344C120.367 26.4688 120.461 26.207 120.555 25.9492C120.656 25.6836 120.746 25.4336 120.824 25.1992C120.902 24.9648 120.965 24.75 121.012 24.5547C121.066 24.3594 121.094 24.2031 121.094 24.0859C121.094 23.875 121.047 23.7266 120.953 23.6406C120.859 23.5547 120.715 23.5117 120.52 23.5117C120.41 23.5117 120.254 23.5625 120.051 23.6641C119.855 23.7656 119.613 23.9453 119.324 24.2031C119.043 24.4531 118.711 24.793 118.328 25.2227C117.953 25.6445 117.531 26.1797 117.062 26.8281C116.898 27.75 116.746 28.6211 116.605 29.4414C116.473 30.2539 116.352 31.0469 116.242 31.8203C116.141 32.5859 116.055 33.3516 115.984 34.1172C115.914 34.875 115.859 35.6602 115.82 36.4727C115.703 36.5898 115.586 36.6914 115.469 36.7773C115.359 36.8555 115.234 36.918 115.094 36.9648C114.953 37.0117 114.785 37.043 114.59 37.0586C114.402 37.082 114.172 37.0938 113.898 37.0938C113.227 37.0938 112.605 36.9492 112.035 36.6602C111.465 36.3633 110.969 35.9648 110.547 35.4648C110.133 34.9648 109.805 34.3906 109.562 33.7422C109.328 33.0859 109.203 32.3984 109.188 31.6797C109.188 31.2188 109.219 30.7266 109.281 30.2031C109.344 29.6719 109.434 29.125 109.551 28.5625C109.668 27.9922 109.809 27.418 109.973 26.8398C110.145 26.2617 110.332 25.6953 110.535 25.1406C110.34 24.6875 110.211 24.1992 110.148 23.6758C110.086 23.1523 110.055 22.6523 110.055 22.1758C110.055 21.6992 110.152 21.2148 110.348 20.7227C110.551 20.2227 110.82 19.7383 111.156 19.2695C111.5 18.793 111.898 18.3438 112.352 17.9219C112.805 17.5 113.281 17.1328 113.781 16.8203C114.289 16.5 114.809 16.25 115.34 16.0703C115.871 15.8828 116.383 15.7891 116.875 15.7891C117.57 15.7891 118.086 15.9453 118.422 16.2578C118.766 16.5625 118.938 17.0781 118.938 17.8047C118.938 18.1016 118.914 18.4336 118.867 18.8008C118.82 19.1602 118.738 19.5625 118.621 20.0078C118.512 20.4531 118.359 20.9453 118.164 21.4844C117.977 22.0156 117.738 22.5977 117.449 23.2305C118.324 21.7148 119.133 20.4766 119.875 19.5156C120.625 18.5547 121.324 17.7969 121.973 17.2422C122.629 16.6875 123.242 16.3086 123.812 16.1055C124.391 15.8945 124.941 15.7891 125.465 15.7891C125.918 15.7891 126.32 15.8633 126.672 16.0117C127.023 16.1523 127.316 16.3516 127.551 16.6094C127.793 16.8594 127.977 17.1562 128.102 17.5C128.227 17.8438 128.289 18.2148 128.289 18.6133C128.289 18.9258 128.281 19.2383 128.266 19.5508C128.25 19.8555 128.203 20.1875 128.125 20.5469C128.047 20.9062 127.926 21.3086 127.762 21.7539C127.605 22.1914 127.383 22.6992 127.094 23.2773Z" stroke="#E8B131" stroke-width="2" mask="url(#path-1-outside-1_262_39)"/>
<path d="M149.031 8.34766C149.031 7.37109 149.082 6.54688 149.184 5.875C149.285 5.20312 149.434 4.66016 149.629 4.24609C149.824 3.83203 150.066 3.53125 150.355 3.34375C150.652 3.15625 150.992 3.0625 151.375 3.0625C151.695 3.0625 152.016 3.11719 152.336 3.22656C152.664 3.33594 152.98 3.48438 153.285 3.67188C153.59 3.85156 153.871 4.0625 154.129 4.30469C154.395 4.54688 154.625 4.80469 154.82 5.07812C155.016 5.34375 155.168 5.61328 155.277 5.88672C155.395 6.16016 155.453 6.42188 155.453 6.67188C155.453 6.96094 155.395 7.29688 155.277 7.67969C155.16 8.05469 154.973 8.48438 154.715 8.96875C154.457 9.45312 154.125 9.99219 153.719 10.5859C153.312 11.1719 152.82 11.8164 152.242 12.5195C151.773 12.5195 151.34 12.4336 150.941 12.2617C150.551 12.082 150.215 11.8203 149.934 11.4766C149.652 11.125 149.43 10.6914 149.266 10.1758C149.109 9.65234 149.031 9.04297 149.031 8.34766ZM142.832 26.582C142.637 26.1289 142.508 25.6406 142.445 25.1172C142.383 24.5938 142.352 24.0898 142.352 23.6055C142.352 23.1367 142.461 22.6172 142.68 22.0469C142.898 21.4688 143.195 20.8906 143.57 20.3125C143.945 19.7266 144.375 19.1602 144.859 18.6133C145.352 18.0664 145.863 17.582 146.395 17.1602C146.934 16.7305 147.48 16.3867 148.035 16.1289C148.59 15.8711 149.113 15.7422 149.605 15.7422C150.16 15.7422 150.594 15.8164 150.906 15.9648C151.227 16.1055 151.469 16.3086 151.633 16.5742C151.797 16.8398 151.898 17.1641 151.938 17.5469C151.984 17.9219 152.008 18.3438 152.008 18.8125C152.008 19.125 151.961 19.4805 151.867 19.8789C151.773 20.2773 151.648 20.707 151.492 21.168C151.336 21.6211 151.156 22.0938 150.953 22.5859C150.75 23.0781 150.539 23.5781 150.32 24.0859C149.984 24.9141 149.691 25.6406 149.441 26.2656C149.199 26.8828 148.996 27.4258 148.832 27.8945C148.668 28.3633 148.547 28.7695 148.469 29.1133C148.391 29.457 148.352 29.7656 148.352 30.0391C148.352 30.3047 148.41 30.4922 148.527 30.6016C148.645 30.7109 148.812 30.7656 149.031 30.7656C149.195 30.7656 149.453 30.6641 149.805 30.4609C150.156 30.25 150.586 29.9062 151.094 29.4297C151.609 28.9531 152.199 28.3281 152.863 27.5547C153.535 26.7734 154.273 25.8125 155.078 24.6719C155.305 24.6719 155.527 24.7188 155.746 24.8125C155.973 24.8984 156.172 25.0195 156.344 25.1758C156.523 25.332 156.668 25.5156 156.777 25.7266C156.887 25.9297 156.941 26.1523 156.941 26.3945C156.941 26.7695 156.828 27.2188 156.602 27.7422C156.383 28.2578 156.074 28.8125 155.676 29.4062C155.285 30 154.824 30.6133 154.293 31.2461C153.762 31.8789 153.188 32.4961 152.57 33.0977C151.961 33.6992 151.32 34.2695 150.648 34.8086C149.977 35.3398 149.305 35.8086 148.633 36.2148C147.969 36.6211 147.316 36.9414 146.676 37.1758C146.043 37.4102 145.449 37.5273 144.895 37.5273C144.191 37.5273 143.598 37.4492 143.113 37.293C142.629 37.1367 142.238 36.8984 141.941 36.5781C141.645 36.2578 141.43 35.8555 141.297 35.3711C141.172 34.8789 141.109 34.3008 141.109 33.6367C141.109 33.1055 141.141 32.582 141.203 32.0664C141.273 31.543 141.379 31 141.52 30.4375C141.66 29.875 141.84 29.2773 142.059 28.6445C142.277 28.0117 142.535 27.3242 142.832 26.582Z" stroke="#E8B131" stroke-width="2" mask="url(#path-1-outside-1_262_39)"/>
<path d="M153.777 31.3867C153.777 31.0352 153.812 30.582 153.883 30.0273C153.953 29.4727 154.074 28.7773 154.246 27.9414C154.418 27.1055 154.652 26.1172 154.949 24.9766C155.246 23.8281 155.621 22.4922 156.074 20.9688C155.832 20.9453 155.602 20.918 155.383 20.8867C155.172 20.8477 154.984 20.7891 154.82 20.7109C154.664 20.625 154.539 20.5078 154.445 20.3594C154.352 20.2031 154.305 19.9922 154.305 19.7266C154.305 19.3516 154.367 18.9961 154.492 18.6602C154.625 18.3164 154.82 18.0117 155.078 17.7461C155.336 17.4805 155.652 17.2656 156.027 17.1016C156.402 16.9375 156.836 16.8516 157.328 16.8438C157.344 16.5938 157.355 16.3516 157.363 16.1172C157.379 15.875 157.395 15.6211 157.41 15.3555C157.434 15.082 157.461 14.7812 157.492 14.4531C157.523 14.125 157.562 13.7383 157.609 13.293C157.719 12.2383 157.953 11.2656 158.312 10.375C158.68 9.48438 159.141 8.71875 159.695 8.07812C160.25 7.4375 160.883 6.9375 161.594 6.57812C162.312 6.21875 163.082 6.03906 163.902 6.03906C164.457 6.03906 164.934 6.08984 165.332 6.19141C165.738 6.29297 166.07 6.45703 166.328 6.68359C166.594 6.91016 166.789 7.20312 166.914 7.5625C167.047 7.92188 167.113 8.35938 167.113 8.875C167.113 9.125 167.094 9.37109 167.055 9.61328C167.023 9.85547 166.961 10.1211 166.867 10.4102C166.781 10.6992 166.66 11.0273 166.504 11.3945C166.355 11.7539 166.164 12.1797 165.93 12.6719C165.703 13.1562 165.43 13.7188 165.109 14.3594C164.789 15 164.418 15.7461 163.996 16.5977C164.371 16.582 164.766 16.5664 165.18 16.5508C165.602 16.5273 166.004 16.5 166.387 16.4688C166.77 16.4375 167.113 16.4062 167.418 16.375C167.73 16.3359 167.965 16.3008 168.121 16.2695C168.27 16.3789 168.398 16.5117 168.508 16.668C168.625 16.8242 168.723 16.9922 168.801 17.1719C168.879 17.3516 168.938 17.5391 168.977 17.7344C169.016 17.9219 169.035 18.1055 169.035 18.2852C169.035 18.7383 168.965 19.1602 168.824 19.5508C168.684 19.9414 168.488 20.2812 168.238 20.5703C167.988 20.8594 167.695 21.0859 167.359 21.25C167.023 21.4141 166.656 21.4961 166.258 21.4961C165.977 21.4961 165.699 21.4922 165.426 21.4844C165.16 21.4766 164.887 21.4648 164.605 21.4492C164.324 21.4258 164.031 21.3945 163.727 21.3555C163.422 21.3164 163.098 21.2695 162.754 21.2148C162.426 22.5352 162.152 23.6953 161.934 24.6953C161.723 25.6953 161.551 26.5508 161.418 27.2617C161.293 27.9727 161.203 28.5469 161.148 28.9844C161.094 29.4141 161.066 29.7188 161.066 29.8984C161.066 30.4688 161.156 30.8906 161.336 31.1641C161.523 31.4375 161.867 31.5742 162.367 31.5742C162.859 31.5742 163.426 31.4297 164.066 31.1406C164.715 30.8516 165.41 30.4219 166.152 29.8516C166.895 29.2734 167.668 28.5547 168.473 27.6953C169.277 26.8281 170.09 25.8203 170.91 24.6719C171.137 24.6719 171.363 24.7109 171.59 24.7891C171.824 24.8672 172.031 24.9805 172.211 25.1289C172.398 25.2695 172.547 25.4414 172.656 25.6445C172.773 25.8398 172.832 26.0586 172.832 26.3008C172.832 26.6523 172.723 27.0859 172.504 27.6016C172.285 28.1172 171.98 28.6758 171.59 29.2773C171.207 29.8789 170.746 30.5078 170.207 31.1641C169.676 31.8125 169.094 32.4492 168.461 33.0742C167.836 33.6992 167.168 34.293 166.457 34.8555C165.754 35.418 165.035 35.9141 164.301 36.3438C163.574 36.7656 162.84 37.1016 162.098 37.3516C161.363 37.6016 160.652 37.7266 159.965 37.7266C159.043 37.7266 158.199 37.6016 157.434 37.3516C156.676 37.1094 156.023 36.7305 155.477 36.2148C154.938 35.6992 154.52 35.043 154.223 34.2461C153.926 33.4414 153.777 32.4883 153.777 31.3867Z" stroke="#E8B131" stroke-width="2" mask="url(#path-1-outside-1_262_39)"/>
<path d="M179.219 21.2148C179.219 20.707 179.129 20.3164 178.949 20.043C178.777 19.7617 178.547 19.6211 178.258 19.6211C178.094 19.6211 177.895 19.7266 177.66 19.9375C177.434 20.1406 177.207 20.4492 176.98 20.8633C176.754 21.2773 176.547 21.7969 176.359 22.4219C176.18 23.0469 176.047 23.7773 175.961 24.6133C176.633 24.4961 177.18 24.3203 177.602 24.0859C178.023 23.8438 178.355 23.5703 178.598 23.2656C178.84 22.9609 179.004 22.6328 179.09 22.2812C179.176 21.9297 179.219 21.5742 179.219 21.2148ZM175.762 37.3398C174.59 37.3398 173.57 37.1602 172.703 36.8008C171.844 36.4414 171.129 35.918 170.559 35.2305C169.996 34.5352 169.578 33.6875 169.305 32.6875C169.031 31.6797 168.895 30.5273 168.895 29.2305C168.895 28.0195 169.047 26.8203 169.352 25.6328C169.656 24.4375 170.07 23.2969 170.594 22.2109C171.117 21.125 171.727 20.1172 172.422 19.1875C173.125 18.2578 173.867 17.4531 174.648 16.7734C175.43 16.0859 176.23 15.5508 177.051 15.168C177.879 14.7773 178.684 14.582 179.465 14.582C181.121 14.582 182.391 14.9883 183.273 15.8008C184.156 16.6055 184.598 17.8477 184.598 19.5273C184.598 20.5352 184.441 21.4844 184.129 22.375C183.816 23.2578 183.305 24.0703 182.594 24.8125C181.891 25.5469 180.969 26.1992 179.828 26.7695C178.695 27.332 177.309 27.8008 175.668 28.1758C175.668 28.7148 175.699 29.1953 175.762 29.6172C175.832 30.0312 175.949 30.3789 176.113 30.6602C176.285 30.9414 176.52 31.1562 176.816 31.3047C177.121 31.4531 177.508 31.5273 177.977 31.5273C178.789 31.5273 179.648 31.3633 180.555 31.0352C181.469 30.6992 182.375 30.2266 183.273 29.6172C184.18 29.0078 185.055 28.2773 185.898 27.4258C186.75 26.5664 187.516 25.6133 188.195 24.5664C188.484 24.5742 188.742 24.6289 188.969 24.7305C189.195 24.8242 189.387 24.9453 189.543 25.0938C189.699 25.2344 189.816 25.3984 189.895 25.5859C189.98 25.7734 190.023 25.9609 190.023 26.1484C190.023 26.5938 189.902 27.0977 189.66 27.6602C189.426 28.2148 189.094 28.7969 188.664 29.4062C188.242 30.0078 187.738 30.625 187.152 31.2578C186.566 31.8828 185.926 32.4922 185.23 33.0859C184.535 33.6719 183.797 34.2227 183.016 34.7383C182.234 35.2539 181.438 35.707 180.625 36.0977C179.812 36.4805 178.992 36.7812 178.164 37C177.344 37.2266 176.543 37.3398 175.762 37.3398Z" stroke="#E8B131" stroke-width="2" mask="url(#path-1-outside-1_262_39)"/>
<path d="M186.391 29.5117C186.391 28.3398 186.539 27.1836 186.836 26.043C187.133 24.9023 187.531 23.8164 188.031 22.7852C188.539 21.7539 189.117 20.8008 189.766 19.9258C190.422 19.043 191.105 18.2812 191.816 17.6406C192.535 17 193.258 16.5 193.984 16.1406C194.711 15.7734 195.395 15.5898 196.035 15.5898C196.785 15.5898 197.34 15.7773 197.699 16.1523C198.066 16.5273 198.25 17.0312 198.25 17.6641C198.25 17.7578 198.246 17.8516 198.238 17.9453C198.238 18.0391 198.223 18.1367 198.191 18.2383C197.605 18.6133 197.074 19.0625 196.598 19.5859C196.121 20.1016 195.695 20.6641 195.32 21.2734C194.953 21.875 194.633 22.5117 194.359 23.1836C194.086 23.8477 193.859 24.5156 193.68 25.1875C193.5 25.8516 193.367 26.5078 193.281 27.1562C193.195 27.8047 193.152 28.4141 193.152 28.9844C193.152 29.3906 193.18 29.7305 193.234 30.0039C193.297 30.2695 193.387 30.4844 193.504 30.6484C193.629 30.8125 193.781 30.9297 193.961 31C194.141 31.0625 194.352 31.0938 194.594 31.0938C194.93 31.0938 195.285 30.8984 195.66 30.5078C196.035 30.1094 196.406 29.5625 196.773 28.8672C197.141 28.1641 197.488 27.3359 197.816 26.3828C198.152 25.4219 198.445 24.3789 198.695 23.2539C198.953 22.1211 199.156 20.9258 199.305 19.668C199.461 18.4102 199.539 17.1328 199.539 15.8359C199.539 14.4453 199.355 13.2227 198.988 12.168C198.629 11.1133 198.117 10.2266 197.453 9.50781C196.797 8.78906 196.004 8.23438 195.074 7.84375C194.152 7.44531 193.129 7.21094 192.004 7.14062C191.785 6.95312 191.625 6.71484 191.523 6.42578C191.43 6.13672 191.383 5.84766 191.383 5.55859C191.383 4.99609 191.504 4.44141 191.746 3.89453C191.996 3.34766 192.371 2.86328 192.871 2.44141C193.379 2.01172 194.023 1.66406 194.805 1.39844C195.586 1.13281 196.508 1 197.57 1C198.93 1 200.164 1.27344 201.273 1.82031C202.383 2.36719 203.332 3.14844 204.121 4.16406C204.91 5.17969 205.52 6.41406 205.949 7.86719C206.379 9.32031 206.594 10.9531 206.594 12.7656C206.594 15.25 206.391 17.5859 205.984 19.7734C205.586 21.9531 205.043 23.9531 204.355 25.7734C203.668 27.5938 202.863 29.2227 201.941 30.6602C201.027 32.0898 200.055 33.3008 199.023 34.293C198 35.2773 196.949 36.0312 195.871 36.5547C194.793 37.0781 193.746 37.3398 192.73 37.3398C191.77 37.3398 190.898 37.1836 190.117 36.8711C189.336 36.5508 188.668 36.0703 188.113 35.4297C187.566 34.7812 187.141 33.9688 186.836 32.9922C186.539 32.0078 186.391 30.8477 186.391 29.5117Z" stroke="#E8B131" stroke-width="2" mask="url(#path-1-outside-1_262_39)"/>
</svg>
