<svg width="206" height="46" viewBox="0 0 206 46" fill="none" xmlns="http://www.w3.org/2000/svg">
<path d="M7.05469 31.3945C7.05469 33.9492 7.35156 36.1719 7.94531 38.0625C8.54688 39.9531 9.45312 41.4414 10.6641 42.5273C10.6562 42.9023 10.5625 43.25 10.3828 43.5703C10.2109 43.8906 9.96875 44.168 9.65625 44.4023C9.34375 44.6445 8.96484 44.832 8.51953 44.9648C8.08203 45.1055 7.59375 45.1758 7.05469 45.1758C6.5 45.1758 5.9375 45.0859 5.36719 44.9062C4.80469 44.7266 4.26172 44.4336 3.73828 44.0273C3.21484 43.6289 2.72656 43.1055 2.27344 42.457C1.82031 41.8086 1.42188 41.0156 1.07812 40.0781C0.742188 39.1484 0.476562 38.0586 0.28125 36.8086C0.09375 35.5664 0 34.1445 0 32.543C0 30.7617 0.144531 28.9883 0.433594 27.2227C0.730469 25.4492 1.14062 23.7227 1.66406 22.043C2.1875 20.3555 2.80859 18.7344 3.52734 17.1797C4.25391 15.625 5.04297 14.1758 5.89453 12.832C6.75391 11.4805 7.66406 10.25 8.625 9.14062C9.58594 8.03125 10.5664 7.08203 11.5664 6.29297C12.5664 5.49609 13.5703 4.88281 14.5781 4.45312C15.5859 4.01562 16.5664 3.79688 17.5195 3.79688C18.2617 3.79688 18.793 3.92969 19.1133 4.19531C19.4336 4.46094 19.5938 4.82422 19.5938 5.28516C19.5938 5.44922 19.5742 5.59766 19.5352 5.73047C19.5039 5.86328 19.4414 6 19.3477 6.14062C17.9805 6.84375 16.7266 7.73438 15.5859 8.8125C14.4453 9.89062 13.418 11.0977 12.5039 12.4336C11.5977 13.7695 10.8047 15.2109 10.125 16.7578C9.44531 18.2969 8.875 19.8867 8.41406 21.5273C7.96094 23.1602 7.62109 24.8125 7.39453 26.4844C7.16797 28.1562 7.05469 29.793 7.05469 31.3945Z" fill="#E8B131" fill-opacity="0.98"/>
<path d="M30.1758 14.4492C30.418 14.1367 30.7227 13.9062 31.0898 13.7578C31.4648 13.6094 31.832 13.5352 32.1914 13.5352C32.8633 13.5352 33.4805 13.6445 34.043 13.8633C34.6133 14.082 35.1055 14.375 35.5195 14.7422C35.9336 15.1016 36.2578 15.5156 36.4922 15.9844C36.7266 16.4531 36.8438 16.9336 36.8438 17.4258C36.8438 17.6445 36.8281 17.875 36.7969 18.1172C36.7734 18.3516 36.7266 18.6172 36.6562 18.9141C36.5938 19.2031 36.5039 19.5312 36.3867 19.8984C36.2695 20.2656 36.1211 20.6914 35.9414 21.1758C35.7773 21.6289 35.5859 22.125 35.3672 22.6641C35.1562 23.1953 34.9375 23.7383 34.7109 24.293C34.4844 24.8398 34.2617 25.3789 34.043 25.9102C33.832 26.4414 33.6406 26.9336 33.4688 27.3867C33.3047 27.832 33.1719 28.2227 33.0703 28.5586C32.9688 28.8945 32.918 29.1367 32.918 29.2852C32.918 29.5977 32.9805 29.8047 33.1055 29.9062C33.2305 30 33.3906 30.0469 33.5859 30.0469C33.8594 30.0469 34.207 29.9258 34.6289 29.6836C35.0508 29.4336 35.5352 29.0547 36.082 28.5469C36.6367 28.0391 37.2461 27.3945 37.9102 26.6133C38.582 25.8242 39.3008 24.8906 40.0664 23.8125C40.3164 23.8125 40.5586 23.8516 40.793 23.9297C41.0352 24 41.2461 24.1016 41.4258 24.2344C41.6133 24.3672 41.7617 24.5234 41.8711 24.7031C41.9805 24.8828 42.0352 25.082 42.0352 25.3008C42.0352 25.7305 41.8945 26.2383 41.6133 26.8242C41.3398 27.4023 40.9648 28.0195 40.4883 28.6758C40.0117 29.3242 39.457 29.9883 38.8242 30.668C38.1992 31.3398 37.5391 31.9805 36.8438 32.5898C36.2812 33.0898 35.7031 33.5586 35.1094 33.9961C34.5234 34.4258 33.9375 34.8008 33.3516 35.1211C32.7656 35.4414 32.1914 35.6914 31.6289 35.8711C31.0742 36.0508 30.543 36.1406 30.0352 36.1406C29.543 36.1406 29.1016 36.0938 28.7109 36C28.3203 35.9141 27.9844 35.7539 27.7031 35.5195C27.4297 35.2852 27.2188 34.9688 27.0703 34.5703C26.9297 34.1641 26.8594 33.6484 26.8594 33.0234C26.8594 32.6875 26.8828 32.3164 26.9297 31.9102C26.9844 31.4961 27.0586 31.0352 27.1523 30.5273C26.5742 31.6211 25.9648 32.5703 25.3242 33.375C24.6914 34.1719 24.0508 34.8359 23.4023 35.3672C22.7617 35.8906 22.1289 36.2773 21.5039 36.5273C20.8789 36.7852 20.2969 36.9141 19.7578 36.9141C19.0547 36.9141 18.4766 36.8125 18.0234 36.6094C17.5703 36.4141 17.2109 36.125 16.9453 35.7422C16.6875 35.3594 16.5078 34.8867 16.4062 34.3242C16.3047 33.7617 16.2539 33.1211 16.2539 32.4023C16.2539 32.043 16.293 31.6055 16.3711 31.0898C16.457 30.5742 16.582 30 16.7461 29.3672C16.9102 28.7344 17.1094 28.0586 17.3438 27.3398C17.5859 26.6211 17.8633 25.875 18.1758 25.1016C17.9102 24.5938 17.7383 24.0938 17.6602 23.6016C17.5898 23.1016 17.5547 22.6094 17.5547 22.125C17.5547 21.625 17.6719 21.0742 17.9062 20.4727C18.1484 19.8711 18.4688 19.2617 18.8672 18.6445C19.2734 18.0195 19.7422 17.418 20.2734 16.8398C20.8125 16.2539 21.375 15.7344 21.9609 15.2812C22.5547 14.8281 23.1562 14.4648 23.7656 14.1914C24.375 13.918 24.9609 13.7812 25.5234 13.7812C25.8984 13.7812 26.2266 13.8164 26.5078 13.8867C26.7969 13.9492 27.0352 14.0547 27.2227 14.2031C27.418 14.3516 27.5664 14.5508 27.668 14.8008C27.7695 15.043 27.8203 15.3438 27.8203 15.7031C27.8203 16.4766 27.5117 17.5664 26.8945 18.9727C26.2852 20.3789 25.3633 22.0859 24.1289 24.0938C23.8867 24.9688 23.6953 25.75 23.5547 26.4375C23.4219 27.1172 23.3555 27.6484 23.3555 28.0312C23.3555 28.4219 23.4297 28.7305 23.5781 28.957C23.7344 29.1758 23.9805 29.2852 24.3164 29.2852C24.5195 29.2852 24.7617 29.2188 25.043 29.0859C25.3242 28.9531 25.6172 28.7852 25.9219 28.582C26.2266 28.3711 26.5273 28.1367 26.8242 27.8789C27.1211 27.6211 27.3906 27.3672 27.6328 27.1172C28.0391 25.8203 28.3867 24.625 28.6758 23.5312C28.9727 22.4375 29.2227 21.3906 29.4258 20.3906C29.6289 19.3828 29.7891 18.3984 29.9062 17.4375C30.0312 16.4766 30.1211 15.4805 30.1758 14.4492Z" fill="#E8B131" fill-opacity="0.98"/>
<path d="M39.7852 24.6211C39.5898 24.168 39.4609 23.6797 39.3984 23.1562C39.3359 22.6328 39.3047 22.1289 39.3047 21.6445C39.3047 21.1758 39.4141 20.6562 39.6328 20.0859C39.8516 19.5078 40.1445 18.9297 40.5117 18.3516C40.8867 17.7656 41.3164 17.1992 41.8008 16.6523C42.293 16.1055 42.8086 15.6211 43.3477 15.1992C43.8867 14.7695 44.4297 14.4258 44.9766 14.168C45.5312 13.9102 46.0547 13.7812 46.5469 13.7812C46.9609 13.7812 47.3008 13.8203 47.5664 13.8984C47.832 13.9688 48.0391 14.0859 48.1875 14.25C48.3438 14.4141 48.4531 14.625 48.5156 14.8828C48.5781 15.1328 48.6094 15.4375 48.6094 15.7969C48.6094 16.0938 48.5703 16.5117 48.4922 17.0508C48.4141 17.5898 48.2969 18.1797 48.1406 18.8203C47.9844 19.4609 47.7852 20.125 47.543 20.8125C47.3008 21.4922 47.0195 22.125 46.6992 22.7109C47.5742 21.1953 48.4297 19.918 49.2656 18.8789C50.1094 17.832 50.9141 16.9844 51.6797 16.3359C52.4453 15.6875 53.1602 15.2188 53.8242 14.9297C54.4961 14.6406 55.0938 14.4961 55.6172 14.4961C56.1719 14.4961 56.6562 14.582 57.0703 14.7539C57.4844 14.918 57.8281 15.1523 58.1016 15.457C58.3828 15.7539 58.5898 16.1055 58.7227 16.5117C58.8633 16.9102 58.9336 17.3438 58.9336 17.8125C58.9336 18.4531 58.8281 19.207 58.6172 20.0742C58.4062 20.9336 58.0469 21.9375 57.5391 23.0859C57.3984 23.4375 57.2383 23.8203 57.0586 24.2344C56.8867 24.6484 56.7109 25.0742 56.5312 25.5117C56.3594 25.9414 56.1875 26.3711 56.0156 26.8008C55.8516 27.2227 55.7031 27.625 55.5703 28.0078C55.4375 28.3828 55.332 28.7266 55.2539 29.0391C55.1758 29.3516 55.1367 29.6094 55.1367 29.8125C55.1367 30.0781 55.1953 30.2656 55.3125 30.375C55.4297 30.4766 55.5977 30.5273 55.8164 30.5273C56.0586 30.5273 56.418 30.3789 56.8945 30.082C57.3711 29.7773 57.918 29.3398 58.5352 28.7695C59.1602 28.1992 59.8359 27.4961 60.5625 26.6602C61.2969 25.8242 62.0352 24.875 62.7773 23.8125C63.0039 23.8125 63.2266 23.8516 63.4453 23.9297C63.6719 24 63.8711 24.1055 64.043 24.2461C64.2227 24.3789 64.3672 24.543 64.4766 24.7383C64.5859 24.9336 64.6406 25.1523 64.6406 25.3945C64.6406 25.7695 64.5195 26.2188 64.2773 26.7422C64.043 27.2578 63.7188 27.8125 63.3047 28.4062C62.8906 29 62.4023 29.6133 61.8398 30.2461C61.2773 30.8789 60.6719 31.4961 60.0234 32.0977C59.3828 32.6992 58.7109 33.2695 58.0078 33.8086C57.3125 34.3398 56.6211 34.8086 55.9336 35.2148C55.2461 35.6211 54.5742 35.9414 53.918 36.1758C53.2695 36.4102 52.668 36.5273 52.1133 36.5273C51.4102 36.5273 50.8164 36.4492 50.332 36.293C49.8477 36.1367 49.457 35.8984 49.1602 35.5781C48.8633 35.2578 48.6484 34.8555 48.5156 34.3711C48.3906 33.8789 48.3281 33.3008 48.3281 32.6367C48.3281 32.1055 48.3867 31.5391 48.5039 30.9375C48.6289 30.3359 48.7812 29.7305 48.9609 29.1211C49.1406 28.5039 49.3359 27.9023 49.5469 27.3164C49.7656 26.7227 49.9648 26.1797 50.1445 25.6875C50.3242 25.1875 50.4727 24.7539 50.5898 24.3867C50.7148 24.0195 50.7773 23.7461 50.7773 23.5664C50.7773 23.1836 50.5859 22.9922 50.2031 22.9922C50.0938 22.9922 49.918 23.043 49.6758 23.1445C49.4336 23.2461 49.1406 23.4258 48.7969 23.6836C48.4531 23.9336 48.0703 24.2734 47.6484 24.7031C47.2266 25.125 46.7812 25.6602 46.3125 26.3086C46.1406 27.2305 45.9922 28.0742 45.8672 28.8398C45.75 29.5977 45.6484 30.3281 45.5625 31.0312C45.4766 31.7344 45.4062 32.4414 45.3516 33.1523C45.2969 33.8555 45.25 34.6133 45.2109 35.4258C45.0938 35.543 44.9766 35.6445 44.8594 35.7305C44.75 35.8086 44.625 35.8711 44.4844 35.918C44.3438 35.9648 44.1758 35.9961 43.9805 36.0117C43.793 36.0352 43.5625 36.0469 43.2891 36.0469C42.6172 36.0469 41.9961 35.8984 41.4258 35.6016C40.8555 35.3047 40.3594 34.9102 39.9375 34.418C39.5234 33.918 39.1953 33.3398 38.9531 32.6836C38.7188 32.0273 38.5938 31.3398 38.5781 30.6211C38.5781 29.707 38.6758 28.7578 38.8711 27.7734C39.0664 26.7891 39.3711 25.7383 39.7852 24.6211Z" fill="#E8B131" fill-opacity="0.98"/>
<path d="M72.2109 17.4727C72.2109 16.1992 72.1367 15.0039 71.9883 13.8867C71.8398 12.7695 71.6133 11.7422 71.3086 10.8047C71.0117 9.86719 70.6367 9.02344 70.1836 8.27344C69.7383 7.52344 69.2148 6.87891 68.6133 6.33984C68.6289 5.96484 68.7227 5.61719 68.8945 5.29688C69.0664 4.97656 69.3086 4.69922 69.6211 4.46484C69.9336 4.23047 70.3086 4.04688 70.7461 3.91406C71.1836 3.77344 71.6719 3.70312 72.2109 3.70312C72.7734 3.70312 73.3359 3.79297 73.8984 3.97266C74.4688 4.15234 75.0156 4.44531 75.5391 4.85156C76.0625 5.25 76.5508 5.77344 77.0039 6.42188C77.457 7.0625 77.8516 7.85156 78.1875 8.78906C78.5234 9.71875 78.7852 10.8086 78.9727 12.0586C79.168 13.3008 79.2656 14.7227 79.2656 16.3242C79.2656 18.1055 79.1172 19.8828 78.8203 21.6562C78.5312 23.4219 78.125 25.1484 77.6016 26.8359C77.0781 28.5156 76.457 30.1328 75.7383 31.6875C75.0195 33.2422 74.2305 34.6914 73.3711 36.0352C72.5117 37.3867 71.6016 38.6172 70.6406 39.7266C69.6875 40.8359 68.7109 41.7852 67.7109 42.5742C66.7109 43.3711 65.7031 43.9844 64.6875 44.4141C63.6797 44.8516 62.6992 45.0703 61.7461 45.0703C61.0039 45.0703 60.4727 44.9375 60.1523 44.6719C59.8398 44.4062 59.6836 44.043 59.6836 43.582C59.6836 43.418 59.6992 43.2695 59.7305 43.1367C59.7617 43.0039 59.8281 42.8672 59.9297 42.7266C61.2969 42.0234 62.5469 41.1328 63.6797 40.0547C64.8203 38.9766 65.8438 37.7695 66.75 36.4336C67.6641 35.0977 68.4609 33.6602 69.1406 32.1211C69.8281 30.5742 70.3984 28.9844 70.8516 27.3516C71.3047 25.7109 71.6445 24.0547 71.8711 22.3828C72.0977 20.7109 72.2109 19.0742 72.2109 17.4727Z" fill="#E8B131" fill-opacity="0.98"/>
<path d="M84.832 22.0312C84.9727 21.25 85.1289 20.3984 85.3008 19.4766C85.4805 18.5469 85.6523 17.6016 85.8164 16.6406C85.9883 15.6797 86.1523 14.7266 86.3086 13.7812C86.4648 12.8359 86.5977 11.9531 86.707 11.1328C86.918 9.51562 87.2773 8.06641 87.7852 6.78516C88.3008 5.50391 88.918 4.41797 89.6367 3.52734C90.3555 2.63672 91.1523 1.95703 92.0273 1.48828C92.9102 1.01172 93.8242 0.773438 94.7695 0.773438C95.2852 0.773438 95.75 0.835938 96.1641 0.960938C96.5781 1.08594 96.9297 1.28516 97.2188 1.55859C97.5078 1.83203 97.7305 2.1875 97.8867 2.625C98.043 3.05469 98.1211 3.57422 98.1211 4.18359C98.1211 4.53516 98.0898 4.90234 98.0273 5.28516C97.9727 5.66016 97.875 6.07422 97.7344 6.52734C97.6016 6.98047 97.4219 7.48828 97.1953 8.05078C96.9688 8.60547 96.6875 9.24219 96.3516 9.96094C96.0156 10.6719 95.6172 11.4766 95.1562 12.375C94.6953 13.2734 94.1641 14.2852 93.5625 15.4102C93.3984 15.9883 93.2227 16.6211 93.0352 17.3086C92.8477 17.9883 92.6562 18.6953 92.4609 19.4297C92.2656 20.1562 92.0703 20.8906 91.875 21.6328C91.6797 22.375 91.4883 23.1016 91.3008 23.8125C91.1211 24.5156 90.9531 25.1875 90.7969 25.8281C90.6406 26.4609 90.5039 27.0352 90.3867 27.5508C90.2695 28.0586 90.1758 28.4922 90.1055 28.8516C90.043 29.2109 90.0117 29.4648 90.0117 29.6133C90.0117 29.8789 90.0703 30.0664 90.1875 30.1758C90.3047 30.2852 90.4727 30.3398 90.6914 30.3398C91.0664 30.3398 91.5117 30.1797 92.0273 29.8594C92.5508 29.5312 93.1133 29.0742 93.7148 28.4883C94.3164 27.9023 94.9414 27.2031 95.5898 26.3906C96.2383 25.5781 96.875 24.6875 97.5 23.7188C97.7266 23.7188 97.9492 23.7578 98.168 23.8359C98.3867 23.9141 98.582 24.0273 98.7539 24.1758C98.9258 24.3164 99.0625 24.4883 99.1641 24.6914C99.2734 24.8867 99.3281 25.1055 99.3281 25.3477C99.3281 25.8008 99.2109 26.3086 98.9766 26.8711C98.75 27.4336 98.4336 28.0195 98.0273 28.6289C97.6289 29.2383 97.1562 29.8594 96.6094 30.4922C96.0625 31.1172 95.4688 31.7227 94.8281 32.3086C94.1953 32.8867 93.5273 33.4336 92.8242 33.9492C92.1289 34.4648 91.4258 34.9141 90.7148 35.2969C90.0117 35.6797 89.3164 35.9805 88.6289 36.1992C87.9492 36.418 87.3086 36.5273 86.707 36.5273C86.0117 36.5273 85.4219 36.4492 84.9375 36.293C84.4531 36.1445 84.0586 35.918 83.7539 35.6133C83.457 35.3086 83.2422 34.9258 83.1094 34.4648C82.9766 34.0039 82.9102 33.4609 82.9102 32.8359C82.9102 32.2969 82.9492 31.7031 83.0273 31.0547C83.1055 30.4062 83.2031 29.7383 83.3203 29.0508C83.4453 28.3633 83.582 27.6758 83.7305 26.9883C83.8789 26.293 84.0234 25.6367 84.1641 25.0195C84.3047 24.3945 84.4336 23.8242 84.5508 23.3086C84.6758 22.793 84.7695 22.3672 84.832 22.0312Z" fill="#E8B131" fill-opacity="0.98"/>
<path d="M103.688 7.34766C103.688 6.37109 103.738 5.54688 103.84 4.875C103.941 4.20312 104.09 3.66016 104.285 3.24609C104.48 2.83203 104.723 2.53125 105.012 2.34375C105.309 2.15625 105.648 2.0625 106.031 2.0625C106.352 2.0625 106.672 2.11719 106.992 2.22656C107.32 2.33594 107.637 2.48438 107.941 2.67188C108.246 2.85156 108.527 3.0625 108.785 3.30469C109.051 3.54688 109.281 3.80469 109.477 4.07812C109.672 4.34375 109.824 4.61328 109.934 4.88672C110.051 5.16016 110.109 5.42188 110.109 5.67188C110.109 5.96094 110.051 6.29688 109.934 6.67969C109.816 7.05469 109.629 7.48438 109.371 7.96875C109.113 8.45312 108.781 8.99219 108.375 9.58594C107.969 10.1719 107.477 10.8164 106.898 11.5195C106.43 11.5195 105.996 11.4336 105.598 11.2617C105.207 11.082 104.871 10.8203 104.59 10.4766C104.309 10.125 104.086 9.69141 103.922 9.17578C103.766 8.65234 103.688 8.04297 103.688 7.34766ZM97.4883 25.582C97.293 25.1289 97.1641 24.6406 97.1016 24.1172C97.0391 23.5938 97.0078 23.0898 97.0078 22.6055C97.0078 22.1367 97.1172 21.6172 97.3359 21.0469C97.5547 20.4688 97.8516 19.8906 98.2266 19.3125C98.6016 18.7266 99.0312 18.1602 99.5156 17.6133C100.008 17.0664 100.52 16.582 101.051 16.1602C101.59 15.7305 102.137 15.3867 102.691 15.1289C103.246 14.8711 103.77 14.7422 104.262 14.7422C104.816 14.7422 105.25 14.8164 105.562 14.9648C105.883 15.1055 106.125 15.3086 106.289 15.5742C106.453 15.8398 106.555 16.1641 106.594 16.5469C106.641 16.9219 106.664 17.3438 106.664 17.8125C106.664 18.125 106.617 18.4805 106.523 18.8789C106.43 19.2773 106.305 19.707 106.148 20.168C105.992 20.6211 105.812 21.0938 105.609 21.5859C105.406 22.0781 105.195 22.5781 104.977 23.0859C104.641 23.9141 104.348 24.6406 104.098 25.2656C103.855 25.8828 103.652 26.4258 103.488 26.8945C103.324 27.3633 103.203 27.7695 103.125 28.1133C103.047 28.457 103.008 28.7656 103.008 29.0391C103.008 29.3047 103.066 29.4922 103.184 29.6016C103.301 29.7109 103.469 29.7656 103.688 29.7656C103.852 29.7656 104.109 29.6641 104.461 29.4609C104.812 29.25 105.242 28.9062 105.75 28.4297C106.266 27.9531 106.855 27.3281 107.52 26.5547C108.191 25.7734 108.93 24.8125 109.734 23.6719C109.961 23.6719 110.184 23.7188 110.402 23.8125C110.629 23.8984 110.828 24.0195 111 24.1758C111.18 24.332 111.324 24.5156 111.434 24.7266C111.543 24.9297 111.598 25.1523 111.598 25.3945C111.598 25.7695 111.484 26.2188 111.258 26.7422C111.039 27.2578 110.73 27.8125 110.332 28.4062C109.941 29 109.48 29.6133 108.949 30.2461C108.418 30.8789 107.844 31.4961 107.227 32.0977C106.617 32.6992 105.977 33.2695 105.305 33.8086C104.633 34.3398 103.961 34.8086 103.289 35.2148C102.625 35.6211 101.973 35.9414 101.332 36.1758C100.699 36.4102 100.105 36.5273 99.5508 36.5273C98.8477 36.5273 98.2539 36.4492 97.7695 36.293C97.2852 36.1367 96.8945 35.8984 96.5977 35.5781C96.3008 35.2578 96.0859 34.8555 95.9531 34.3711C95.8281 33.8789 95.7656 33.3008 95.7656 32.6367C95.7656 32.1055 95.7969 31.582 95.8594 31.0664C95.9297 30.543 96.0352 30 96.1758 29.4375C96.3164 28.875 96.4961 28.2773 96.7148 27.6445C96.9336 27.0117 97.1914 26.3242 97.4883 25.582Z" fill="#E8B131" fill-opacity="0.98"/>
<path d="M126.094 22.2773C127.078 20.8008 127.984 19.5547 128.812 18.5391C129.641 17.5234 130.41 16.7031 131.121 16.0781C131.832 15.4531 132.488 15.0039 133.09 14.7305C133.691 14.4492 134.254 14.3086 134.777 14.3086C135.332 14.3086 135.812 14.4062 136.219 14.6016C136.633 14.7969 136.973 15.0586 137.238 15.3867C137.512 15.707 137.715 16.082 137.848 16.5117C137.98 16.9414 138.047 17.3906 138.047 17.8594C138.047 18.4844 137.938 19.2109 137.719 20.0391C137.508 20.8672 137.184 21.7891 136.746 22.8047C136.605 23.1562 136.438 23.5586 136.242 24.0117C136.047 24.457 135.848 24.9258 135.645 25.418C135.441 25.9023 135.238 26.3945 135.035 26.8945C134.832 27.3867 134.652 27.8516 134.496 28.2891C134.34 28.7266 134.211 29.1211 134.109 29.4727C134.016 29.8164 133.969 30.0898 133.969 30.293C133.969 30.5586 134.023 30.7461 134.133 30.8555C134.25 30.957 134.418 31.0078 134.637 31.0078C134.855 31.0078 135.199 30.8555 135.668 30.5508C136.145 30.2383 136.703 29.7812 137.344 29.1797C137.992 28.5703 138.703 27.8164 139.477 26.918C140.258 26.0195 141.062 24.9844 141.891 23.8125C142.117 23.8125 142.34 23.8516 142.559 23.9297C142.785 24 142.984 24.1055 143.156 24.2461C143.336 24.3789 143.48 24.543 143.59 24.7383C143.699 24.9336 143.754 25.1523 143.754 25.3945C143.754 25.7695 143.629 26.2266 143.379 26.7656C143.137 27.3047 142.801 27.8828 142.371 28.5C141.941 29.1172 141.438 29.7617 140.859 30.4336C140.289 31.0977 139.672 31.75 139.008 32.3906C138.344 33.0234 137.652 33.625 136.934 34.1953C136.223 34.7656 135.516 35.2656 134.812 35.6953C134.109 36.125 133.426 36.4648 132.762 36.7148C132.105 36.9727 131.5 37.1016 130.945 37.1016C130.234 37.1016 129.637 37.0234 129.152 36.8672C128.668 36.7109 128.277 36.4727 127.98 36.1523C127.684 35.832 127.469 35.4297 127.336 34.9453C127.211 34.4531 127.148 33.8789 127.148 33.2227C127.148 32.6914 127.219 32.1016 127.359 31.4531C127.5 30.8047 127.676 30.1445 127.887 29.4727C128.098 28.793 128.324 28.1211 128.566 27.457C128.809 26.793 129.035 26.1836 129.246 25.6289C129.457 25.0664 129.633 24.5781 129.773 24.1641C129.914 23.75 129.984 23.457 129.984 23.2852C129.984 22.9023 129.793 22.7109 129.41 22.7109C129.301 22.7109 129.117 22.7773 128.859 22.9102C128.609 23.043 128.305 23.2539 127.945 23.543C127.594 23.8242 127.203 24.1953 126.773 24.6562C126.344 25.1094 125.895 25.6602 125.426 26.3086C125.254 27.2305 125.098 28.1016 124.957 28.9219C124.816 29.7344 124.688 30.5273 124.57 31.3008C124.461 32.0664 124.367 32.832 124.289 33.5977C124.219 34.3555 124.164 35.1406 124.125 35.9531C124.008 36.0703 123.887 36.1758 123.762 36.2695C123.645 36.3633 123.512 36.4375 123.363 36.4922C123.215 36.5547 123.047 36.6016 122.859 36.6328C122.672 36.6641 122.453 36.6797 122.203 36.6797C121.531 36.6797 120.918 36.6055 120.363 36.457C119.809 36.3164 119.332 36.0859 118.934 35.7656C118.535 35.4453 118.223 35.0352 117.996 34.5352C117.777 34.0273 117.66 33.4141 117.645 32.6953C117.645 32.2344 117.688 31.7227 117.773 31.1602C117.867 30.5898 117.988 30 118.137 29.3906C118.285 28.7812 118.457 28.1641 118.652 27.5391C118.855 26.9062 119.062 26.3047 119.273 25.7344C119.367 25.4688 119.461 25.207 119.555 24.9492C119.656 24.6836 119.746 24.4336 119.824 24.1992C119.902 23.9648 119.965 23.75 120.012 23.5547C120.066 23.3594 120.094 23.2031 120.094 23.0859C120.094 22.875 120.047 22.7266 119.953 22.6406C119.859 22.5547 119.715 22.5117 119.52 22.5117C119.41 22.5117 119.254 22.5625 119.051 22.6641C118.855 22.7656 118.613 22.9453 118.324 23.2031C118.043 23.4531 117.711 23.793 117.328 24.2227C116.953 24.6445 116.531 25.1797 116.062 25.8281C115.898 26.75 115.746 27.6211 115.605 28.4414C115.473 29.2539 115.352 30.0469 115.242 30.8203C115.141 31.5859 115.055 32.3516 114.984 33.1172C114.914 33.875 114.859 34.6602 114.82 35.4727C114.703 35.5898 114.586 35.6914 114.469 35.7773C114.359 35.8555 114.234 35.918 114.094 35.9648C113.953 36.0117 113.785 36.043 113.59 36.0586C113.402 36.082 113.172 36.0938 112.898 36.0938C112.227 36.0938 111.605 35.9492 111.035 35.6602C110.465 35.3633 109.969 34.9648 109.547 34.4648C109.133 33.9648 108.805 33.3906 108.562 32.7422C108.328 32.0859 108.203 31.3984 108.188 30.6797C108.188 30.2188 108.219 29.7266 108.281 29.2031C108.344 28.6719 108.434 28.125 108.551 27.5625C108.668 26.9922 108.809 26.418 108.973 25.8398C109.145 25.2617 109.332 24.6953 109.535 24.1406C109.34 23.6875 109.211 23.1992 109.148 22.6758C109.086 22.1523 109.055 21.6523 109.055 21.1758C109.055 20.6992 109.152 20.2148 109.348 19.7227C109.551 19.2227 109.82 18.7383 110.156 18.2695C110.5 17.793 110.898 17.3438 111.352 16.9219C111.805 16.5 112.281 16.1328 112.781 15.8203C113.289 15.5 113.809 15.25 114.34 15.0703C114.871 14.8828 115.383 14.7891 115.875 14.7891C116.57 14.7891 117.086 14.9453 117.422 15.2578C117.766 15.5625 117.938 16.0781 117.938 16.8047C117.938 17.1016 117.914 17.4336 117.867 17.8008C117.82 18.1602 117.738 18.5625 117.621 19.0078C117.512 19.4531 117.359 19.9453 117.164 20.4844C116.977 21.0156 116.738 21.5977 116.449 22.2305C117.324 20.7148 118.133 19.4766 118.875 18.5156C119.625 17.5547 120.324 16.7969 120.973 16.2422C121.629 15.6875 122.242 15.3086 122.812 15.1055C123.391 14.8945 123.941 14.7891 124.465 14.7891C124.918 14.7891 125.32 14.8633 125.672 15.0117C126.023 15.1523 126.316 15.3516 126.551 15.6094C126.793 15.8594 126.977 16.1562 127.102 16.5C127.227 16.8438 127.289 17.2148 127.289 17.6133C127.289 17.9258 127.281 18.2383 127.266 18.5508C127.25 18.8555 127.203 19.1875 127.125 19.5469C127.047 19.9062 126.926 20.3086 126.762 20.7539C126.605 21.1914 126.383 21.6992 126.094 22.2773Z" fill="#E8B131" fill-opacity="0.98"/>
<path d="M148.031 7.34766C148.031 6.37109 148.082 5.54688 148.184 4.875C148.285 4.20312 148.434 3.66016 148.629 3.24609C148.824 2.83203 149.066 2.53125 149.355 2.34375C149.652 2.15625 149.992 2.0625 150.375 2.0625C150.695 2.0625 151.016 2.11719 151.336 2.22656C151.664 2.33594 151.98 2.48438 152.285 2.67188C152.59 2.85156 152.871 3.0625 153.129 3.30469C153.395 3.54688 153.625 3.80469 153.82 4.07812C154.016 4.34375 154.168 4.61328 154.277 4.88672C154.395 5.16016 154.453 5.42188 154.453 5.67188C154.453 5.96094 154.395 6.29688 154.277 6.67969C154.16 7.05469 153.973 7.48438 153.715 7.96875C153.457 8.45312 153.125 8.99219 152.719 9.58594C152.312 10.1719 151.82 10.8164 151.242 11.5195C150.773 11.5195 150.34 11.4336 149.941 11.2617C149.551 11.082 149.215 10.8203 148.934 10.4766C148.652 10.125 148.43 9.69141 148.266 9.17578C148.109 8.65234 148.031 8.04297 148.031 7.34766ZM141.832 25.582C141.637 25.1289 141.508 24.6406 141.445 24.1172C141.383 23.5938 141.352 23.0898 141.352 22.6055C141.352 22.1367 141.461 21.6172 141.68 21.0469C141.898 20.4688 142.195 19.8906 142.57 19.3125C142.945 18.7266 143.375 18.1602 143.859 17.6133C144.352 17.0664 144.863 16.582 145.395 16.1602C145.934 15.7305 146.48 15.3867 147.035 15.1289C147.59 14.8711 148.113 14.7422 148.605 14.7422C149.16 14.7422 149.594 14.8164 149.906 14.9648C150.227 15.1055 150.469 15.3086 150.633 15.5742C150.797 15.8398 150.898 16.1641 150.938 16.5469C150.984 16.9219 151.008 17.3438 151.008 17.8125C151.008 18.125 150.961 18.4805 150.867 18.8789C150.773 19.2773 150.648 19.707 150.492 20.168C150.336 20.6211 150.156 21.0938 149.953 21.5859C149.75 22.0781 149.539 22.5781 149.32 23.0859C148.984 23.9141 148.691 24.6406 148.441 25.2656C148.199 25.8828 147.996 26.4258 147.832 26.8945C147.668 27.3633 147.547 27.7695 147.469 28.1133C147.391 28.457 147.352 28.7656 147.352 29.0391C147.352 29.3047 147.41 29.4922 147.527 29.6016C147.645 29.7109 147.812 29.7656 148.031 29.7656C148.195 29.7656 148.453 29.6641 148.805 29.4609C149.156 29.25 149.586 28.9062 150.094 28.4297C150.609 27.9531 151.199 27.3281 151.863 26.5547C152.535 25.7734 153.273 24.8125 154.078 23.6719C154.305 23.6719 154.527 23.7188 154.746 23.8125C154.973 23.8984 155.172 24.0195 155.344 24.1758C155.523 24.332 155.668 24.5156 155.777 24.7266C155.887 24.9297 155.941 25.1523 155.941 25.3945C155.941 25.7695 155.828 26.2188 155.602 26.7422C155.383 27.2578 155.074 27.8125 154.676 28.4062C154.285 29 153.824 29.6133 153.293 30.2461C152.762 30.8789 152.188 31.4961 151.57 32.0977C150.961 32.6992 150.32 33.2695 149.648 33.8086C148.977 34.3398 148.305 34.8086 147.633 35.2148C146.969 35.6211 146.316 35.9414 145.676 36.1758C145.043 36.4102 144.449 36.5273 143.895 36.5273C143.191 36.5273 142.598 36.4492 142.113 36.293C141.629 36.1367 141.238 35.8984 140.941 35.5781C140.645 35.2578 140.43 34.8555 140.297 34.3711C140.172 33.8789 140.109 33.3008 140.109 32.6367C140.109 32.1055 140.141 31.582 140.203 31.0664C140.273 30.543 140.379 30 140.52 29.4375C140.66 28.875 140.84 28.2773 141.059 27.6445C141.277 27.0117 141.535 26.3242 141.832 25.582Z" fill="#E8B131" fill-opacity="0.98"/>
<path d="M152.777 30.3867C152.777 30.0352 152.812 29.582 152.883 29.0273C152.953 28.4727 153.074 27.7773 153.246 26.9414C153.418 26.1055 153.652 25.1172 153.949 23.9766C154.246 22.8281 154.621 21.4922 155.074 19.9688C154.832 19.9453 154.602 19.918 154.383 19.8867C154.172 19.8477 153.984 19.7891 153.82 19.7109C153.664 19.625 153.539 19.5078 153.445 19.3594C153.352 19.2031 153.305 18.9922 153.305 18.7266C153.305 18.3516 153.367 17.9961 153.492 17.6602C153.625 17.3164 153.82 17.0117 154.078 16.7461C154.336 16.4805 154.652 16.2656 155.027 16.1016C155.402 15.9375 155.836 15.8516 156.328 15.8438C156.344 15.5938 156.355 15.3516 156.363 15.1172C156.379 14.875 156.395 14.6211 156.41 14.3555C156.434 14.082 156.461 13.7812 156.492 13.4531C156.523 13.125 156.562 12.7383 156.609 12.293C156.719 11.2383 156.953 10.2656 157.312 9.375C157.68 8.48438 158.141 7.71875 158.695 7.07812C159.25 6.4375 159.883 5.9375 160.594 5.57812C161.312 5.21875 162.082 5.03906 162.902 5.03906C163.457 5.03906 163.934 5.08984 164.332 5.19141C164.738 5.29297 165.07 5.45703 165.328 5.68359C165.594 5.91016 165.789 6.20312 165.914 6.5625C166.047 6.92188 166.113 7.35938 166.113 7.875C166.113 8.125 166.094 8.37109 166.055 8.61328C166.023 8.85547 165.961 9.12109 165.867 9.41016C165.781 9.69922 165.66 10.0273 165.504 10.3945C165.355 10.7539 165.164 11.1797 164.93 11.6719C164.703 12.1562 164.43 12.7188 164.109 13.3594C163.789 14 163.418 14.7461 162.996 15.5977C163.371 15.582 163.766 15.5664 164.18 15.5508C164.602 15.5273 165.004 15.5 165.387 15.4688C165.77 15.4375 166.113 15.4062 166.418 15.375C166.73 15.3359 166.965 15.3008 167.121 15.2695C167.27 15.3789 167.398 15.5117 167.508 15.668C167.625 15.8242 167.723 15.9922 167.801 16.1719C167.879 16.3516 167.938 16.5391 167.977 16.7344C168.016 16.9219 168.035 17.1055 168.035 17.2852C168.035 17.7383 167.965 18.1602 167.824 18.5508C167.684 18.9414 167.488 19.2812 167.238 19.5703C166.988 19.8594 166.695 20.0859 166.359 20.25C166.023 20.4141 165.656 20.4961 165.258 20.4961C164.977 20.4961 164.699 20.4922 164.426 20.4844C164.16 20.4766 163.887 20.4648 163.605 20.4492C163.324 20.4258 163.031 20.3945 162.727 20.3555C162.422 20.3164 162.098 20.2695 161.754 20.2148C161.426 21.5352 161.152 22.6953 160.934 23.6953C160.723 24.6953 160.551 25.5508 160.418 26.2617C160.293 26.9727 160.203 27.5469 160.148 27.9844C160.094 28.4141 160.066 28.7188 160.066 28.8984C160.066 29.4688 160.156 29.8906 160.336 30.1641C160.523 30.4375 160.867 30.5742 161.367 30.5742C161.859 30.5742 162.426 30.4297 163.066 30.1406C163.715 29.8516 164.41 29.4219 165.152 28.8516C165.895 28.2734 166.668 27.5547 167.473 26.6953C168.277 25.8281 169.09 24.8203 169.91 23.6719C170.137 23.6719 170.363 23.7109 170.59 23.7891C170.824 23.8672 171.031 23.9805 171.211 24.1289C171.398 24.2695 171.547 24.4414 171.656 24.6445C171.773 24.8398 171.832 25.0586 171.832 25.3008C171.832 25.6523 171.723 26.0859 171.504 26.6016C171.285 27.1172 170.98 27.6758 170.59 28.2773C170.207 28.8789 169.746 29.5078 169.207 30.1641C168.676 30.8125 168.094 31.4492 167.461 32.0742C166.836 32.6992 166.168 33.293 165.457 33.8555C164.754 34.418 164.035 34.9141 163.301 35.3438C162.574 35.7656 161.84 36.1016 161.098 36.3516C160.363 36.6016 159.652 36.7266 158.965 36.7266C158.043 36.7266 157.199 36.6016 156.434 36.3516C155.676 36.1094 155.023 35.7305 154.477 35.2148C153.938 34.6992 153.52 34.043 153.223 33.2461C152.926 32.4414 152.777 31.4883 152.777 30.3867Z" fill="#E8B131" fill-opacity="0.98"/>
<path d="M178.219 20.2148C178.219 19.707 178.129 19.3164 177.949 19.043C177.777 18.7617 177.547 18.6211 177.258 18.6211C177.094 18.6211 176.895 18.7266 176.66 18.9375C176.434 19.1406 176.207 19.4492 175.98 19.8633C175.754 20.2773 175.547 20.7969 175.359 21.4219C175.18 22.0469 175.047 22.7773 174.961 23.6133C175.633 23.4961 176.18 23.3203 176.602 23.0859C177.023 22.8438 177.355 22.5703 177.598 22.2656C177.84 21.9609 178.004 21.6328 178.09 21.2812C178.176 20.9297 178.219 20.5742 178.219 20.2148ZM174.762 36.3398C173.59 36.3398 172.57 36.1602 171.703 35.8008C170.844 35.4414 170.129 34.918 169.559 34.2305C168.996 33.5352 168.578 32.6875 168.305 31.6875C168.031 30.6797 167.895 29.5273 167.895 28.2305C167.895 27.0195 168.047 25.8203 168.352 24.6328C168.656 23.4375 169.07 22.2969 169.594 21.2109C170.117 20.125 170.727 19.1172 171.422 18.1875C172.125 17.2578 172.867 16.4531 173.648 15.7734C174.43 15.0859 175.23 14.5508 176.051 14.168C176.879 13.7773 177.684 13.582 178.465 13.582C180.121 13.582 181.391 13.9883 182.273 14.8008C183.156 15.6055 183.598 16.8477 183.598 18.5273C183.598 19.5352 183.441 20.4844 183.129 21.375C182.816 22.2578 182.305 23.0703 181.594 23.8125C180.891 24.5469 179.969 25.1992 178.828 25.7695C177.695 26.332 176.309 26.8008 174.668 27.1758C174.668 27.7148 174.699 28.1953 174.762 28.6172C174.832 29.0312 174.949 29.3789 175.113 29.6602C175.285 29.9414 175.52 30.1562 175.816 30.3047C176.121 30.4531 176.508 30.5273 176.977 30.5273C177.789 30.5273 178.648 30.3633 179.555 30.0352C180.469 29.6992 181.375 29.2266 182.273 28.6172C183.18 28.0078 184.055 27.2773 184.898 26.4258C185.75 25.5664 186.516 24.6133 187.195 23.5664C187.484 23.5742 187.742 23.6289 187.969 23.7305C188.195 23.8242 188.387 23.9453 188.543 24.0938C188.699 24.2344 188.816 24.3984 188.895 24.5859C188.98 24.7734 189.023 24.9609 189.023 25.1484C189.023 25.5938 188.902 26.0977 188.66 26.6602C188.426 27.2148 188.094 27.7969 187.664 28.4062C187.242 29.0078 186.738 29.625 186.152 30.2578C185.566 30.8828 184.926 31.4922 184.23 32.0859C183.535 32.6719 182.797 33.2227 182.016 33.7383C181.234 34.2539 180.438 34.707 179.625 35.0977C178.812 35.4805 177.992 35.7812 177.164 36C176.344 36.2266 175.543 36.3398 174.762 36.3398Z" fill="#E8B131" fill-opacity="0.98"/>
<path d="M185.391 28.5117C185.391 27.3398 185.539 26.1836 185.836 25.043C186.133 23.9023 186.531 22.8164 187.031 21.7852C187.539 20.7539 188.117 19.8008 188.766 18.9258C189.422 18.043 190.105 17.2812 190.816 16.6406C191.535 16 192.258 15.5 192.984 15.1406C193.711 14.7734 194.395 14.5898 195.035 14.5898C195.785 14.5898 196.34 14.7773 196.699 15.1523C197.066 15.5273 197.25 16.0312 197.25 16.6641C197.25 16.7578 197.246 16.8516 197.238 16.9453C197.238 17.0391 197.223 17.1367 197.191 17.2383C196.605 17.6133 196.074 18.0625 195.598 18.5859C195.121 19.1016 194.695 19.6641 194.32 20.2734C193.953 20.875 193.633 21.5117 193.359 22.1836C193.086 22.8477 192.859 23.5156 192.68 24.1875C192.5 24.8516 192.367 25.5078 192.281 26.1562C192.195 26.8047 192.152 27.4141 192.152 27.9844C192.152 28.3906 192.18 28.7305 192.234 29.0039C192.297 29.2695 192.387 29.4844 192.504 29.6484C192.629 29.8125 192.781 29.9297 192.961 30C193.141 30.0625 193.352 30.0938 193.594 30.0938C193.93 30.0938 194.285 29.8984 194.66 29.5078C195.035 29.1094 195.406 28.5625 195.773 27.8672C196.141 27.1641 196.488 26.3359 196.816 25.3828C197.152 24.4219 197.445 23.3789 197.695 22.2539C197.953 21.1211 198.156 19.9258 198.305 18.668C198.461 17.4102 198.539 16.1328 198.539 14.8359C198.539 13.4453 198.355 12.2227 197.988 11.168C197.629 10.1133 197.117 9.22656 196.453 8.50781C195.797 7.78906 195.004 7.23438 194.074 6.84375C193.152 6.44531 192.129 6.21094 191.004 6.14062C190.785 5.95312 190.625 5.71484 190.523 5.42578C190.43 5.13672 190.383 4.84766 190.383 4.55859C190.383 3.99609 190.504 3.44141 190.746 2.89453C190.996 2.34766 191.371 1.86328 191.871 1.44141C192.379 1.01172 193.023 0.664062 193.805 0.398438C194.586 0.132812 195.508 0 196.57 0C197.93 0 199.164 0.273438 200.273 0.820312C201.383 1.36719 202.332 2.14844 203.121 3.16406C203.91 4.17969 204.52 5.41406 204.949 6.86719C205.379 8.32031 205.594 9.95312 205.594 11.7656C205.594 14.25 205.391 16.5859 204.984 18.7734C204.586 20.9531 204.043 22.9531 203.355 24.7734C202.668 26.5938 201.863 28.2227 200.941 29.6602C200.027 31.0898 199.055 32.3008 198.023 33.293C197 34.2773 195.949 35.0312 194.871 35.5547C193.793 36.0781 192.746 36.3398 191.73 36.3398C190.77 36.3398 189.898 36.1836 189.117 35.8711C188.336 35.5508 187.668 35.0703 187.113 34.4297C186.566 33.7812 186.141 32.9688 185.836 31.9922C185.539 31.0078 185.391 29.8477 185.391 28.5117Z" fill="#E8B131" fill-opacity="0.98"/>
</svg>
