<svg width="575" height="160" viewBox="0 0 575 160" fill="none" xmlns="http://www.w3.org/2000/svg">
<path d="M24.3606 125.074C27.0898 131.315 30.2002 136.454 33.6918 140.49C37.2027 144.518 41.039 147.263 45.2007 148.725C45.582 149.649 45.721 150.591 45.6178 151.55C45.534 152.502 45.2299 153.418 44.7057 154.298C44.1898 155.197 43.4509 156.027 42.489 156.79C41.5548 157.564 40.4195 158.215 39.0833 158.746C37.7084 159.291 36.2181 159.625 34.6125 159.746C33.0262 159.86 31.3674 159.678 29.6359 159.201C27.9127 158.742 26.1432 157.943 24.3273 156.804C22.5114 155.665 20.6766 154.12 18.823 152.167C16.9971 150.226 15.1744 147.824 13.3549 144.962C11.563 142.111 9.81165 138.73 8.10068 134.816C6.19774 130.464 4.66141 125.989 3.49168 121.391C2.33298 116.766 1.50514 112.144 1.00818 107.525C0.502878 102.887 0.31058 98.3159 0.431292 93.8105C0.571368 89.2975 0.979041 84.9807 1.65431 80.8602C2.3406 76.7128 3.28212 72.8114 4.47889 69.156C5.67566 65.5005 7.09194 62.2172 8.72773 59.306C10.3552 56.3756 12.1884 53.8901 14.2275 51.8492C16.2582 49.7893 18.4549 48.2907 20.8175 47.3535C22.6572 46.6237 24.1159 46.4258 25.1936 46.7599C26.2714 47.0939 27.0565 47.824 27.5489 48.9503C27.7242 49.3511 27.8343 49.733 27.8794 50.0959C27.9438 50.4511 27.9349 50.8467 27.8528 51.2824C25.215 54.3447 23.0584 57.7538 21.3828 61.5096C19.7073 65.2654 18.4502 69.2247 17.6117 73.3876C16.7925 77.5429 16.3668 81.8444 16.3346 86.2923C16.294 90.721 16.5788 95.1663 17.1889 99.6281C17.8101 104.063 18.7329 108.435 19.9574 112.742C21.1819 117.05 22.6497 121.16 24.3606 125.074Z" fill="#E8B131"/>
<path d="M68.5937 63.3698C68.9524 62.3935 69.5391 61.5775 70.3538 60.9216C71.1885 60.2598 72.0651 59.792 72.9835 59.5182C74.7004 59.0062 76.3687 58.813 77.9883 58.9385C79.6278 59.0581 81.1295 59.4252 82.4934 60.0399C83.8508 60.6348 85.024 61.4367 86.0133 62.4456C87.0025 63.4545 87.702 64.5824 88.1119 65.8293C88.294 66.3835 88.446 66.9792 88.5678 67.6166C88.703 68.2282 88.8044 68.9368 88.8719 69.7425C88.9529 70.5224 88.9965 71.4221 89.0027 72.4417C89.009 73.4612 88.9842 74.6529 88.9283 76.0169C88.8863 77.2899 88.8103 78.6925 88.7001 80.2248C88.6034 81.7314 88.4965 83.2736 88.3794 84.8515C88.2557 86.4096 88.1356 87.9449 88.0189 89.4574C87.9222 90.964 87.8429 92.3567 87.7809 93.6356C87.7325 94.8887 87.7183 95.9795 87.7385 96.908C87.7587 97.8364 87.8305 98.4886 87.9541 98.8647C88.2143 99.6564 88.5464 100.133 88.9504 100.295C89.3479 100.437 89.7962 100.434 90.2953 100.285C90.9941 100.077 91.7817 99.5053 92.6581 98.5703C93.5281 97.6155 94.4504 96.2865 95.4251 94.5833C96.4198 92.8741 97.4403 90.777 98.4868 88.2918C99.5468 85.7808 100.606 82.868 101.665 79.5533C102.304 79.3628 102.955 79.2772 103.619 79.2965C104.297 79.2901 104.92 79.3867 105.49 79.5862C106.08 79.7798 106.589 80.0625 107.018 80.4344C107.448 80.8062 107.753 81.2693 107.935 81.8234C108.293 82.912 108.357 84.3056 108.126 86.0043C107.908 87.6772 107.464 89.5266 106.792 91.5522C106.115 93.5581 105.25 95.6631 104.199 97.8672C103.161 100.046 102.007 102.171 100.738 104.245C99.7168 105.94 98.6297 107.568 97.4767 109.129C96.3371 110.664 95.152 112.061 93.9214 113.319C92.6907 114.577 91.4315 115.648 90.1437 116.531C88.8758 117.409 87.593 118.042 86.2953 118.429C85.0375 118.804 83.8705 119.021 82.7942 119.082C81.7244 119.161 80.7326 119.012 79.8187 118.632C78.9248 118.247 78.1223 117.606 77.4112 116.71C76.7136 115.788 76.1046 114.535 75.5842 112.952C75.3045 112.101 75.0554 111.143 74.8369 110.078C74.6319 108.987 74.4378 107.763 74.2545 106.405C73.6878 109.616 72.921 112.486 71.9539 115.012C71.0002 117.513 69.9161 119.684 68.7013 121.524C67.5001 123.338 66.2049 124.8 64.8159 125.909C63.4334 127.039 62.0534 127.809 60.6758 128.22C58.879 128.755 57.317 128.939 55.99 128.769C54.6694 128.62 53.5103 128.161 52.5128 127.394C51.5352 126.621 50.6825 125.56 49.9546 124.213C49.2267 122.865 48.5635 121.281 47.9651 119.46C47.6658 118.55 47.4014 117.411 47.1717 116.046C46.962 114.674 46.8033 113.124 46.6957 111.396C46.588 109.668 46.5344 107.804 46.5349 105.804C46.5554 103.799 46.6429 101.698 46.7975 99.5C45.6959 98.416 44.8403 97.2803 44.2309 96.0929C43.6349 94.8798 43.1352 93.6597 42.7319 92.4327C42.3156 91.166 42.1565 89.6814 42.2545 87.9788C42.3725 86.2703 42.6837 84.4824 43.188 82.6153C43.7058 80.7224 44.4028 78.8412 45.279 76.9718C46.1687 75.0766 47.1736 73.3319 48.2936 71.7374C49.4337 70.1371 50.6684 68.7583 51.998 67.6013C53.3276 66.4442 54.7111 65.6514 56.1485 65.2227C57.1069 64.937 57.9746 64.776 58.7519 64.7398C59.5426 64.6779 60.2394 64.7635 60.8421 64.9967C61.4648 65.2239 62.01 65.6154 62.4777 66.1714C62.9389 66.7075 63.3191 67.4308 63.6184 68.3412C64.2624 70.3006 64.3812 73.2967 63.9749 77.3296C63.5885 81.3564 62.654 86.3834 61.1714 92.4105C61.281 94.8117 61.4424 96.9368 61.6555 98.7856C61.882 100.609 62.1546 102.005 62.4734 102.975C62.7986 103.965 63.2452 104.69 63.8132 105.151C64.3947 105.586 65.1146 105.675 65.9731 105.419C66.4922 105.264 67.0558 104.912 67.6639 104.361C68.2721 103.81 68.8809 103.161 69.4904 102.415C70.0934 101.648 70.6668 100.825 71.2108 99.9457C71.7548 99.0664 72.2322 98.2178 72.6429 97.3999C72.6013 93.8049 72.4945 90.5118 72.3225 87.5207C72.1704 84.5236 71.9376 81.681 71.6241 78.9929C71.304 76.285 70.8937 73.6692 70.393 71.1455C69.9123 68.6158 69.3126 66.0239 68.5937 63.3698Z" fill="#E8B131"/>
<path d="M103.451 82.3786C102.675 81.3047 102.051 80.1038 101.579 78.7758C101.108 77.4479 100.73 76.154 100.445 74.8941C100.17 73.6749 100.15 72.265 100.386 70.6644C100.617 69.0434 101.042 67.3827 101.662 65.6822C102.296 63.9572 103.086 62.2537 104.029 60.5717C104.993 58.8855 106.055 57.3493 107.215 55.9631C108.371 54.5565 109.587 53.3714 110.864 52.4077C112.161 51.4399 113.453 50.8241 114.739 50.5603C115.82 50.3383 116.731 50.2578 117.471 50.3186C118.206 50.3591 118.816 50.553 119.3 50.9001C119.805 51.2431 120.214 51.7331 120.529 52.3702C120.84 52.987 121.101 53.7627 121.312 54.6974C121.487 55.4696 121.63 56.5777 121.743 58.0216C121.856 59.4656 121.897 61.0626 121.866 62.8126C121.834 64.5626 121.705 66.3966 121.476 68.3146C121.244 70.2122 120.881 72.0089 120.389 73.7046C121.783 69.2935 123.267 65.5126 124.839 62.362C126.427 59.1869 128.031 56.5509 129.649 54.4539C131.268 52.357 132.86 50.7547 134.424 49.6469C136.009 48.5349 137.486 47.8387 138.853 47.5582C140.302 47.2609 141.618 47.2248 142.801 47.4499C143.979 47.6547 145.014 48.0801 145.908 48.726C146.817 49.3474 147.565 50.1509 148.151 51.1363C148.753 52.0973 149.191 53.1874 149.467 54.4066C149.844 56.0728 150.012 58.0903 149.971 60.4589C149.925 62.8071 149.577 65.6109 148.926 68.8701C148.765 69.8599 148.572 70.9415 148.346 72.1147C148.141 73.2838 147.932 74.4855 147.72 75.7197C147.524 76.9295 147.328 78.1392 147.131 79.3489C146.951 80.5341 146.8 81.6602 146.678 82.7271C146.552 83.7736 146.478 84.7242 146.458 85.5789C146.438 86.4336 146.488 87.1251 146.607 87.6534C146.763 88.3443 147.027 88.8006 147.397 89.0223C147.763 89.2236 148.232 89.2657 148.803 89.1484C149.436 89.0186 150.287 88.4399 151.357 87.4123C152.423 86.3644 153.594 84.9334 154.871 83.1192C156.168 81.3009 157.52 79.1098 158.926 76.5462C160.353 73.9783 161.723 71.1137 163.037 67.9524C163.629 67.8309 164.233 67.8132 164.851 67.8992C165.484 67.9606 166.066 68.1282 166.598 68.4018C167.146 68.6509 167.62 69.0002 168.02 69.4496C168.421 69.899 168.692 70.4386 168.835 71.0686C169.056 72.0439 169.003 73.2772 168.679 74.7685C168.37 76.2352 167.849 77.8518 167.117 79.618C166.384 81.3843 165.469 83.2411 164.372 85.1885C163.275 87.1359 162.057 89.0658 160.716 90.978C159.397 92.886 157.977 94.7294 156.458 96.5084C154.954 98.2628 153.423 99.8526 151.866 101.278C150.309 102.703 148.743 103.896 147.166 104.857C145.61 105.815 144.108 106.442 142.659 106.739C140.822 107.116 139.225 107.231 137.868 107.084C136.511 106.937 135.35 106.527 134.386 105.853C133.422 105.179 132.624 104.248 131.992 103.059C131.376 101.846 130.873 100.376 130.482 98.6484C130.17 97.2666 129.99 95.762 129.942 94.1345C129.915 92.5029 129.957 90.8464 130.068 89.1651C130.174 87.4635 130.33 85.7942 130.537 84.1571C130.759 82.4955 130.96 80.9765 131.14 79.6C131.315 78.2032 131.448 76.9959 131.538 75.978C131.649 74.956 131.651 74.2113 131.545 73.7439C131.32 72.7482 130.708 72.353 129.708 72.5581C129.422 72.6168 128.992 72.8431 128.42 73.237C127.847 73.631 127.187 74.2554 126.441 75.1102C125.69 75.9447 124.89 77.0338 124.04 78.3775C123.187 79.7009 122.338 81.3315 121.495 83.2693C121.588 85.7592 121.697 88.0334 121.821 90.0917C121.96 92.1256 122.125 94.08 122.314 95.9549C122.503 97.8297 122.735 99.7064 123.01 101.585C123.281 103.443 123.604 105.439 123.98 107.573C123.743 107.941 123.497 108.268 123.241 108.554C123.001 108.816 122.711 109.046 122.372 109.243C122.032 109.44 121.612 109.612 121.111 109.757C120.635 109.918 120.039 110.072 119.325 110.219C117.57 110.579 115.86 110.526 114.196 110.059C112.531 109.593 111.003 108.833 109.612 107.778C108.236 106.7 107.039 105.372 106.02 103.795C105.022 102.214 104.291 100.493 103.827 98.6315C103.29 96.254 102.987 93.7327 102.918 91.0677C102.849 88.4027 103.027 85.5063 103.451 82.3786Z" fill="#E8B131"/>
<path d="M188.308 49.0271C187.883 45.6579 187.288 42.518 186.522 39.6072C185.756 36.6964 184.813 34.047 183.693 31.659C182.594 29.2686 181.319 27.1499 179.868 25.3029C178.438 23.4536 176.837 21.907 175.063 20.6631C174.979 19.6662 175.112 18.718 175.46 17.8184C175.809 16.9189 176.358 16.1117 177.108 15.3969C177.857 14.6821 178.79 14.0828 179.904 13.5988C181.017 13.0941 182.287 12.7601 183.715 12.5968C185.205 12.4263 186.726 12.4935 188.276 12.7985C189.847 13.101 191.393 13.7104 192.916 14.6266C194.435 15.5221 195.904 16.759 197.32 18.3373C198.735 19.8949 200.043 21.8629 201.246 24.2415C202.446 26.5994 203.503 29.4035 204.417 32.6538C205.348 35.8811 206.081 39.6134 206.616 43.8507C207.21 48.5634 207.409 53.3107 207.214 58.0927C207.038 62.8517 206.537 67.5428 205.713 72.1661C204.887 76.7687 203.781 81.2355 202.395 85.5666C201.009 89.8977 199.402 93.9711 197.574 97.7867C195.748 101.623 193.747 105.154 191.571 108.381C189.416 111.605 187.145 114.412 184.759 116.803C182.375 119.214 179.91 121.142 177.362 122.587C174.838 124.05 172.314 124.925 169.788 125.214C167.822 125.439 166.37 125.249 165.433 124.643C164.517 124.035 163.981 123.121 163.828 121.902C163.773 121.468 163.765 121.07 163.803 120.709C163.842 120.349 163.972 119.967 164.194 119.564C167.582 117.289 170.597 114.554 173.238 111.358C175.901 108.16 178.209 104.657 180.165 100.847C182.141 97.0359 183.773 92.9912 185.06 88.7133C186.365 84.4123 187.346 80.0332 188.002 75.5759C188.655 71.098 189.003 66.613 189.046 62.121C189.088 57.629 188.842 53.2644 188.308 49.0271Z" fill="#E8B131"/>
<path d="M225.735 58.2265C226.01 56.1292 226.316 53.8427 226.656 51.3672C227.015 48.8699 227.351 46.332 227.664 43.7533C227.999 41.1737 228.313 38.6159 228.608 36.0797C228.903 33.5436 229.143 31.1767 229.329 28.979C229.683 24.6468 230.454 20.7448 231.642 17.2728C232.851 13.8 234.355 10.8355 236.155 8.37932C237.956 5.92319 239.991 4.01978 242.262 2.66909C244.553 1.29668 246.957 0.555308 249.475 0.44496C250.849 0.38477 252.096 0.49698 253.215 0.781591C254.334 1.0662 255.296 1.5558 256.101 2.25037C256.907 2.94495 257.546 3.86577 258.018 5.01284C258.49 6.1391 258.765 7.51378 258.843 9.13689C258.888 10.0733 258.852 11.055 258.735 12.0819C258.638 13.0871 258.431 14.2014 258.114 15.4248C257.819 16.6472 257.405 18.0207 256.874 19.5455C256.342 21.0493 255.675 22.7781 254.872 24.7318C254.069 26.6646 253.111 28.8544 251.998 31.3013C250.886 33.7482 249.601 36.5049 248.143 39.5717C247.78 41.1307 247.393 42.8367 246.982 44.6898C246.57 46.5221 246.151 48.4277 245.725 50.4065C245.298 52.3646 244.872 54.3434 244.447 56.3431C244.023 58.3427 243.606 60.3003 243.198 62.2158C242.81 64.1096 242.449 65.9188 242.115 67.6434C241.78 69.3472 241.49 70.8926 241.244 72.2797C240.997 73.646 240.803 74.8118 240.662 75.7772C240.542 76.7418 240.491 77.4217 240.51 77.8171C240.544 78.5246 240.724 79.0172 241.051 79.2948C241.377 79.5724 241.831 79.6985 242.414 79.673C243.413 79.6292 244.579 79.1506 245.912 78.2373C247.264 77.3022 248.704 76.0192 250.231 74.3883C251.758 72.7574 253.333 70.822 254.956 68.5822C256.579 66.3423 258.161 63.8958 259.701 61.2425C260.305 61.216 260.903 61.2941 261.496 61.4767C262.089 61.6592 262.624 61.9381 263.101 62.3135C263.577 62.668 263.963 63.1098 264.26 63.639C264.576 64.1464 264.75 64.7227 264.781 65.3678C264.84 66.5747 264.593 67.941 264.041 69.4666C263.509 70.9913 262.742 72.5889 261.738 74.2594C260.755 75.9291 259.575 77.6386 258.2 79.3879C256.823 81.1165 255.319 82.7985 253.688 84.434C252.077 86.0477 250.367 87.5823 248.561 89.0378C246.775 90.4924 244.959 91.771 243.114 92.8736C241.29 93.9753 239.477 94.8576 237.673 95.5205C235.891 96.1825 234.198 96.5486 232.595 96.6189C230.743 96.7 229.162 96.5608 227.851 96.2011C226.541 95.8623 225.461 95.3049 224.61 94.5289C223.78 93.752 223.159 92.7575 222.745 91.5452C222.332 90.333 222.086 88.8945 222.005 87.2298C221.936 85.794 221.964 84.2079 222.088 82.4716C222.213 80.7354 222.387 78.9448 222.611 77.0999C222.856 75.2541 223.131 73.407 223.438 71.5584C223.744 69.6891 224.045 67.9243 224.34 66.2639C224.635 64.5828 224.905 63.0487 225.15 61.6616C225.417 60.2736 225.612 59.1286 225.735 58.2265Z" fill="#E8B131"/>
<path d="M280.483 18.1513C280.506 15.5472 280.661 13.3505 280.948 11.561C281.234 9.77164 281.643 8.32698 282.174 7.22707C282.705 6.12716 283.357 5.33033 284.133 4.83658C284.929 4.343 285.837 4.10033 286.858 4.10858C287.712 4.11549 288.565 4.26822 289.417 4.56678C290.289 4.86551 291.129 5.26815 291.937 5.77469C292.745 6.26041 293.49 6.82895 294.172 7.48031C294.875 8.13185 295.483 8.82429 295.997 9.55764C296.512 10.2702 296.912 10.9922 297.197 11.7237C297.503 12.4553 297.653 13.1545 297.647 13.8211C297.64 14.5919 297.476 15.4864 297.154 16.5047C296.833 17.5021 296.323 18.6439 295.624 19.93C294.925 21.216 294.027 22.6463 292.929 24.2208C291.832 25.7745 290.504 27.4826 288.946 29.345C287.696 29.3349 286.542 29.0964 285.483 28.6295C284.446 28.1419 283.556 27.4368 282.815 26.5141C282.073 25.5706 281.489 24.4096 281.064 23.0311C280.66 21.632 280.466 20.0053 280.483 18.1513ZM263.519 66.6407C263.009 65.4282 262.677 64.1234 262.522 62.7263C262.368 61.3291 262.297 59.9848 262.308 58.6932C262.319 57.4432 262.623 56.0602 263.22 54.5441C263.817 53.0073 264.623 51.472 265.636 49.9385C266.65 48.3842 267.81 46.8831 269.114 45.4352C270.44 43.9876 271.816 42.707 273.242 41.5935C274.69 40.4593 276.156 39.5545 277.642 38.879C279.127 38.2034 280.526 37.871 281.838 37.8816C283.317 37.8936 284.472 38.1008 285.302 38.5034C286.152 38.8853 286.793 39.4321 287.225 40.144C287.656 40.8558 287.919 41.7225 288.014 42.7442C288.13 43.7451 288.182 44.8706 288.171 46.1206C288.164 46.9539 288.03 47.9007 287.771 48.9612C287.512 50.0216 287.168 51.1647 286.74 52.3904C286.313 53.5954 285.823 54.8519 285.269 56.1599C284.716 57.468 284.142 58.7967 283.546 60.1461C282.631 62.3471 281.832 64.2782 281.151 65.9395C280.49 67.58 279.936 69.0235 279.487 70.2699C279.038 71.5163 278.706 72.597 278.489 73.5119C278.273 74.4269 278.161 75.2489 278.155 75.9781C278.149 76.6864 278.3 77.1876 278.61 77.4818C278.92 77.776 279.367 77.9254 279.95 77.9301C280.388 77.9337 281.077 77.6684 282.02 77.1343C282.962 76.5794 284.116 75.6721 285.482 74.4122C286.868 73.1526 288.456 71.4987 290.245 69.4506C292.055 67.3818 294.046 64.8353 296.219 61.8111C296.823 61.816 297.416 61.9458 297.997 62.2005C298.599 62.4345 299.128 62.7617 299.582 63.1821C300.058 63.6026 300.439 64.0953 300.725 64.6601C301.012 65.2041 301.153 65.799 301.147 66.4449C301.138 67.4448 300.825 68.6402 300.209 70.0311C299.613 71.4014 298.777 72.8738 297.701 74.4485C296.645 76.0234 295.401 77.6488 293.969 79.3248C292.538 81.0007 290.992 82.6341 289.332 84.2249C287.693 85.8159 285.971 87.3229 284.166 88.7458C282.362 90.1479 280.559 91.3834 278.758 92.4522C276.978 93.5212 275.231 94.3613 273.517 94.9724C271.824 95.5838 270.238 95.8835 268.759 95.8715C266.884 95.8563 265.302 95.6352 264.014 95.2081C262.726 94.781 261.69 94.1372 260.906 93.2767C260.122 92.4162 259.559 91.3387 259.216 90.0442C258.895 88.729 258.742 87.1861 258.758 85.4153C258.77 83.9987 258.866 82.6036 259.045 81.23C259.245 79.8357 259.539 78.3902 259.927 76.8932C260.316 75.3963 260.809 73.8065 261.407 72.1238C262.006 70.4411 262.71 68.6134 263.519 66.6407Z" fill="#E8B131"/>
<path d="M344.519 62.2008C347.544 58.5339 350.297 55.4584 352.778 52.9744C355.259 50.4903 357.531 48.5095 359.592 47.0318C361.653 45.5541 363.521 44.5288 365.194 43.9558C366.869 43.3621 368.401 43.1314 369.791 43.2638C371.263 43.4041 372.512 43.7847 373.536 44.4054C374.581 45.0282 375.41 45.8082 376.024 46.7457C376.66 47.6643 377.095 48.7102 377.328 49.8834C377.561 51.0566 377.612 52.2647 377.481 53.5079C377.307 55.1654 376.814 57.0647 376.003 59.2056C375.212 61.3485 374.095 63.7113 372.651 66.2942C372.179 67.191 371.621 68.2155 370.977 69.3678C370.334 70.4994 369.675 71.6922 368.998 72.9461C368.324 74.1793 367.648 75.4333 366.969 76.7079C366.293 77.9618 365.687 79.1492 365.15 80.2699C364.613 81.3907 364.161 82.4044 363.794 83.3111C363.449 84.199 363.248 84.9123 363.192 85.451C363.118 86.1555 363.211 86.6666 363.471 86.9844C363.753 87.2833 364.185 87.4605 364.766 87.5159C365.347 87.5712 366.301 87.2541 367.631 86.5647C368.983 85.8564 370.593 84.7857 372.461 83.3523C374.352 81.9003 376.45 80.0807 378.753 77.8937C381.077 75.7086 383.502 73.1668 386.027 70.2684C386.628 70.3257 387.208 70.4857 387.767 70.7482C388.349 70.992 388.849 71.3221 389.266 71.7385C389.706 72.1362 390.044 72.6079 390.28 73.1535C390.516 73.6992 390.6 74.2932 390.532 74.9355C390.428 75.93 389.969 77.1105 389.155 78.4768C388.362 79.8452 387.309 81.2935 385.996 82.8216C384.684 84.3497 383.167 85.9316 381.445 87.5672C379.746 89.1841 377.926 90.758 375.984 92.289C374.045 93.7993 372.042 95.2197 369.975 96.5504C367.929 97.8831 365.913 99.0302 363.927 99.9919C361.94 100.954 360.031 101.682 358.199 102.177C356.385 102.695 354.741 102.883 353.269 102.743C351.382 102.563 349.817 102.205 348.575 101.668C347.332 101.131 346.362 100.4 345.663 99.4757C344.964 98.5511 344.506 97.4297 344.288 96.1115C344.093 94.7745 344.087 93.2358 344.27 91.4954C344.418 90.0865 344.769 88.54 345.323 86.8558C345.877 85.1717 346.528 83.4654 347.275 81.7369C348.024 79.9877 348.813 78.2631 349.64 76.5632C350.468 74.8634 351.24 73.3046 351.954 71.8869C352.671 70.4484 353.273 69.1979 353.762 68.1354C354.251 67.0728 354.519 66.3137 354.567 65.8578C354.673 64.8426 354.219 64.2865 353.202 64.1897C352.912 64.162 352.406 64.2917 351.685 64.5787C350.984 64.8677 350.117 65.35 349.082 66.0257C348.07 66.6827 346.93 67.568 345.661 68.6818C344.394 69.7748 343.048 71.1219 341.623 72.723C340.91 75.1244 340.253 77.3951 339.651 79.535C339.051 81.6543 338.488 83.7247 337.962 85.7462C337.458 87.7491 336.996 89.7558 336.575 91.7666C336.177 93.7586 335.813 95.827 335.483 97.972C335.14 98.2531 334.789 98.5022 334.431 98.7192C334.094 98.9382 333.72 99.1014 333.311 99.2089C332.9 99.3371 332.441 99.4189 331.934 99.4544C331.428 99.4898 330.843 99.4759 330.179 99.4127C328.396 99.2427 326.788 98.8907 325.357 98.3567C323.924 97.8434 322.723 97.1117 321.754 96.1614C320.786 95.2111 320.071 94.0443 319.608 92.6609C319.169 91.2588 319.029 89.6027 319.188 87.6926C319.316 86.4701 319.573 85.1239 319.957 83.6538C320.365 82.165 320.851 80.6313 321.415 79.0528C321.979 77.4742 322.607 75.8809 323.299 74.2727C324.015 72.6459 324.732 71.1028 325.451 69.6437C325.774 68.963 326.095 68.2926 326.416 67.6326C326.76 66.9538 327.068 66.3135 327.341 65.7117C327.613 65.1099 327.839 64.5559 328.018 64.0498C328.217 63.5456 328.334 63.1382 328.366 62.8274C328.425 62.2679 328.342 61.8624 328.117 61.6108C327.892 61.3592 327.52 61.2086 327.002 61.1592C326.712 61.1316 326.283 61.2267 325.715 61.4447C325.168 61.6646 324.475 62.0799 323.636 62.6905C322.82 63.2824 321.844 64.0997 320.708 65.1424C319.595 66.1664 318.326 67.4789 316.901 69.08C316.209 71.4834 315.561 73.7551 314.96 75.895C314.381 78.0162 313.838 80.0886 313.333 82.1122C312.85 84.117 312.408 86.1257 312.008 88.1384C311.611 90.1304 311.247 92.1989 310.917 94.3438C310.573 94.625 310.234 94.8647 309.898 95.0629C309.586 95.2425 309.237 95.3766 308.851 95.4653C308.464 95.5541 308.01 95.5945 307.487 95.5865C306.983 95.6012 306.368 95.574 305.642 95.5048C303.858 95.3348 302.25 94.7944 300.816 93.8835C299.385 92.9519 298.179 91.7697 297.198 90.337C296.238 88.9062 295.527 87.3003 295.065 85.5193C294.626 83.7196 294.485 81.8647 294.644 79.9545C294.772 78.7321 294.993 77.4347 295.304 76.0623C295.618 74.6692 296.009 73.2416 296.477 71.7794C296.947 70.2965 297.48 68.8092 298.077 67.3175C298.694 65.8278 299.349 64.3731 300.043 62.9534C299.651 61.7022 299.445 60.3747 299.425 58.9707C299.405 57.5666 299.461 56.2327 299.594 54.9688C299.726 53.7049 300.121 52.445 300.776 51.1891C301.455 49.9145 302.305 48.6981 303.327 47.5399C304.373 46.363 305.556 45.2724 306.876 44.2682C308.196 43.264 309.564 42.4107 310.978 41.7085C312.415 40.9874 313.864 40.4558 315.325 40.1137C316.787 39.7508 318.172 39.6316 319.478 39.7562C321.324 39.9321 322.649 40.4769 323.454 41.3906C324.282 42.2857 324.594 43.6966 324.392 45.6235C324.309 46.4109 324.155 47.2855 323.928 48.2474C323.703 49.1887 323.373 50.235 322.938 51.3863C322.524 52.5397 321.982 53.8064 321.314 55.1867C320.668 56.5482 319.873 58.0315 318.93 59.6366C321.675 55.8384 324.166 52.7589 326.404 50.3982C328.663 48.0395 330.73 46.2066 332.606 44.8996C334.503 43.5945 336.236 42.7448 337.807 42.3503C339.4 41.9372 340.892 41.7968 342.281 41.9292C343.484 42.0438 344.531 42.3425 345.423 42.8251C346.317 43.287 347.04 43.8894 347.59 44.6324C348.163 45.3567 348.568 46.1905 348.804 47.1338C349.04 48.0771 349.103 49.077 348.992 50.1337C348.905 50.9625 348.797 51.7893 348.668 52.6141C348.542 53.4182 348.325 54.2869 348.018 55.2203C347.71 56.1536 347.277 57.19 346.717 58.3295C346.18 59.4503 345.448 60.7407 344.519 62.2008Z" fill="#E8B131"/>
<path d="M410.751 32.1801C411.269 29.628 411.84 27.4985 412.462 25.7916C413.085 24.0848 413.762 22.7375 414.494 21.7497C415.226 20.7619 416.021 20.0928 416.878 19.7424C417.756 19.3957 418.697 19.3148 419.701 19.4996C420.541 19.6543 421.352 19.9519 422.134 20.3924C422.937 20.8367 423.688 21.3774 424.387 22.0146C425.091 22.6313 425.717 23.3183 426.265 24.0758C426.833 24.837 427.3 25.622 427.668 26.4309C428.039 27.2194 428.296 27.9974 428.437 28.7648C428.6 29.536 428.615 30.2482 428.482 30.9016C428.329 31.657 427.997 32.5067 427.486 33.4505C426.98 34.374 426.261 35.4064 425.328 36.5477C424.395 37.6891 423.238 38.9376 421.858 40.2931C420.481 41.6282 418.849 43.075 416.96 44.6333C415.73 44.407 414.639 43.973 413.685 43.3315C412.756 42.6732 412.014 41.827 411.458 40.7929C410.907 39.7383 410.553 38.4976 410.396 37.0709C410.264 35.6275 410.383 33.9972 410.751 32.1801ZM384.822 76.8402C384.551 75.5617 384.471 74.2234 384.585 72.8253C384.699 71.4272 384.884 70.0952 385.141 68.8293C385.39 67.6043 385.952 66.2994 386.828 64.9145C387.709 63.5093 388.794 62.1418 390.084 60.812C391.378 59.4618 392.805 58.189 394.366 56.9937C395.947 55.8022 397.545 54.7834 399.162 53.9374C400.804 53.0748 402.421 52.4405 404.012 52.0346C405.604 51.6287 407.045 51.5445 408.335 51.7822C409.79 52.05 410.888 52.4534 411.629 52.9922C412.394 53.5144 412.922 54.1622 413.211 54.9356C413.5 55.709 413.595 56.6053 413.494 57.6246C413.418 58.6273 413.256 59.7411 413.007 60.9662C412.842 61.7828 412.53 62.6892 412.073 63.6852C411.616 64.6812 411.06 65.7438 410.406 66.8729C409.756 67.9817 409.034 69.1302 408.24 70.3184C407.446 71.5065 406.628 72.7114 405.785 73.9329C404.465 75.9349 403.311 77.6922 402.324 79.2048C401.361 80.7009 400.541 82.0218 399.862 83.1676C399.183 84.3134 398.65 85.3166 398.263 86.1772C397.876 87.0379 397.609 87.8255 397.464 88.5401C397.324 89.2343 397.378 89.7526 397.627 90.095C397.876 90.4374 398.288 90.6614 398.862 90.7671C399.292 90.8463 400.022 90.7054 401.052 90.3443C402.085 89.9628 403.395 89.2719 404.979 88.2717C406.584 87.2752 408.463 85.9267 410.614 84.226C412.791 82.5087 415.237 80.3539 417.952 77.7616C418.546 77.871 419.105 78.101 419.629 78.4516C420.178 78.7856 420.636 79.1983 421.004 79.6896C421.392 80.1847 421.674 80.7343 421.849 81.3384C422.028 81.9221 422.053 82.5304 421.925 83.1633C421.726 84.1433 421.191 85.2626 420.319 86.5211C419.472 87.7631 418.368 89.0637 417.008 90.423C415.669 91.786 414.135 93.1662 412.406 94.5635C410.677 95.9607 408.844 97.2964 406.906 98.5705C404.989 99.8484 403.006 101.029 400.959 102.114C398.915 103.178 396.904 104.078 394.927 104.816C392.97 105.557 391.089 106.079 389.284 106.382C387.501 106.689 385.881 106.708 384.427 106.441C382.583 106.101 381.067 105.61 379.879 104.968C378.692 104.326 377.794 103.514 377.185 102.534C376.576 101.553 376.226 100.398 376.135 99.0682C376.068 97.7216 376.211 96.1805 376.563 94.4451C376.845 93.0567 377.204 91.7039 377.642 90.3865C378.104 89.0525 378.668 87.6845 379.336 86.2823C380.003 84.8802 380.791 83.4051 381.7 81.8569C382.609 80.3087 383.65 78.6365 384.822 76.8402Z" fill="#E8B131"/>
<path d="M413.564 95.329C413.808 94.4239 414.214 93.2797 414.782 91.8963C415.35 90.5129 416.147 88.7997 417.173 86.7567C418.2 84.7137 419.494 82.3182 421.056 79.5701C422.623 76.8019 424.523 73.6006 426.756 69.9661C426.145 69.7521 425.567 69.5354 425.022 69.3162C424.503 69.0817 424.058 68.8119 423.687 68.5067C423.343 68.1863 423.1 67.8052 422.961 67.3636C422.826 66.9019 422.852 66.3291 423.036 65.6452C423.297 64.6798 423.706 63.8043 424.263 63.0188C424.846 62.2181 425.564 61.5577 426.416 61.0374C427.269 60.5172 428.238 60.1649 429.323 59.9805C430.408 59.7961 431.591 59.85 432.871 60.1422C433.086 59.5085 433.284 58.8925 433.468 58.294C433.676 57.6805 433.893 57.0367 434.119 56.3628C434.369 55.6737 434.649 54.9167 434.958 54.0918C435.267 53.2669 435.638 52.2961 436.069 51.1794C437.085 48.5336 438.368 46.1783 439.918 44.1135C441.489 42.0536 443.215 40.3751 445.097 39.0778C446.979 37.7806 448.965 36.8949 451.057 36.4209C453.168 35.9518 455.286 35.9775 457.411 36.4981C458.848 36.8501 460.047 37.2832 461.008 37.7976C461.99 38.3168 462.735 38.9499 463.246 39.6968C463.776 40.4486 464.078 41.3268 464.152 42.3313C464.246 43.3408 464.114 44.5092 463.756 45.8367C463.582 46.4803 463.36 47.1014 463.091 47.7002C462.841 48.3038 462.495 48.948 462.051 49.6327C461.627 50.3223 461.086 51.0902 460.426 51.9364C459.791 52.7674 459 53.742 458.05 54.8604C457.127 55.9636 456.028 57.2383 454.753 58.6842C453.478 60.1302 451.998 61.8155 450.313 63.7401C451.295 63.9378 452.328 64.148 453.411 64.3705C454.52 64.5779 455.581 64.7628 456.594 64.9253C457.608 65.0878 458.52 65.2255 459.331 65.3384C460.167 65.4361 460.799 65.4943 461.225 65.513C461.534 65.8888 461.775 66.3125 461.95 66.7842C462.145 67.2608 462.281 67.7552 462.358 68.2674C462.436 68.7796 462.457 69.2994 462.422 69.8271C462.393 70.3346 462.316 70.8196 462.191 71.2822C461.876 72.4487 461.401 73.4902 460.765 74.4066C460.129 75.323 459.387 76.074 458.539 76.6595C457.69 77.245 456.774 77.6424 455.79 77.8516C454.805 78.0608 453.797 78.0389 452.765 77.7861C452.037 77.6076 451.321 77.4216 450.619 77.2279C449.936 77.0393 449.236 76.8356 448.518 76.6169C447.806 76.3781 447.069 76.1117 446.307 75.8178C445.545 75.5239 444.738 75.1974 443.886 74.8385C442.118 78.0293 440.603 80.8426 439.341 83.2782C438.1 85.7188 437.06 87.8121 436.221 89.5581C435.403 91.309 434.772 92.7303 434.326 93.8219C433.885 94.8934 433.603 95.6605 433.478 96.1231C433.081 97.5913 433.021 98.7344 433.296 99.5524C433.591 100.375 434.387 100.945 435.682 101.263C436.957 101.575 438.524 101.562 440.384 101.225C442.265 100.892 444.364 100.227 446.683 99.2299C449.007 98.2125 451.51 96.8529 454.192 95.1512C456.879 93.4293 459.684 91.3503 462.607 88.9143C463.194 89.0581 463.754 89.3024 464.286 89.6473C464.839 89.9972 465.296 90.4202 465.659 90.9164C466.047 91.3974 466.312 91.9341 466.454 92.5264C466.621 93.1036 466.621 93.7039 466.453 94.3274C466.208 95.2325 465.623 96.2794 464.698 97.468C463.773 98.6566 462.596 99.9013 461.166 101.202C459.756 102.508 458.125 103.834 456.273 105.182C454.446 106.514 452.496 107.784 450.422 108.991C448.369 110.204 446.226 111.309 443.993 112.305C441.781 113.307 439.575 114.128 437.374 114.769C435.199 115.394 433.063 115.793 430.967 115.965C428.891 116.143 426.963 116.013 425.182 115.577C422.795 114.992 420.696 114.135 418.887 113.005C417.092 111.901 415.666 110.512 414.608 108.837C413.571 107.168 412.944 105.213 412.729 102.973C412.52 100.713 412.798 98.1649 413.564 95.329Z" fill="#E8B131"/>
<path d="M490.061 88.3258C490.508 87.0477 490.624 85.992 490.408 85.1587C490.219 84.3121 489.757 83.7722 489.022 83.5389C488.605 83.4065 488.006 83.5112 487.225 83.853C486.47 84.1814 485.622 84.7752 484.682 85.6346C483.741 86.4939 482.757 87.6344 481.73 89.0562C480.723 90.4843 479.742 92.2157 478.787 94.2504C480.598 94.4976 482.143 94.4966 483.421 94.2471C484.707 93.978 485.792 93.5577 486.676 92.9863C487.56 92.4149 488.266 91.7214 488.794 90.9059C489.322 90.0904 489.744 89.2304 490.061 88.3258ZM467.07 126.122C464.091 125.176 461.658 123.901 459.771 122.297C457.903 120.699 456.547 118.804 455.703 116.613C454.886 114.409 454.571 111.939 454.757 109.201C454.949 106.444 455.617 103.433 456.76 100.169C457.826 97.1208 459.27 94.2254 461.09 91.4824C462.918 88.7197 464.975 86.183 467.262 83.8722C469.549 81.5613 471.985 79.5165 474.572 77.7377C477.178 75.9651 479.773 74.5388 482.357 73.4585C484.949 72.3586 487.455 71.6579 489.877 71.3564C492.326 71.0416 494.543 71.1994 496.529 71.8299C500.739 73.1666 503.607 75.2137 505.135 77.9712C506.67 80.709 506.698 84.1918 505.218 88.4195C504.331 90.9561 503.097 93.2192 501.518 95.2086C499.946 97.1785 497.93 98.8105 495.469 100.105C493.035 101.386 490.118 102.284 486.716 102.799C483.342 103.3 479.404 103.361 474.904 102.981C474.429 104.337 474.085 105.572 473.873 106.684C473.686 107.783 473.678 108.753 473.847 109.593C474.036 110.44 474.443 111.17 475.067 111.783C475.71 112.402 476.628 112.901 477.819 113.28C479.884 113.935 482.213 114.216 484.805 114.121C487.424 114.014 490.144 113.555 492.964 112.747C495.805 111.944 498.672 110.812 501.567 109.349C504.488 107.874 507.273 106.093 509.923 104.006C510.651 104.259 511.258 104.605 511.744 105.043C512.238 105.462 512.617 105.921 512.884 106.421C513.157 106.901 513.31 107.409 513.344 107.944C513.397 108.485 513.341 108.992 513.176 109.463C512.784 110.584 512.032 111.755 510.921 112.975C509.837 114.182 508.48 115.379 506.851 116.566C505.249 117.74 503.425 118.887 501.378 120.006C499.338 121.107 497.173 122.123 494.883 123.057C492.599 123.97 490.238 124.761 487.798 125.428C485.358 126.095 482.934 126.593 480.524 126.92C478.122 127.228 475.772 127.323 473.475 127.205C471.19 127.114 469.055 126.752 467.07 126.122Z" fill="#E8B131"/>
<path d="M502.367 115.554C503.633 112.697 505.25 110.026 507.217 107.541C509.185 105.056 511.344 102.805 513.696 100.789C516.067 98.78 518.527 97.0318 521.077 95.544C523.655 94.0449 526.169 92.8682 528.62 92.014C531.091 91.1675 533.419 90.6678 535.605 90.5147C537.8 90.3426 539.689 90.5753 541.274 91.2128C543.13 91.9592 544.299 92.9682 544.783 94.2401C545.286 95.5196 545.196 96.9308 544.512 98.4735C544.411 98.702 544.3 98.9267 544.179 99.1474C544.078 99.376 543.933 99.5985 543.746 99.815C541.891 100.146 540.092 100.713 538.347 101.514C536.611 102.297 534.949 103.245 533.363 104.357C531.804 105.458 530.324 106.692 528.921 108.057C527.527 109.404 526.244 110.807 525.074 112.266C523.911 113.706 522.873 115.174 521.96 116.669C521.047 118.164 520.282 119.607 519.665 120.997C519.226 121.988 518.926 122.844 518.766 123.565C518.634 124.274 518.624 124.887 518.736 125.404C518.868 125.928 519.119 126.366 519.487 126.716C519.864 127.047 520.352 127.333 520.951 127.574C521.783 127.908 522.873 127.786 524.223 127.207C525.581 126.609 527.091 125.645 528.751 124.315C530.419 122.967 532.174 121.294 534.016 119.297C535.886 117.288 537.738 115.037 539.572 112.544C541.434 110.039 543.229 107.327 544.956 104.408C546.702 101.497 548.275 98.4612 549.677 95.2996C551.18 91.9095 552.047 88.7462 552.279 85.8097C552.53 82.8809 552.222 80.21 551.356 77.797C550.509 75.3917 549.147 73.2504 547.269 71.373C545.419 69.4842 543.14 67.8944 540.433 66.6035C540.094 65.9287 539.956 65.1884 540.017 64.3827C540.097 63.5847 540.294 62.8334 540.606 62.1287C541.214 60.7574 542.113 59.5257 543.303 58.4335C544.513 57.3491 545.964 56.5415 547.657 56.0106C549.378 55.4684 551.348 55.2623 553.568 55.3922C555.788 55.5221 558.212 56.1158 560.841 57.1731C564.204 58.5259 566.963 60.4208 569.116 62.858C571.27 65.2952 572.774 68.1443 573.628 71.4055C574.483 74.6666 574.656 78.2822 574.149 82.2523C573.641 86.2223 572.408 90.4166 570.449 94.8352C567.764 100.892 564.737 106.384 561.367 111.313C558.026 116.23 554.521 120.565 550.852 124.318C547.184 128.072 543.433 131.242 539.598 133.829C535.792 136.405 532.077 138.389 528.453 139.781C524.857 141.163 521.442 141.955 518.209 142.158C514.976 142.361 512.103 141.957 509.591 140.947C507.213 139.99 505.227 138.743 503.632 137.203C502.045 135.645 500.912 133.809 500.232 131.695C499.58 129.57 499.405 127.166 499.707 124.482C500.036 121.787 500.923 118.811 502.367 115.554Z" fill="#E8B131"/>
</svg>
