<svg width="549" height="141" viewBox="0 0 549 141" fill="none" xmlns="http://www.w3.org/2000/svg">
<path d="M41.2106 140.043C36.1559 139.689 31.4145 138.519 26.9864 136.532C22.5584 134.545 18.6328 132.018 15.2097 128.95C11.7546 125.824 8.82063 122.261 6.40779 118.262C4.05346 114.23 2.37736 109.98 1.37949 105.511C0.44013 101.011 0.21367 96.4247 0.70011 91.7529C1.21309 86.9906 2.62533 82.3449 4.93683 77.8155C6.44063 74.8669 7.97964 72.8867 9.55387 71.8747C11.1281 70.8628 12.5352 70.5879 13.7752 71.05C15.0152 71.512 16.0109 72.6394 16.7623 74.4319C17.5136 76.2244 17.8316 78.4057 17.7163 80.9756C17.5635 83.338 17.8233 85.9689 18.4956 88.8682C19.1679 91.7674 20.1275 94.7756 21.3746 97.8926C22.6801 100.978 24.1799 104.071 25.8739 107.171C27.6263 110.24 29.4931 113.171 31.4742 115.963C33.4818 118.664 35.5558 121.14 37.6962 123.389C39.895 125.606 42.0616 127.347 44.196 128.612C45.9365 129.712 47.1904 130.964 47.9574 132.369C48.783 133.741 49.0685 135.028 48.8139 136.231C48.5593 137.433 47.8044 138.416 46.5493 139.177C45.2941 139.939 43.5146 140.227 41.2106 140.043Z" fill="#E8B131" fill-opacity="0.98"/>
<path d="M96.2253 90.0351C96.9626 89.7246 97.5479 89.2249 97.9811 88.536C98.4144 87.8472 98.6002 86.8285 98.5387 85.48C98.4771 84.1315 98.1115 82.4047 97.4419 80.2996C96.8337 78.1686 95.8827 75.5671 94.5889 72.4951C93.8126 70.6519 93.6071 69.2193 93.9724 68.1974C94.3377 67.1755 94.9149 66.5707 95.7039 66.3831C96.5285 66.1081 97.4599 66.2584 98.498 66.8339C99.5361 67.4094 100.353 68.4037 100.948 69.8168C104.804 78.9714 106.276 86.4171 105.364 92.1539C104.514 97.8649 100.872 102.184 94.4369 105.111C90.6891 106.69 87.4942 107.348 84.8521 107.086C82.1842 106.763 79.9528 105.931 78.1579 104.589C77.8509 107.467 77.0023 110.176 75.6121 112.714C74.2573 115.166 72.3819 116.896 69.9857 117.905C66.7294 119.276 63.7592 119.696 61.0751 119.162C58.4524 118.603 56.0528 117.371 53.8763 115.467C51.6739 113.501 49.6719 110.98 47.8704 107.905C46.1044 104.743 44.4322 101.287 42.8537 97.5396L37.8854 85.7432C37.549 84.9444 37.1981 84.3689 36.8326 84.0164C36.3798 83.6284 35.94 83.2711 35.5131 82.9445C35.0248 82.6438 34.5979 82.3173 34.2324 81.9648C33.7796 81.5768 33.3851 80.9834 33.0487 80.1847C32.35 78.5258 32.484 76.6971 33.4507 74.6985C34.4789 72.6741 36.6518 70.9632 39.9696 69.5658C44.0246 67.858 47.3441 67.5812 49.928 68.7354C52.5734 69.8637 54.8276 72.6397 56.6907 77.0634L61.9307 89.5049C62.914 91.8396 63.8035 93.7798 64.5992 95.3255C65.4304 96.7839 66.2067 97.9399 66.9279 98.7935C67.6232 99.5857 68.2765 100.106 68.8877 100.355C69.5345 100.517 70.1651 100.468 70.7795 100.21C71.3325 99.9767 71.7852 99.6775 72.1376 99.312C72.4901 98.9466 72.7859 98.5326 73.0252 98.0702C72.54 97.2618 72.1292 96.4582 71.7928 95.6595C71.5179 94.8349 71.2122 94.0232 70.8758 93.2245L61.3274 70.5532C60.784 69.263 60.3537 68.0698 60.0367 66.9735C59.7197 65.8773 59.6824 64.8441 59.9248 63.874C60.1673 62.9038 60.7331 62.0144 61.6223 61.2059C62.5471 60.31 63.9618 59.461 65.8664 58.6588C68.2626 57.6497 70.3403 57.1725 72.0995 57.2273C73.9201 57.2562 75.4756 57.6861 76.766 58.5171C78.0563 59.348 79.1738 60.5412 80.1182 62.0966C81.0982 63.5646 81.9763 65.2203 82.7526 67.0634L88.6913 81.1639C90.3571 84.9473 91.6848 87.4986 92.6745 88.8179C93.7256 90.1113 94.9092 90.517 96.2253 90.0351Z" fill="#E8B131" fill-opacity="0.98"/>
<path d="M153.713 72.7086C154.483 72.4894 155.124 72.0641 155.637 71.4326C156.15 70.8011 156.458 69.8123 156.56 68.4663C156.661 67.1202 156.507 65.3619 156.097 63.1913C155.75 61.0024 155.12 58.3051 154.207 55.0994C153.659 53.1759 153.628 51.729 154.114 50.7587C154.6 49.7884 155.246 49.2577 156.052 49.1667C156.904 48.9934 157.81 49.255 158.771 49.9517C159.732 50.6484 160.423 51.734 160.843 53.2087C162.231 58.0814 163.116 62.4044 163.498 66.1775C163.88 69.9506 163.681 73.2654 162.9 76.122C162.101 78.9144 160.657 81.2667 158.568 83.1791C156.46 85.0273 153.643 86.4538 150.117 87.4585C148.001 88.0613 145.899 88.3482 143.812 88.3192C141.724 88.2902 139.751 87.5699 137.893 86.1582C136.081 84.6642 134.434 82.2913 132.953 79.0393C131.472 75.7873 130.28 71.2398 129.378 65.3968C128.585 60.4237 127.731 57.0623 126.817 55.3126C125.903 53.5628 124.612 52.9255 122.945 53.4004C122.047 53.6561 121.383 54.1227 120.952 54.8C120.567 55.3949 120.232 56.0449 119.948 56.7498L124.661 73.2915C125.574 76.4972 126.291 79.3778 126.811 81.9331C127.395 84.4701 127.38 86.7274 126.765 88.7049C126.122 90.8289 125.045 92.5223 123.533 93.7849C122.021 95.0475 120.143 95.9984 117.899 96.6378C115.719 97.2589 113.668 97.1154 111.746 96.2074C109.869 95.217 108.438 92.9907 107.451 89.5285L97.4226 54.3293C96.9842 52.7905 96.8295 51.5175 96.9584 50.5103C97.0691 49.439 97.404 48.5464 97.9631 47.8325C98.504 47.0546 99.237 46.4644 100.162 46.0622C101.133 45.5776 102.228 45.1617 103.446 44.8147C106.139 44.0474 108.511 44.0996 110.561 44.971C112.676 45.8242 114.474 47.1488 115.957 48.9447C116.279 45.9414 117.435 43.1858 119.424 40.6782C121.477 38.1523 124.043 36.4509 127.12 35.5741C130.518 34.6059 133.371 34.521 135.678 35.3194C138.049 36.0996 140.008 37.6211 141.554 39.8842C143.164 42.1289 144.439 45.0236 145.379 48.5682C146.32 52.1128 147.123 56.1472 147.788 60.6714C148.171 63.4739 148.535 65.7269 148.882 67.4304C149.274 69.0515 149.704 70.3156 150.17 71.2225C150.618 72.0653 151.113 72.5831 151.653 72.7758C152.257 72.9502 152.944 72.9278 153.713 72.7086Z" fill="#E8B131" fill-opacity="0.98"/>
<path d="M178.599 90.7138C176.922 92.3047 175.356 93.198 173.901 93.3937C172.446 93.5895 171.242 93.2994 170.288 92.5235C169.4 91.7358 168.814 90.5547 168.529 88.9803C168.244 87.4059 168.433 85.6441 169.096 83.6947C169.962 81.3698 170.522 78.6601 170.775 75.5655C171.093 72.4591 171.152 69.2303 170.951 65.879C170.805 62.4503 170.417 58.9975 169.787 55.5207C169.223 52.032 168.447 48.6833 167.46 45.4746C166.538 42.254 165.395 39.3105 164.032 36.6442C162.734 33.9659 161.316 31.7497 159.779 29.9955C158.075 28.0683 156.952 26.1713 156.411 24.3045C155.935 22.4259 156.002 20.9233 156.611 19.7967C157.286 18.6583 158.553 17.9884 160.414 17.787C162.274 17.5856 164.716 18.1598 167.738 19.5096C172.382 21.582 176.399 24.31 179.789 27.6933C183.168 31.0111 185.872 34.7219 187.902 38.8258C189.998 42.9179 191.397 47.2718 192.097 51.8875C192.797 56.5033 192.752 61.1185 191.962 65.7331C191.225 70.2703 189.758 74.7027 187.56 79.0301C185.363 83.3576 182.376 87.2521 178.599 90.7138Z" fill="#E8B131" fill-opacity="0.98"/>
<path d="M228.721 60.9049C229.517 60.8208 230.221 60.5117 230.835 59.9775C231.449 59.4434 231.922 58.5219 232.253 57.2132C232.583 55.9045 232.766 54.1422 232.8 51.9264C232.834 49.7105 232.676 46.9452 232.325 43.6303C232.115 41.6414 232.332 40.2106 232.978 39.338C233.623 38.4653 234.35 38.0532 235.16 38.1017C236.029 38.0769 236.877 38.4901 237.704 39.3411C238.531 40.1922 239.026 41.3802 239.187 42.905C240.231 52.7833 239.488 60.3366 236.957 65.565C234.425 70.7934 229.657 73.8784 222.65 74.8202C218.606 75.2477 215.357 74.9542 212.904 73.9398C210.443 72.8592 208.548 71.4171 207.217 69.6136C205.887 67.8101 205 65.7587 204.556 63.4593C204.105 61.0936 203.763 58.8169 203.532 56.6291L198.791 11.779C198.714 11.0497 198.663 10.2506 198.638 9.38175C198.68 8.50587 198.894 7.67876 199.281 6.90044C199.734 6.1151 200.5 5.43083 201.578 4.84761C202.649 4.19809 204.212 3.76471 206.267 3.54747C210.311 3.11998 213.546 3.91765 215.973 5.94049C218.458 7.89003 219.928 11.0195 220.384 15.3288L224.074 50.2343C224.574 54.3377 225.108 57.164 225.674 58.7131C226.306 60.2552 227.322 60.9858 228.721 60.9049Z" fill="#E8B131" fill-opacity="0.98"/>
<path d="M263.852 59.074C264.651 59.0449 265.376 58.785 266.025 58.2944C266.674 57.8037 267.209 56.917 267.629 55.6342C268.049 54.3514 268.319 52.6071 268.439 50.4012C268.626 48.193 268.658 45.4233 268.537 42.0922C268.464 40.0935 268.779 38.6811 269.483 37.8549C270.187 37.0287 270.941 36.6677 271.745 36.7718C272.614 36.8069 273.431 37.2774 274.198 38.1834C274.965 39.0895 275.376 40.3086 275.432 41.8409C275.794 51.7677 274.532 59.2519 271.647 64.2936C268.829 69.3329 263.892 72.0812 256.837 72.5383C252.773 72.6864 249.553 72.17 247.175 70.9891C244.794 69.7416 243.003 68.1725 241.8 66.2817C240.597 64.3909 239.853 62.2833 239.568 59.9587C239.281 57.5676 239.097 55.2728 239.017 53.0742L238.442 37.2847C238.267 32.4879 239.109 29.055 240.968 26.9859C242.825 24.8502 245.852 23.7059 250.049 23.553C251.648 23.4947 253.019 23.5782 254.161 23.8034C255.368 23.9596 256.317 24.392 257.01 25.1006C257.767 25.7401 258.336 26.6867 258.715 27.9404C259.094 29.1941 259.32 30.8203 259.393 32.8189L259.95 48.1088C260.167 52.237 260.505 55.0932 260.963 56.6776C261.487 58.2596 262.45 59.0584 263.852 59.074ZM258.556 9.83418C258.655 12.5657 257.874 14.929 256.212 16.9242C254.55 18.9194 251.921 19.9825 248.323 20.1136C244.859 20.2398 242.192 19.3696 240.323 17.5031C238.52 15.6342 237.569 13.3339 237.47 10.6024C237.368 7.80427 238.148 5.40762 239.809 3.41246C241.538 1.41487 244.134 0.352971 247.598 0.226752C251.196 0.0956789 253.896 0.964613 255.699 2.83355C257.501 4.70249 258.454 7.03604 258.556 9.83418Z" fill="#E8B131" fill-opacity="0.98"/>
<path d="M348.501 63.5705C349.298 63.6358 350.048 63.4631 350.751 63.0524C351.453 62.6417 352.089 61.8241 352.657 60.5998C353.226 59.3754 353.699 57.6751 354.078 55.4987C354.524 53.3278 354.882 50.5813 355.154 47.259C355.318 45.2657 355.797 43.9003 356.593 43.1628C357.39 42.4253 358.181 42.1557 358.967 42.3538C359.826 42.491 360.582 43.0546 361.237 44.0447C361.892 45.0347 362.156 46.2939 362.031 47.8221C361.618 52.8719 360.927 57.23 359.957 60.8965C358.988 64.563 357.636 67.5961 355.901 69.9958C354.172 72.3292 351.993 74.0237 349.365 75.0794C346.742 76.0687 343.603 76.4137 339.949 76.1145C337.756 75.935 335.688 75.4646 333.743 74.7034C331.799 73.9422 330.205 72.5743 328.962 70.5996C327.791 68.5639 327.084 65.7635 326.841 62.1984C326.598 58.6334 327.081 53.9572 328.29 48.1699C329.296 43.2356 329.679 39.7886 329.438 37.8291C329.197 35.8696 328.213 34.8191 326.485 34.6776C325.821 34.6232 325.209 34.7404 324.651 35.0291C324.164 35.2568 323.705 35.5536 323.273 35.9197C323.374 36.3292 323.396 36.8662 323.342 37.5307C323.288 38.1951 323.214 39.0921 323.122 40.2217L320.967 66.5336C320.891 67.4638 320.68 68.4164 320.332 69.3913C320.057 70.3052 319.587 71.1363 318.924 71.8847C318.266 72.5666 317.387 73.0966 316.285 73.4747C315.251 73.8582 313.936 73.9847 312.341 73.8541C307.956 73.4951 304.948 72.2454 303.317 70.1052C301.758 67.904 301.175 64.4114 301.566 59.6274L302.839 44.0794C303.177 39.9599 303.214 37.0532 302.951 35.3595C302.694 33.5993 301.801 32.6566 300.273 32.5315C299.742 32.488 299.26 32.6492 298.829 33.0153C298.397 33.3813 298.024 33.8524 297.71 34.4287L296.282 51.8703C296.01 55.1925 295.668 58.1411 295.256 60.7161C294.845 63.2911 294.004 65.3962 292.733 67.0313C291.384 68.7938 289.781 70.0003 287.921 70.6507C286.062 71.3012 283.97 71.5312 281.644 71.3408C279.385 71.1558 277.515 70.3004 276.035 68.7745C274.626 67.1876 274.069 64.6001 274.363 61.0121L277.349 24.5342C277.61 21.3449 278.54 19.3809 280.139 18.6422C281.744 17.8371 283.842 17.5407 286.433 17.7528C288.626 17.9324 290.481 18.5525 292 19.6133C293.524 20.6076 294.721 21.9097 295.593 23.5195C297.229 21.513 299.1 19.8937 301.208 18.6615C303.316 17.4294 305.532 16.9086 307.858 17.099C311.645 17.409 314.628 18.5563 316.807 20.5407C318.991 22.4587 320.522 24.9921 321.402 28.141C322.826 25.4483 324.91 23.2778 327.654 21.6295C330.403 19.9148 333.406 19.1907 336.661 19.4573C340.183 19.7456 342.883 20.669 344.762 22.2276C346.708 23.7915 348.006 25.9045 348.658 28.5666C349.376 31.2341 349.552 34.3923 349.187 38.0413C348.821 41.6903 348.154 45.7495 347.186 50.2187C346.559 52.9767 346.108 55.2141 345.834 56.9307C345.632 58.5864 345.589 59.9207 345.707 60.9337C345.83 61.8803 346.111 62.5387 346.549 62.909C347.053 63.2847 347.704 63.5052 348.501 63.5705Z" fill="#E8B131" fill-opacity="0.98"/>
<path d="M383.6 71.1485C384.384 71.3073 385.149 71.2241 385.895 70.8991C386.641 70.574 387.368 69.8371 388.077 68.6882C388.786 67.5394 389.457 65.9067 390.089 63.7901C390.787 61.6868 391.467 59.0017 392.129 55.7347C392.526 53.7744 393.163 52.4751 394.041 51.8365C394.918 51.198 395.736 51.0235 396.493 51.3129C397.329 51.5503 398.014 52.1991 398.548 53.2594C399.081 54.3197 399.196 55.6013 398.892 57.1041C396.92 66.8399 393.942 73.821 389.957 78.0475C386.038 82.2873 380.595 83.8039 373.629 82.5973C369.643 81.7902 366.633 80.5343 364.597 78.8298C362.575 77.0598 361.2 75.115 360.473 72.9952C359.746 70.8754 359.516 68.6521 359.783 66.3255C360.064 63.9336 360.422 61.6595 360.859 59.5033L363.995 44.0176C364.947 39.3131 366.57 36.1726 368.861 34.5961C371.166 32.9543 374.377 32.5501 378.494 33.3837C380.062 33.7013 381.375 34.1032 382.433 34.5895C383.569 35.0237 384.391 35.6664 384.899 36.5174C385.486 37.3164 385.816 38.3697 385.892 39.6773C385.967 40.9849 385.806 42.6188 385.409 44.579L382.373 59.5747C381.618 63.639 381.277 66.4949 381.352 68.1425C381.492 69.8033 382.241 70.8053 383.6 71.1485ZM389.974 22.0366C389.432 24.7156 388.119 26.8305 386.037 28.3813C383.954 29.9322 381.149 30.3503 377.62 29.6358C374.222 28.9478 371.833 27.4777 370.453 25.2255C369.138 22.9866 368.751 20.5277 369.294 17.8488C369.85 15.1045 371.169 12.9569 373.251 11.4061C375.399 9.86844 378.172 9.44366 381.57 10.1317C385.098 10.8462 387.52 12.3229 388.835 14.5618C390.15 16.8007 390.53 19.2923 389.974 22.0366Z" fill="#E8B131" fill-opacity="0.98"/>
<path d="M400.835 44.6214C399.485 44.2498 398.736 43.4556 398.586 42.2391C398.455 40.9583 398.566 39.6751 398.92 38.3896C399.228 37.0221 399.757 35.854 400.508 34.8853C401.212 33.8345 402.303 33.5127 403.781 33.9197L404.842 34.2118L405.984 30.0661C406.479 28.2664 407.307 26.7657 408.468 25.564C409.629 24.3624 410.993 23.4244 412.562 22.7499C414.131 22.0755 415.853 21.7201 417.73 21.6838C419.625 21.5832 421.504 21.7895 423.368 22.3028C425.747 22.9576 427.203 23.9464 427.738 25.2692C428.29 26.5277 428.212 28.4424 427.504 31.0134L425.088 39.7868L427.499 40.4505C428.72 40.7868 429.364 41.5865 429.431 42.8496C429.58 44.0662 429.469 45.3493 429.097 46.6991C428.743 47.9846 428.214 49.1527 427.51 50.2035C426.823 51.1899 425.837 51.5062 424.552 51.1522L422.142 50.4885L417.23 68.3247C416.197 72.3274 415.661 75.1531 415.622 76.8019C415.647 78.4684 416.326 79.5196 417.658 79.9555C418.429 80.1679 419.198 80.1377 419.965 79.8647C420.731 79.5918 421.508 78.9066 422.294 77.8093C423.08 76.712 423.894 75.1382 424.735 73.0879C425.576 71.0377 426.439 68.4057 427.324 65.192C427.855 63.2637 428.58 62.0113 429.5 61.4347C430.419 60.8581 431.247 60.7403 431.983 61.0812C432.801 61.3755 433.439 62.07 433.898 63.1645C434.358 64.259 434.384 65.5455 433.977 67.0238C431.339 76.6007 427.888 83.3602 423.621 87.3024C419.355 91.2445 413.789 92.374 406.923 90.6908C403.002 89.6112 400.085 88.151 398.172 86.3104C396.276 84.4054 395.038 82.3705 394.459 80.2057C393.88 78.0409 393.803 75.8071 394.23 73.5044C394.674 71.1374 395.188 68.8934 395.772 66.7724L401.799 44.8869L400.835 44.6214Z" fill="#E8B131" fill-opacity="0.98"/>
<path d="M480.98 74.8474C479.975 78.1016 478.42 80.8295 476.314 83.0309C474.209 85.2323 471.736 86.798 468.896 87.728C466.08 88.5955 462.994 88.757 459.638 88.2125C456.369 87.6289 453.025 86.1988 449.606 83.9221C448.858 87.0592 448.906 89.7824 449.75 92.0915C450.68 94.3617 452.082 96.1322 453.955 97.4031C455.891 98.6974 458.13 99.4648 460.674 99.7054C463.28 99.9694 465.878 99.5897 468.468 98.5662C471.121 97.5661 473.586 95.9263 475.863 93.6468C478.203 91.3906 480.074 88.3895 481.476 84.6435C482.178 82.7705 483.012 81.5879 483.979 81.0959C484.947 80.6038 485.782 80.5605 486.484 80.9659C487.272 81.3322 487.846 82.081 488.206 83.2122C488.565 84.3434 488.476 85.627 487.938 87.063C486.138 91.8704 483.757 95.8549 480.793 99.0165C477.853 102.116 474.624 104.466 471.106 106.067C467.673 107.629 464.077 108.49 460.316 108.648C456.555 108.805 452.965 108.316 449.547 107.178C446.129 106.041 442.995 104.334 440.146 102.057C437.297 99.7796 435.037 96.9757 433.365 93.6447C431.756 90.3372 430.849 86.5806 430.644 82.375C430.439 78.1695 431.272 73.5693 433.142 68.5746C435.005 63.7906 437.148 59.9662 439.574 57.1014C442.085 54.1975 444.756 52.1011 447.588 50.8122C450.443 49.4609 453.45 48.843 456.611 48.9584C459.771 49.0739 462.974 49.7394 466.221 50.955C468.781 51.9134 471.138 53.2231 473.292 54.884C475.446 56.5449 477.222 58.4557 478.62 60.6164C480.041 62.7146 480.971 64.9847 481.409 67.4268C481.91 69.8922 481.767 72.3657 480.98 74.8474ZM461.475 63.0594C460.538 62.7088 459.622 62.9706 458.725 63.845C457.89 64.7427 457.044 65.9565 456.187 67.4863C455.353 68.9536 454.566 70.5809 453.825 72.3681C453.147 74.1786 452.528 75.8331 451.967 77.3315C453.216 78.3687 454.445 78.7933 455.654 78.6054C456.887 78.3551 457.995 77.7733 458.977 76.8598C460.046 75.9074 460.954 74.717 461.702 73.2887C462.451 71.8604 462.946 70.444 463.187 69.0394C463.49 67.6581 463.494 66.4136 463.197 65.3058C462.985 64.1589 462.411 63.4101 461.475 63.0594Z" fill="#E8B131" fill-opacity="0.98"/>
<path d="M531.864 112.002C530.457 114.727 529.341 116.964 528.513 118.713C527.745 120.492 527.22 121.947 526.937 123.076C526.685 124.146 526.674 124.966 526.906 125.535C527.137 126.105 527.549 126.543 528.141 126.848C528.912 127.246 529.7 127.39 530.506 127.281C531.343 127.113 532.23 126.557 533.166 125.615C534.162 124.704 535.238 123.346 536.394 121.542C537.639 119.709 539.027 117.311 540.555 114.349C541.472 112.572 542.44 111.496 543.459 111.121C544.477 110.747 545.311 110.802 545.961 111.287C546.701 111.744 547.182 112.555 547.406 113.721C547.63 114.886 547.39 116.151 546.687 117.513C544.364 122.016 542.02 125.758 539.656 128.739C537.352 131.751 534.908 134.016 532.324 135.533C529.831 137.022 527.138 137.733 524.247 137.667C521.445 137.572 518.415 136.683 515.157 135.002C512.965 133.871 510.897 132.354 508.953 130.45C507.099 128.518 505.951 126.238 505.507 123.608C503.162 125.099 500.676 125.992 498.049 126.286C495.45 126.671 492.728 126.129 489.885 124.662C486.685 123.011 484.371 120.954 482.941 118.491C481.571 116.058 480.875 113.336 480.854 110.324C480.832 107.312 481.365 104.099 482.452 100.684C483.629 97.2401 485.135 93.7409 486.969 90.1863C488.803 86.6317 490.768 83.4066 492.862 80.5113C495.046 77.5872 497.371 75.2613 499.838 73.5335C502.305 71.8058 504.927 70.7956 507.704 70.5029C510.48 70.2103 513.468 70.8894 516.668 72.5402C518.623 73.5491 520.08 75.0137 521.039 76.9342C522.058 78.8853 522.687 81.0102 522.926 83.3092L530.08 69.4461C531.272 67.1355 532.647 65.7069 534.204 65.1602C535.792 64.5543 538.022 65.0299 540.895 66.5872C544.893 68.7252 547.322 71.1415 548.182 73.8359C549.042 76.5304 548.372 80.0104 546.171 84.276L531.864 112.002ZM502.955 113.289C503.844 113.748 504.724 113.714 505.595 113.188C506.497 112.604 507.48 111.498 508.544 109.872C509.668 108.276 510.947 106.16 512.382 103.525C513.847 100.83 515.559 97.587 517.515 93.7954C517.376 93.0482 517.132 92.2848 516.784 91.5051C516.495 90.756 515.936 90.1675 515.107 89.7395C513.922 89.1281 512.59 89.5285 511.111 90.9409C509.722 92.3246 507.866 95.2677 505.542 99.7703C503.219 104.273 501.896 107.491 501.573 109.425C501.309 111.39 501.77 112.678 502.955 113.289Z" fill="#E8B131" fill-opacity="0.98"/>
</svg>
